<svg xmlns="http://www.w3.org/2000/svg" viewBox="0 0 672.05 424.95"><defs><style>.cls-1{isolation:isolate;}.cls-2{mix-blend-mode:multiply;}.cls-3{fill:#6ec191;}.cls-4{fill:#c0dc92;}</style></defs><title>Asset 4</title><g class="cls-1"><g id="Layer_2" data-name="Layer 2"><g id="Layer_1-2" data-name="Layer 1"><g class="cls-2"><path class="cls-3" d="M94.23,9.87l-12,20.71c-7.28-5.51-13.1-7.93-18.93-7.93-7.44,0-12.13,3.56-12.13,9.38C51.2,37.21,54,39.8,65,45c17.8,8.42,24,16,24,30.25,0,21.68-17.15,36.89-41.26,36.89-12.94,0-22-2.91-36.4-11.81l12.3-20.71c9.71,6.64,15.37,8.9,22.81,8.9,8.57,0,14.4-4.37,14.4-11,0-4.69-2.43-7.28-12.62-12.3C28.88,55.49,23.21,48.53,23.21,34,23.21,14.4,40,0,62.85,0,73.85,0,83.72,3.07,94.23,9.87Z"/><path class="cls-3" d="M363.27,2.1l-7.6,62.45c-2.59,20.7-5.34,29-12.3,35.59-8.08,7.76-21,12-36.88,12-28,0-45-13.75-45-36.89a140.6,140.6,0,0,1,1.29-14.88L269.93,2.1h27.18L290,60.34c-.32,3.24-.49,6.31-.49,9.06,0,11.32,5.83,16.83,17.8,16.83,6.79,0,12.13-1.78,15.37-5.34,3.39-3.89,4.53-7.61,5.82-17.31L335.93,2.1Z"/><path class="cls-3" d="M648,2.1,634.74,110H604.81L576.18,61.64a186.8,186.8,0,0,1-13.27-26.7V39.8a156,156,0,0,1-1.13,20.38L555.63,110H528.29L541.56,2.1H571l30.74,52.09,4.69,8.74,4.21,8.25,2.1,4A167.11,167.11,0,0,1,614,56.78L620.67,2.1Z"/><path class="cls-3" d="M57.43,203h51.93c-.32,12-1.78,20.87-5.34,29.93-7.6,20.06-26.85,32.2-50.31,32.2C22,265.12,0,243.44,0,212.05c0-34.13,24.91-59,59.05-59q20.63,0,34.45,11.64c6.8,5.83,9.55,9.55,13.92,19.9l-23.78,9.22C78.3,182,70.21,176.14,58.4,176.14c-17.15,0-30.25,15.21-30.25,35.43C28.15,229,40,241.5,56.46,241.5c11.81,0,21-6.64,23.46-16.83H54.84Z"/><path class="cls-3" d="M395.06,203.64v2.1c0,35.43-23.62,59.38-58.56,59.38-35.1,0-58.88-22-58.88-54.52,0-33.81,25.23-57.59,61-57.59C371.28,153,393.77,173.07,395.06,203.64Zm-28.14,3.08c-1-17-12.46-27.83-29.45-27.83-18.44,0-31.87,12.94-31.87,30.74s12.14,29.6,30.25,29.6c18.45,0,31.23-12.45,31.23-30.57A7.91,7.91,0,0,0,366.92,206.72Z"/><path class="cls-3" d="M575.13,155.11H605.7c15.21,0,31.55,2.59,43.2,13.43,9.22,8.57,13.59,20.7,13.59,36.4,0,23.45-8.58,36.23-18.12,44.16C628,262.53,608.46,263,597.45,263H561.86Zm24.43,23.78-7.44,60.34h8.25c14.07,0,21.51-5.66,24.26-8.25,6-5.5,9.71-14.56,9.71-24.75,0-9.54-3.08-16.82-7.77-21.19-5.82-5.34-13.59-6.15-19.57-6.15Z"/><path class="cls-3" d="M16.91,308.12H51.36c13.92,0,20.39,1.45,25.56,5.5,5.5,4.2,8.58,11.48,8.58,19.57A30.7,30.7,0,0,1,80.65,350c-3.24,4.69-5.83,6.79-12.79,9.86,6.8,1.62,9.39,2.75,12.79,5.67,4.69,4,7.27,10.35,7.27,17.95a32,32,0,0,1-20.54,29.77C62,415.37,56.7,416,46.51,416H3.64Zm19.41,63.09L33.57,394.5H41c13.43,0,18.6-3.88,18.6-13.1,0-7.93-3.23-10.19-15-10.19Zm5.18-41.58L38.91,351h3.88c12,0,16.82-3.56,16.82-12,0-7.28-2.91-9.39-13.1-9.39Z"/><path class="cls-3" d="M157.82,397.9,149.57,416H119.15l53.55-107.9h30.74l26,107.9H200.85l-4.53-18.12Zm10-21.35h23.29L186.61,356c-1.78-8.25-1.94-9.22-2.42-12.46a30.81,30.81,0,0,1-.65-3.88,116.51,116.51,0,0,1-4.85,12.78Z"/><path class="cls-3" d="M283.36,308.12h34.46c13.91,0,20.38,1.45,25.56,5.5,5.5,4.2,8.57,11.48,8.57,19.57A30.7,30.7,0,0,1,347.1,350c-3.24,4.69-5.83,6.79-12.78,9.86,6.79,1.62,9.38,2.75,12.78,5.67,4.69,4,7.28,10.35,7.28,17.95a32,32,0,0,1-20.55,29.77c-5.34,2.1-10.67,2.75-20.87,2.75H270.09Zm19.41,63.09L300,394.5h7.44c13.43,0,18.61-3.88,18.61-13.1,0-7.93-3.24-10.19-15.05-10.19ZM308,329.63,305.36,351h3.88c12,0,16.83-3.56,16.83-12,0-7.28-2.91-9.39-13.11-9.39Z"/><path class="cls-3" d="M437.54,308.12,424.27,416H396.93l13.27-107.9Z"/><path class="cls-3" d="M548.51,308.12,545.6,331.9H513.89l-2.26,18h30.74l-2.91,23.62H508.72l-2.27,18.77h33L536.54,416H476.2l13.27-107.9Z"/><path class="cls-3" d="M662.41,315.88l-12,20.71c-7.28-5.5-13.1-7.93-18.92-7.93-7.44,0-12.14,3.56-12.14,9.38,0,5.18,2.75,7.77,13.75,12.95,17.8,8.41,24,16,24,30.25,0,21.68-17.15,36.88-41.26,36.88-12.94,0-22-2.91-36.39-11.81l12.29-20.7c9.71,6.63,15.37,8.89,22.81,8.89,8.57,0,14.4-4.36,14.4-11,0-4.69-2.43-7.28-12.62-12.29-19.25-9.71-24.91-16.66-24.91-31.22,0-19.58,16.82-34,39.63-34C642,306,651.89,309.09,662.41,315.88Z"/></g><g class="cls-2"><path class="cls-4" d="M103.79,16.7l-12,20.7c-7.28-5.5-13.1-7.92-18.92-7.92-7.45,0-12.14,3.56-12.14,9.38,0,5.18,2.75,7.76,13.75,12.94,17.8,8.41,23.95,16,23.95,30.25,0,21.68-17.15,36.89-41.26,36.89-12.94,0-22-2.91-36.4-11.81L33.1,86.42c9.71,6.63,15.37,8.9,22.81,8.9,8.57,0,14.4-4.37,14.4-11,0-4.69-2.43-7.28-12.62-12.3C38.44,62.32,32.78,55.36,32.78,40.8c0-19.57,16.82-34,39.63-34C83.41,6.83,93.28,9.9,103.79,16.7Z"/><path class="cls-4" d="M372.83,8.93l-7.6,62.45c-2.59,20.7-5.34,29-12.29,35.59-8.09,7.76-21,12-36.89,12-28,0-45-13.75-45-36.89a140.6,140.6,0,0,1,1.29-14.88l7.12-58.24h27.18l-7.12,58.24c-.32,3.24-.49,6.31-.49,9.06,0,11.32,5.83,16.82,17.8,16.82,6.79,0,12.13-1.78,15.37-5.33,3.39-3.89,4.53-7.61,5.82-17.31l7.44-61.48Z"/><path class="cls-4" d="M657.57,8.93,644.3,116.83H614.37L585.74,68.46a186.11,186.11,0,0,1-13.27-26.69v4.85A156,156,0,0,1,571.34,67l-6.15,49.82H537.85L551.12,8.93h29.44L611.3,61,616,69.76,620.2,78l2.1,4a169.58,169.58,0,0,1,1.29-18.44l6.64-54.68Z"/><path class="cls-4" d="M67,209.82h51.93c-.32,12-1.78,20.87-5.34,29.93C106,259.81,86.73,272,63.27,272c-31.71,0-53.71-21.68-53.71-53.07,0-34.13,24.91-59,59.05-59q20.63,0,34.46,11.64c6.79,5.83,9.54,9.55,13.91,19.9L93.2,200.6C87.86,188.79,79.77,183,68,183c-17.15,0-30.25,15.21-30.25,35.43,0,17.47,11.81,29.93,28.31,29.93,11.81,0,21-6.64,23.46-16.83H64.4Z"/><path class="cls-4" d="M404.62,210.47v2.1C404.62,248,381,272,346.06,272c-35.1,0-58.88-22-58.88-54.52,0-33.81,25.23-57.59,61-57.59C380.84,159.84,403.33,179.9,404.62,210.47Zm-28.14,3.07c-1-17-12.46-27.82-29.45-27.82-18.44,0-31.87,12.94-31.87,30.74s12.14,29.6,30.26,29.6c18.44,0,31.22-12.46,31.22-30.57A8,8,0,0,0,376.48,213.54Z"/><path class="cls-4" d="M584.69,161.94h30.57c15.21,0,31.55,2.59,43.2,13.43,9.22,8.57,13.59,20.7,13.59,36.4,0,23.45-8.58,36.23-18.12,44.16C637.59,269.36,618,269.84,607,269.84H571.42Zm24.43,23.78-7.44,60.34h8.25c14.07,0,21.51-5.66,24.26-8.25,6-5.5,9.71-14.56,9.71-24.75,0-9.55-3.07-16.83-7.77-21.19-5.82-5.34-13.59-6.15-19.57-6.15Z"/><path class="cls-4" d="M26.47,315H60.92c13.92,0,20.39,1.45,25.56,5.5,5.5,4.2,8.58,11.48,8.58,19.57a30.64,30.64,0,0,1-4.85,16.82c-3.24,4.7-5.83,6.8-12.78,9.87,6.79,1.62,9.38,2.75,12.78,5.67,4.69,4,7.28,10.35,7.28,17.95A32,32,0,0,1,76.94,420.1c-5.34,2.1-10.68,2.75-20.87,2.75H13.2ZM45.88,378l-2.75,23.29h7.44c13.43,0,18.6-3.88,18.6-13.1,0-7.93-3.23-10.19-15-10.19Zm5.18-41.58-2.59,21.36h3.88c12,0,16.82-3.56,16.82-12,0-7.28-2.91-9.38-13.1-9.38Z"/><path class="cls-4" d="M167.38,404.73l-8.25,18.12H128.71L182.26,315H213l26,107.9H210.41l-4.53-18.12Zm10-21.35H200.7l-4.53-20.55c-1.77-8.25-1.94-9.22-2.42-12.46a30.81,30.81,0,0,1-.65-3.88,114.5,114.5,0,0,1-4.85,12.78Z"/><path class="cls-4" d="M292.92,315h34.46c13.91,0,20.38,1.45,25.56,5.5,5.5,4.2,8.57,11.48,8.57,19.57a30.64,30.64,0,0,1-4.85,16.82c-3.24,4.7-5.82,6.8-12.78,9.87,6.79,1.62,9.38,2.75,12.78,5.67,4.69,4,7.28,10.35,7.28,17.95a32,32,0,0,1-20.55,29.77c-5.33,2.1-10.67,2.75-20.87,2.75H279.65ZM312.33,378l-2.75,23.29H317c13.43,0,18.61-3.88,18.61-13.1,0-7.93-3.24-10.19-15.05-10.19Zm5.18-41.58-2.59,21.36h3.88c12,0,16.83-3.56,16.83-12,0-7.28-2.91-9.38-13.11-9.38Z"/><path class="cls-4" d="M447.1,315l-13.27,107.9H406.49L419.76,315Z"/><path class="cls-4" d="M558.08,315l-2.92,23.78h-31.7l-2.27,17.95h30.74L549,380.3H518.28L516,399.07h33l-2.92,23.78H485.76L499,315Z"/><path class="cls-4" d="M672,322.71l-12,20.71c-7.29-5.5-13.11-7.93-18.93-7.93-7.44,0-12.14,3.56-12.14,9.38,0,5.18,2.75,7.77,13.75,12.95,17.8,8.41,24,16,24,30.25,0,21.68-17.15,36.88-41.25,36.88-13,0-22-2.91-36.4-11.81l12.29-20.7c9.71,6.63,15.37,8.89,22.81,8.89,8.58,0,14.4-4.37,14.4-11,0-4.69-2.43-7.28-12.62-12.29C606.61,368.33,601,361.38,601,346.82c0-19.58,16.82-34,39.63-34C651.58,312.84,661.45,315.92,672,322.71Z"/></g></g></g></g></svg>