<svg xmlns="http://www.w3.org/2000/svg" viewBox="0 0 71.39 30.31"><defs><style>.cls-1{fill:#58595b;}</style></defs><title>Asset 3</title><g id="Layer_2" data-name="Layer 2"><g id="Layer_1-2" data-name="Layer 1"><path class="cls-1" d="M1.58,16.38a12.79,12.79,0,0,1,2.84-.29,4.5,4.5,0,0,1,3.3,1,3.07,3.07,0,0,1,1,2.45,3.27,3.27,0,0,1-2,3.05v0a3.48,3.48,0,0,1,2.48,3.49,4,4,0,0,1-1,2.78C7.31,29.8,6,30.21,4,30.21a16.27,16.27,0,0,1-2.41-.16Zm1.56,5.69H4.55a2.33,2.33,0,0,0,2.6-2.33c0-1.63-1.07-2.27-2.64-2.27a6,6,0,0,0-1.37.12Zm0,6.66a7.38,7.38,0,0,0,1.3.08c1.6,0,3.09-.68,3.09-2.7s-1.41-2.68-3.11-2.68H3.14Z"/><path class="cls-1" d="M18.64,25c0,3.69-2.21,5.29-4.3,5.29-2.34,0-4.14-2-4.14-5.13,0-3.34,1.89-5.3,4.28-5.3S18.64,22,18.64,25Zm-6.85.1c0,2.18,1.09,3.83,2.62,3.83S17,27.32,17,25.08c0-1.69-.73-3.84-2.58-3.84S11.79,23.22,11.79,25.12Z"/><path class="cls-1" d="M28,25c0,3.69-2.21,5.29-4.3,5.29-2.34,0-4.14-2-4.14-5.13,0-3.34,1.89-5.3,4.28-5.3S28,22,28,25Zm-6.85.1c0,2.18,1.09,3.83,2.62,3.83s2.62-1.63,2.62-3.87c0-1.69-.73-3.84-2.58-3.84S21.14,23.22,21.14,25.12Z"/><path class="cls-1" d="M31.08,24.69h0c.22-.36.52-.79.77-1.14l2.53-3.44H36.3L33,24.21l3.8,5.88H34.86l-3-4.79-.8,1v3.76H29.52V15.45h1.56Z"/><path class="cls-1" d="M37.23,28.23A3.77,3.77,0,0,0,39.3,29,1.47,1.47,0,0,0,41,27.47c0-.87-.45-1.34-1.61-1.84C37.82,25,37.09,24,37.09,22.81a2.83,2.83,0,0,1,3-2.93,3.86,3.86,0,0,1,2.12.62l-.39,1.32A3,3,0,0,0,40,21.24a1.33,1.33,0,0,0-1.44,1.36c0,.83.52,1.2,1.64,1.69,1.5.66,2.27,1.53,2.27,3a2.9,2.9,0,0,1-3.23,3,4.44,4.44,0,0,1-2.43-.68Z"/><path class="cls-1" d="M46,17.24v2.87H48.2v1.38H46v5.38c0,1.24.3,1.94,1.17,1.94a2.74,2.74,0,0,0,.91-.13l.08,1.37a3.53,3.53,0,0,1-1.4.24A2,2,0,0,1,45,29.53a4.1,4.1,0,0,1-.61-2.6V21.49H43.08V20.11h1.34V17.72Z"/><path class="cls-1" d="M57.23,25c0,3.69-2.21,5.29-4.3,5.29-2.33,0-4.14-2-4.14-5.13,0-3.34,1.89-5.3,4.29-5.3S57.23,22,57.23,25Zm-6.85.1C50.38,27.3,51.47,29,53,29s2.63-1.63,2.63-3.87c0-1.69-.74-3.84-2.59-3.84S50.38,23.22,50.38,25.12Z"/><path class="cls-1" d="M58.77,23.22c0-1.17,0-2.18-.07-3.11h1.37l0,2h.07a2.7,2.7,0,0,1,2.39-2.19,1.53,1.53,0,0,1,.45.06v1.71a2.09,2.09,0,0,0-.53-.06c-1.11,0-1.9,1-2.11,2.33a5.41,5.41,0,0,0-.07.85v5.32H58.77Z"/><path class="cls-1" d="M64.85,25.43c0,2.45,1.39,3.46,3,3.46a5.12,5.12,0,0,0,2.39-.51l.27,1.29a6.16,6.16,0,0,1-2.87.62c-2.66,0-4.25-2-4.25-5s1.54-5.38,4.05-5.38c2.82,0,3.57,2.87,3.57,4.7a7.72,7.72,0,0,1,0,.85Zm4.6-1.3c0-1.16-.41-2.95-2.17-2.95-1.59,0-2.29,1.69-2.41,2.95Z"/><path class="cls-1" d="M8.69,6.84c0,2.1-.31,3.7-3.51,3.7S1.51,9,1.51,6.84V1.72C1.51.57,1,.46.17.46V.15h4V.46c-.83,0-1.33.11-1.33,1.26V6.84c0,1.57.37,3.1,2.36,3.1,2.22,0,2.57-1.27,2.57-3.1V1.72C7.81.57,7.3.46,6.47.46V.15H10V.46c-.84,0-1.33.11-1.33,1.26Z"/><path class="cls-1" d="M17.18,10.13a7.93,7.93,0,0,1-2.75.41c-3.07,0-4.54-2.33-4.54-5.61C9.89,2.09,10.81,0,14.1,0a11.36,11.36,0,0,1,3,.43l.13,2.41H16.8A2.64,2.64,0,0,0,14.08.6c-2.47,0-2.67,2.63-2.67,4.21,0,2,.43,5,3.79,5a4.86,4.86,0,0,0,2-.38Z"/><path class="cls-1" d="M25.44,2.37A2.15,2.15,0,0,0,23,.6a1.78,1.78,0,0,0-1.93,1.67c0,1.37,1.82,1.82,3.16,2.6s2,1.34,2,2.8c0,1.95-1.69,2.87-3.8,2.87a17.28,17.28,0,0,1-2.64-.29l-.11-2.17h.39a2.24,2.24,0,0,0,2.49,1.77,2,2,0,0,0,2.23-1.94c0-1.66-2.56-2.16-4-3.25a2.33,2.33,0,0,1-1-2.06C19.88.75,21.4,0,23.33,0a10.77,10.77,0,0,1,2.38.26l.11,2.11Z"/><path class="cls-1" d="M32.58,10.4a4,4,0,0,1-1,.12c-.79,0-1-.41-1-1h0a2.18,2.18,0,0,1-1.94,1A1.54,1.54,0,0,1,27,9c0-2,2.57-2,3.61-2.08V6.38c0-1,0-2-1.17-2-.84,0-.95.36-.95.8a.64.64,0,0,1-.64.71.62.62,0,0,1-.66-.62c0-.89,1.33-1.34,2.27-1.34,1.87,0,2.21.91,2.21,2.18V9.53c0,.48.17.64.59.64a1.59,1.59,0,0,0,.37-.06Zm-2-3.05c-.65,0-2.4.14-2.4,1.41A1.09,1.09,0,0,0,29.09,10a1.64,1.64,0,0,0,1.47-1.79Z"/><path class="cls-1" d="M32.88,10.16c.57,0,1-.13,1-1V5.41c0-.82-.64-.86-1-.89V4.29L35,4V5.77h0A2.5,2.5,0,0,1,37.17,4c1.45,0,1.59.8,1.59,2.07V9.14c0,.89.46,1,1,1v.23H36.65v-.23c.58,0,1-.13,1-1V6.33c0-1.18,0-1.71-.91-1.71S35,6.16,35,7.46V9.14c0,.89.46,1,1,1v.23H32.88Z"/><path class="cls-1" d="M41.36,10.08c.83,0,1.34-.11,1.34-1.26V1.72C42.7.57,42.19.46,41.36.46V.15H45c2.55,0,5.25.56,5.25,5.14s-2.84,5.1-5.25,5.1h-3.6ZM44.07,8.5c0,1.12.12,1.29.89,1.29,2.64,0,3.73-1.42,3.73-4.5,0-2.83-.81-4.54-3.73-4.54-.77,0-.89.1-.89,1.29Z"/><path class="cls-1" d="M50.77,10.16c.58,0,1-.13,1-1V5.41c0-.82-.63-.86-1-.89V4.29L52.88,4V9.14c0,.89.46,1,1,1v.23H50.77Zm.76-8.23a.78.78,0,1,1,1.55,0,.78.78,0,1,1-1.55,0Z"/><path class="cls-1" d="M58.87,10.28a4.54,4.54,0,0,1-1.63.24c-2.12,0-3.31-1.16-3.31-3.45,0-2,.81-3.11,2.78-3.11A2.14,2.14,0,0,1,59,6.23v.3h-4c0,1.15.57,3.49,2.85,3.49a2.25,2.25,0,0,0,1-.18Zm-1-4.2c0-.72-.25-1.67-1.3-1.67s-1.47,1.17-1.47,1.67Z"/><path class="cls-1" d="M63.49,9.29c.65,0,2.17,0,2.17,1.55s-1.53,2.43-3.35,2.43c-1.34,0-2.73-.5-2.73-1.73a1.6,1.6,0,0,1,1.06-1.44,1.07,1.07,0,0,1-.58-1,2,2,0,0,1,.58-1.19,2.06,2.06,0,0,1-.79-1.83C59.85,4.35,61.14,4,62.43,4a2.65,2.65,0,0,1,1.41.34c.22-.51.55-1.46,1.38-1.46a.62.62,0,0,1,.66.66.58.58,0,0,1-.64.61c-.36,0-.44-.19-.62-.19s-.42.4-.49.62a2.31,2.31,0,0,1,.61,1.64c0,1.38-.86,2.16-2.5,2.16A3,3,0,0,1,61,8.13a1,1,0,0,0-.25.62c0,.54.69.54,1.12.54Zm-2.37,1a1.2,1.2,0,0,0-.65,1.05c0,.8.72,1.5,1.91,1.5s2.39-.64,2.39-1.63c0-.69-.57-.92-1.26-.92Zm1.19-2.38c1.15,0,1.3-.91,1.3-1.63,0-1-.36-1.85-1.34-1.85S61,5.21,61,6C61,7,61.33,7.89,62.31,7.89Z"/><path class="cls-1" d="M65.67,7.24c0-2,1.11-3.28,2.86-3.28s2.86,1.23,2.86,3.28-1.11,3.28-2.86,3.28S65.67,9.29,65.67,7.24Zm2.86,2.83c1.37,0,1.64-1.69,1.64-2.83s-.27-2.83-1.64-2.83-1.64,1.7-1.64,2.83S67.16,10.07,68.53,10.07Z"/><g id="line"><path class="cls-1" d="M59.16,12.75H0v.35H59.49A2.73,2.73,0,0,1,59.16,12.75Z"/><path class="cls-1" d="M71.1,12.75H65.26a3.34,3.34,0,0,1-.4.35H71.1Z"/></g></g></g></svg>