<svg xmlns="http://www.w3.org/2000/svg" viewBox="0 0 9.11 18.71"><defs><style>.cls-1{isolation:isolate;}.cls-2{mix-blend-mode:multiply;}.cls-3{fill:#58595b;}</style></defs><title>Asset 4</title><g class="cls-1"><g id="Layer_2" data-name="Layer 2"><g id="Layer_1-2" data-name="Layer 1"><g class="cls-2"><g id="nIeOPT"><path class="cls-3" d="M5.7,6.75H9c.12,0,.16,0,.16.16,0,1-.1,1.93-.14,2.89,0,.14-.08.13-.17.13H5.9c-.21,0-.21,0-.21.22,0,2.78,0,5.56,0,8.34a1.7,1.7,0,0,1,0,.22H2.34c0-.07,0-.15,0-.23V10.17c0-.24,0-.24-.24-.24H.18C0,9.94,0,9.89,0,9.76Q0,8.35,0,6.94c0-.16.05-.19.2-.19H2.13c.16,0,.2,0,.2-.2V4A3.78,3.78,0,0,1,5.3.17,5.06,5.06,0,0,1,6.58,0C7.39,0,8.2.06,9,.09l.08,0L9,3.05H7l-.44,0a.92.92,0,0,0-.82,1c0,.88,0,1.76,0,2.64A.13.13,0,0,0,5.7,6.75Z"/></g></g></g></g></g></svg>