<?xml version="1.0" encoding="utf-8"?>
<!-- Generator: Adobe Illustrator 23.0.1, SVG Export Plug-In . SVG Version: 6.00 Build 0)  -->
<svg version="1.1" id="Layer_1" xmlns="http://www.w3.org/2000/svg" xmlns:xlink="http://www.w3.org/1999/xlink" x="0px" y="0px"
	 viewBox="0 0 196.1 40" style="enable-background:new 0 0 196.1 40;" xml:space="preserve">
	 <defs>
    <filter id="blur" x="0" y="0">
      <feGaussianBlur in="SourceGraphic" stdDeviation="15" />
    </filter>
  </defs>
<style type="text/css">
	.st0{fill:#58595B;}
	.st1{fill-rule:evenodd;clip-rule:evenodd;fill:#58595B;}
</style>
<title>Asset 2</title>
<g>
	<g id="Layer_1-2">
		<path class="st0" d="M78,1.2c-1,0.9-1.6,2.2-1.6,3.5s0.5,2.6,1.5,3.5c0.9,0.7,1.8,1.2,2.8,1.6l1.5,0.7c0.3,0.1,0.5,0.3,0.7,0.5
			c0.5,0.4,0.8,1,0.8,1.7c0.1,0.6-0.1,1.2-0.6,1.5c-0.5,0.4-1.2,0.6-1.8,0.5c-1.2,0.1-2.3-0.7-2.5-1.9l-0.3-1.2l-3.2,1.1l0.3,1.1
			c0.6,2.6,3.1,4.4,5.7,4.2c0.8,0,1.6-0.1,2.4-0.4c2.1-0.7,3.5-2.8,3.3-5c0-1.5-0.6-2.9-1.6-3.9C85,8.3,84.5,7.9,84,7.6
			c-0.6-0.4-1.2-0.7-1.9-1c-0.7-0.3-1.3-0.6-1.9-1c-0.3-0.2-0.5-0.6-0.5-1c0-0.4,0.2-0.8,0.5-1.1c0.4-0.3,0.9-0.5,1.3-0.4
			c0.5,0,0.9,0.1,1.3,0.3c0.3,0.2,0.5,0.4,0.7,0.7L84.1,5l3-1.3l-0.7-1.2c-1-1.7-2.9-2.8-4.9-2.7C80.3-0.1,79,0.3,78,1.2z"/>
		<path class="st0" d="M102.5,0v12.8c0.1,0.5-0.2,1.1-0.6,1.4c-0.5,0.4-1.1,0.6-1.8,0.6c-0.6,0-1.3-0.2-1.8-0.5s-0.7-0.9-0.7-1.4V0
			h-3.3v12.8c-0.1,1.5,0.6,3,1.8,4c1.1,0.9,2.5,1.3,3.9,1.3s2.8-0.4,3.9-1.3c1.2-1,1.8-2.4,1.8-3.9V0H102.5z"/>
		<path class="st0" d="M142,2.4c-1.7,1.7-2.7,4.1-2.6,6.6c0.1,5.2,4.3,9.3,9.5,9.2c2.4,0,4.8-1,6.5-2.8c1.6-1.7,2.4-3.9,2.4-6.2V8
			h-8.5v3.3h4.8c-0.3,0.6-0.6,1.2-1.1,1.7c-1.1,1.2-2.7,1.9-4.4,1.8c-1.6,0.1-3.1-0.5-4.2-1.6c-1.1-1.1-1.7-2.6-1.6-4.2
			c0.1-3.3,2.9-5.9,6.2-5.8c1.8,0.1,3.4,0.9,4.5,2.3l0.7,1l2.7-2l-0.7-1c-3.2-4.2-9.2-4.9-13.4-1.6C142.5,2,142.2,2.2,142,2.4
			L142,2.4z"/>
		<path id="letter-o" class="st0" d="M162.8,2.4c-1.7,1.7-2.7,4.1-2.6,6.6c-0.2,4.9,3.6,9,8.5,9.2c0.2,0,0.5,0,0.7,0
			c2.5,0.1,4.8-0.9,6.6-2.6c1.7-1.7,2.7-4.1,2.6-6.6c0.1-2.5-0.9-4.8-2.6-6.6c-1.8-1.7-4.1-2.6-6.6-2.6C167-0.3,164.6,0.6,162.8,2.4
			z M165.2,13.1L165.2,13.1c-1.1-1.1-1.7-2.6-1.6-4.2c-0.1-1.6,0.5-3.1,1.6-4.2s2.6-1.7,4.2-1.6c3.1-0.2,5.7,2.2,5.9,5.3
			c0,0.2,0,0.4,0,0.6c0.1,1.6-0.5,3.1-1.6,4.3c-1.1,1.1-2.7,1.7-4.3,1.6C167.9,14.8,166.3,14.3,165.2,13.1z"/>
		<path class="st0" d="M181.6,0v17.9h6.4c2.3,0.1,4.5-1,6-2.8c1.4-1.7,2.2-3.9,2.1-6.2c0.1-2.2-0.7-4.4-2.1-6.1
			C192.5,1,190.3,0,188,0L181.6,0z M187.9,3.3c1.4,0,2.7,0.6,3.5,1.6c0.9,1.1,1.4,2.6,1.3,4c0.1,1.6-0.5,3.1-1.5,4.2
			c-0.8,0.9-2,1.4-3.3,1.4h-3.1V3.3H187.9z"/>
		<path class="st0" d="M128.3,0H125v11.3L115.3,0h-1.9v17.9h3.3V6.8l9.6,11.1h2V0z"/>
		<path class="st1" d="M28.3,34.4c-1.4-0.9-2.6-2-3.7-3.3s-2.2-3.1-2-5c0.1-0.4,0.2-0.8,0.4-1.1c1.8-2.5,9.6-2.6,10.8,0.6
			c0.1,0.3,0.2,0.5,0.2,0.8c-0.1,1.8-0.8,3.5-2,4.8C30.9,32.4,29.6,33.5,28.3,34.4z M26.8,26.9c-0.5,0.5-0.8,1.2-0.7,1.9
			c0.2,1.5,3.9,1.4,4.3,0.2c0.1-0.8-0.1-1.5-0.7-2.1c-0.4-0.5-0.9-1-1.5-1.3C27.7,25.9,27.2,26.4,26.8,26.9z"/>
		<path class="st1" d="M45.5-0.2c-0.9,2.3-1.8,4.6-2.7,7c-2.7,1.5-5.4,2.8-8.2,3.9c2.4,0,4.8-0.2,7.2-0.5c-0.7,1.9-1.4,3.8-2.1,5.7
			l-2.3,0.4c0.5,0.9,1.5,1.8,2,2.7c-1.7,0-3.4-0.1-5-0.2c1.2,0.4,2.2,1,3.2,1.8c0.2,0.2,0.7,0.7,0.9,0.8c0.4-0.1,0.8-0.2,1.2-0.3
			c5.6-1.5,11.6-3.1,17.1-4.6c-1.9,2-4,4.2-6,6.3c-0.3,0.3-0.6,0.6-0.9,0.9c-0.4,0.2-0.8,0.3-1.2,0.5c-1.2,0.5-2.3,0.9-3.5,1.4
			c3,0.6,6,1.1,8.9,1.8c-2.7,1-5.4,1.9-8.1,2.9c-0.4,0.2-0.7,0.3-1.1,0.4c-0.8,0.1-1.6-0.2-2.4-0.2c1.9,2.1,4.3,4.3,6.2,6.4
			c-2.7-0.7-5.5-1.4-8.3-2.1c-0.4-0.1-0.8-0.2-1.2-0.3c-0.5-0.3-0.9-0.7-1.3-1.1c-0.5-0.4-0.9-0.7-1.3-1c-2.3,3-5.1,5.6-8.3,7.6
			c-3.1-2.1-5.8-4.6-8.1-7.6c-0.4,0.3-0.8,0.7-1.3,1.1c-0.4,0.4-0.8,0.7-1.3,1c-0.4,0.1-0.8,0.2-1.2,0.3c-2.7,0.7-5.7,1.4-8.3,2.1
			c2-2,4-4,6-6c0.1-0.1,0.3-0.3,0.3-0.4c-0.8,0-1.5,0.3-2.3,0.2c-0.4-0.1-0.8-0.2-1.2-0.4c-2.7-1-5.5-2-8.1-3c3-0.6,6-1.1,8.9-1.8
			c-1.2-0.5-2.3-0.9-3.5-1.3c-0.4-0.1-0.8-0.3-1.2-0.5c-0.3-0.3-0.6-0.5-0.9-0.9c-2-2-4.1-4.2-5.9-6.3c6,1.7,12.2,3.2,18.2,4.9
			c1.4-1.5,3.2-2.5,5.2-3c-2.2-0.3-5.8-0.7-7.6,0.3c-0.2,0.1-0.4,0.3-0.5,0.5c-0.7-0.4-1.3-1-1.7-1.7c-0.5-0.8-0.8-1.7-0.8-2.6
			c0.1-1.8,1-3.4,2.5-4.3c1.3-1.1,2.8-1.9,4.3-2.5C21.5,7.5,23.3,7,25,6.5C30.2,5.1,35.8,3.8,40.8,2C42.3,1.3,43.9,0.6,45.5-0.2
			L45.5-0.2z M35.9,29.3c0.7-1.3,1-2.7,1-4.2c-0.1-2.1-1.7-3.1-3.2-3.8c-3.6-1.4-7.6-1.3-11.2,0.1C21,22,20,23.3,19.7,24.8
			c-0.1,1.5,0.2,3,0.9,4.3c1.7,3.5,4.7,6.1,7.6,8.1C31.2,35.2,34.2,32.8,35.9,29.3z"/>
		<path class="st0" d="M79,32.4h-2.6v1.9h2.5v1.1h-2.5v3.4h-1.2v-7.5H79V32.4z"/>
		<path class="st0" d="M88.4,32.4h-3v1.9h2.9v1.1h-2.9v2.4h3v1.1h-4.2v-7.5h4.1L88.4,32.4L88.4,32.4z"/>
		<path class="st0" d="M97.3,33c-0.1-0.2-0.2-0.3-0.3-0.5c-0.2-0.2-0.5-0.3-0.8-0.3c-0.5,0-1,0.3-1,0.9l0,0c0,0.2,0.1,0.6,0.8,0.9
			l0.8,0.3c1.4,0.6,1.8,1.3,1.8,2.2c0.1,1.3-0.9,2.3-2.2,2.4c-0.1,0-0.1,0-0.2,0c-0.7,0-1.3-0.2-1.8-0.8c-0.4-0.4-0.6-0.9-0.7-1.5
			l1.1-0.2c0,0.4,0.1,0.7,0.3,1c0.4,0.5,1.2,0.6,1.8,0.2c0.3-0.2,0.5-0.6,0.4-1c0-0.6-0.5-1.1-1.1-1.3L95.5,35c-0.9-0.2-1.5-1-1.6-2
			c0-1.1,0.9-2,2-2c0.1,0,0.1,0,0.2,0c0.5,0,1.1,0.2,1.5,0.5c0.2,0.2,0.4,0.5,0.6,0.8L97.3,33z"/>
		<path class="st0" d="M106.6,32.4v6.4h-1.1v-6.4h-1.7v-1.1h4.6v1.1H106.6z"/>
		<path class="st0" d="M114.7,31.4v7.5h-1.1v-7.5H114.7z"/>
		<path class="st0" d="M121.2,31.4l2.1,5.2l2.1-5.2h1.2l-3.3,8l-3.3-8H121.2z"/>
		<path class="st0" d="M137.1,37H134l-0.8,1.8H132l3.7-7.9l3.5,7.9H138L137.1,37z M136.6,35.9l-1.1-2.5l-1.1,2.5H136.6z"/>
		<path class="st0" d="M145.5,31.4v6.4h2.2v1.1h-3.3v-7.5H145.5z"/>
		<path class="st0" d="M165.3,38.8h-5l2.6-3.1c0.3-0.3,0.6-0.8,0.9-1.2c0.2-0.3,0.4-0.7,0.4-1.1c0-0.6-0.5-1.2-1.1-1.2H163
			c-0.7,0-1.3,0.6-1.3,1.3l0,0h-1.1c0-0.6,0.2-1.2,0.6-1.6c0.4-0.5,1.1-0.8,1.8-0.7c1.2-0.1,2.3,0.8,2.4,2c0,0.1,0,0.1,0,0.2
			c0,0.6-0.2,1.1-0.5,1.6s-0.7,0.9-1.1,1.3l-1.2,1.4h2.8L165.3,38.8L165.3,38.8z"/>
		<path class="st0" d="M172.2,38.1c-0.7-0.9-1-1.9-0.9-3c-0.1-1.1,0.3-2.2,0.9-3.1c0.8-0.9,2.1-1.1,3.1-0.3c0.1,0.1,0.2,0.2,0.3,0.3
			c0.7,0.9,1,2,0.9,3.1c0,1.1-0.3,2.1-0.9,3c-0.8,0.9-2.1,1.1-3.1,0.3C172.4,38.4,172.3,38.3,172.2,38.1z M172.9,32.9
			c-0.4,0.7-0.6,1.5-0.5,2.2c0,0.8,0.1,1.6,0.5,2.2c0.3,0.6,1,0.8,1.5,0.5c0.2-0.1,0.4-0.3,0.5-0.5c0.4-0.7,0.6-1.5,0.5-2.2
			c0-0.8-0.1-1.5-0.5-2.2c-0.3-0.6-1-0.8-1.5-0.5C173.1,32.5,173,32.6,172.9,32.9z"/>
		<path class="st0" d="M183.8,32.4h-1.3l0.6-1h1.8v7.5h-1.1V32.4z"/>
		<path class="st0" d="M191.9,38.5l1.8-2.3c-0.1,0-0.3,0-0.4,0c-0.7,0-1.3-0.2-1.8-0.7c-0.5-0.4-0.7-1.1-0.7-1.7
			c0-0.7,0.3-1.4,0.7-1.9c1.1-1,2.8-1,3.9,0c0.4,0.5,0.7,1.1,0.6,1.7c0,0.5-0.1,1-0.4,1.4c-0.3,0.5-0.6,0.9-0.9,1.3l-2.1,2.7
			L191.9,38.5z M194.6,34.8c0.3-0.3,0.4-0.7,0.4-1.1c0-0.4-0.2-0.8-0.4-1.1c-0.3-0.3-0.7-0.4-1.1-0.4c-0.4,0-0.8,0.2-1.1,0.4
			c-0.6,0.6-0.6,1.6,0,2.2c0.3,0.3,0.7,0.4,1.1,0.4C193.9,35.3,194.2,35.1,194.6,34.8L194.6,34.8z"/>
	</g>
</g>
</svg>
