<?xml version="1.0" encoding="utf-8"?>
<!-- Generator: Adobe Illustrator 23.0.1, SVG Export Plug-In . SVG Version: 6.00 Build 0)  -->
<svg version="1.1" id="Layer_1" xmlns="http://www.w3.org/2000/svg" xmlns:xlink="http://www.w3.org/1999/xlink" x="0px" y="0px"
	 viewBox="0 0 122.6 15.9" style="enable-background:new 0 0 122.6 15.9;" xml:space="preserve">
<style type="text/css">
	.st0{fill:#414042;}
</style>
<title>Asset 2</title>
<g>
	<g id="Layer_1-2">
		<rect x="6.1" y="-1.4" transform="matrix(0.7071 -0.7071 0.7071 0.7071 -3.2877 7.9298)" class="st0" width="3.7" height="18.7"/>
		
			<rect x="21.3" y="-1.4" transform="matrix(0.7071 -0.7071 0.7071 0.7071 1.1752 18.7175)" class="st0" width="3.7" height="18.7"/>
		
			<rect x="36.6" y="-1.4" transform="matrix(0.7071 -0.7071 0.7071 0.7071 5.6452 29.5023)" class="st0" width="3.7" height="18.7"/>
		<rect x="51.8" y="-1.4" transform="matrix(0.7071 -0.7071 0.7071 0.7071 10.1123 40.28)" class="st0" width="3.7" height="18.7"/>
		
			<rect x="67.1" y="-1.4" transform="matrix(0.7071 -0.7071 0.7071 0.7071 14.5752 51.0677)" class="st0" width="3.7" height="18.7"/>
		
			<rect x="82.3" y="-1.4" transform="matrix(0.7071 -0.7071 0.7071 0.7071 19.0452 61.8525)" class="st0" width="3.7" height="18.7"/>
		
			<rect x="97.6" y="-1.4" transform="matrix(0.7071 -0.7071 0.7071 0.7071 23.5123 72.6302)" class="st0" width="3.7" height="18.7"/>
		
			<rect x="112.8" y="-1.4" transform="matrix(0.7071 -0.7071 0.7071 0.7071 27.9752 83.4179)" class="st0" width="3.7" height="18.7"/>
	</g>
</g>
</svg>
