<?xml version="1.0" encoding="utf-8"?>
<!-- Generator: Adobe Illustrator 19.0.0, SVG Export Plug-In . SVG Version: 6.00 Build 0)  -->
<svg version="1.1" id="Layer_1" xmlns="http://www.w3.org/2000/svg" xmlns:xlink="http://www.w3.org/1999/xlink" x="0px" y="0px"
	 viewBox="0 0 249.5 58.2" style="enable-background:new 0 0 249.5 58.2;" xml:space="preserve">
<style type="text/css">
	.st0{fill:#E2231A;}
	.st1{clip-path:url(#SVGID_2_);fill:#E2231A;}
	.st2{clip-path:url(#SVGID_2_);}
</style>
<polygon points="0,0 0,40.1 37.6,40.1 37.6,34.1 6.6,34.1 6.6,0 "/>
<rect x="43.6" y="0" width="6.6" height="40.1"/>
<polygon points="56.3,0 56.3,40.1 63,40.1 63,22.3 86.5,22.3 86.5,16.3 63,16.3 63,6 91.7,6 91.7,0 "/>
<polygon points="97.5,0 97.5,40.1 124.1,40.1 127.3,34.1 104.2,34.1 104.2,22.3 127.7,22.3 127.7,16.3 104.2,16.3 104.2,6 134.7,6 
	134.7,0 "/>
<path class="st0" d="M156.3,10.7l6.5,12.3h-13L156.3,10.7z M151.4,0.1l-21.2,40h10.5l4.2-8.2l22.5,0l4.2,8.2h10.5l-21.2-40H151.4z"
	/>
<rect x="186.7" y="0.1" class="st0" width="9.5" height="40"/>
<g>
	<defs>
		<rect id="SVGID_1_" y="0" width="249.5" height="58.2"/>
	</defs>
	<clipPath id="SVGID_2_">
		<use xlink:href="#SVGID_1_"  style="overflow:visible;"/>
	</clipPath>
	<path class="st1" d="M243.4,5.6c-4-3.7-9.5-5.5-16.3-5.5l-24.9,0l0,40h26c5.8,0,10.8-1.8,14.8-5.3c4.3-3.8,6.5-8.6,6.5-14.3
		C249.5,14.3,247.5,9.3,243.4,5.6 M238.9,24.6l-10.3,0V35h-9.1V24.7h-10.3v-9.1h10.3V5.2h9.1v10.3h10.3V24.6z"/>
	<path class="st2" d="M248.1,2.5c0,1.1-0.9,2-2,2c-1.1,0-2-0.9-2-2c0-1.1,0.9-2,2-2C247.2,0.6,248.1,1.4,248.1,2.5 M244.6,2.5
		c0,0.9,0.7,1.6,1.5,1.6c0.9,0,1.5-0.7,1.5-1.6c0-0.9-0.7-1.6-1.5-1.6C245.2,1,244.6,1.7,244.6,2.5 M245.8,3.6h-0.5v-2
		c0.2,0,0.4-0.1,0.8-0.1c0.4,0,0.5,0.1,0.7,0.2c0.1,0.1,0.2,0.2,0.2,0.4c0,0.2-0.2,0.4-0.4,0.5v0c0.2,0.1,0.3,0.2,0.3,0.5
		c0.1,0.3,0.1,0.4,0.1,0.5h-0.5c-0.1-0.1-0.1-0.2-0.2-0.5c0-0.2-0.2-0.3-0.4-0.3h-0.2V3.6z M245.8,2.5h0.2c0.3,0,0.5-0.1,0.5-0.3
		c0-0.2-0.1-0.3-0.4-0.3c-0.1,0-0.2,0-0.3,0V2.5z"/>
	<polygon class="st2" points="2.8,50.5 0,50.5 0,49.7 6.6,49.7 6.6,50.5 3.8,50.5 3.8,58 2.8,58 	"/>
	<polygon class="st2" points="8.3,49.7 9.3,49.7 9.3,53.4 14.1,53.4 14.1,49.7 15.1,49.7 15.1,58 14.1,58 14.1,54.3 9.3,54.3 
		9.3,58 8.3,58 	"/>
	<polygon class="st2" points="16.8,49.7 22.9,49.7 22.9,50.5 17.8,50.5 17.8,53.4 22.3,53.4 22.3,54.2 17.8,54.2 17.8,57.2 
		22.9,57.2 22.9,58 16.8,58 	"/>
	<polygon class="st2" points="28.6,49.7 34.9,49.7 34.9,51 30.1,51 30.1,53.3 34.3,53.3 34.3,54.6 30.1,54.6 30.1,58 28.6,58 	"/>
	<path class="st2" d="M36.6,54.5v-4.8h1.5v4.8c0,1.6,0.8,2.4,2.1,2.4c1.3,0,2.1-0.8,2.1-2.3v-4.8h1.5v4.7c0,2.5-1.4,3.8-3.6,3.8
		C38,58.2,36.6,56.9,36.6,54.5"/>
	<polygon class="st2" points="45.6,49.7 46.9,49.7 51.4,55.4 51.4,49.7 52.9,49.7 52.9,58 51.6,58 47,52.1 47,58 45.6,58 	"/>
	<path class="st2" d="M54.6,53.9L54.6,53.9c0-2.4,1.8-4.3,4.3-4.3c1.6,0,2.5,0.5,3.3,1.3l-0.9,1.1c-0.7-0.6-1.4-1-2.4-1
		c-1.6,0-2.7,1.3-2.7,2.9v0c0,1.6,1.2,3,2.8,3c1,0,1.7-0.4,2.4-1.1l0.9,1c-0.9,0.9-1.8,1.5-3.4,1.5C56.4,58.2,54.6,56.3,54.6,53.9"
		/>
	<polygon class="st2" points="66.1,51 63.5,51 63.5,49.7 70.3,49.7 70.3,51 67.6,51 67.6,58 66.1,58 	"/>
	<rect x="72" y="49.7" class="st2" width="1.5" height="8.4"/>
	<path class="st2" d="M75.3,53.9L75.3,53.9c0-2.4,1.8-4.3,4.4-4.3c2.6,0,4.4,1.9,4.4,4.3v0c0,2.4-1.8,4.3-4.4,4.3
		C77.1,58.2,75.3,56.2,75.3,53.9 M82.6,53.9L82.6,53.9c0-1.6-1.2-3-2.8-3c-1.7,0-2.8,1.3-2.8,2.9v0c0,1.6,1.2,3,2.8,3
		C81.4,56.8,82.6,55.5,82.6,53.9"/>
	<polygon class="st2" points="85.9,49.7 87.2,49.7 91.7,55.4 91.7,49.7 93.2,49.7 93.2,58 91.9,58 87.3,52.1 87.3,58 85.9,58 	"/>
	<path class="st2" d="M98.4,49.6h1.4l3.7,8.4h-1.6l-0.8-2h-4l-0.9,2h-1.5L98.4,49.6z M100.5,54.7L99,51.4l-1.4,3.3H100.5z"/>
	<polygon class="st2" points="104.8,49.7 106.3,49.7 106.3,56.7 110.7,56.7 110.7,58 104.8,58 	"/>
	<path class="st2" d="M116.4,49.7h3.6c1,0,1.7,0.3,2.2,0.7c0.3,0.4,0.5,0.8,0.5,1.3v0c0,1.1-0.7,1.6-1.3,1.9c1,0.3,1.8,0.9,1.8,2v0
		c0,1.4-1.2,2.3-3,2.3h-3.7V49.7z M119.8,53.4c1.1,0,1.9-0.5,1.9-1.5v0c0-0.8-0.7-1.4-1.9-1.4h-2.5v2.9H119.8z M120.1,57.2
		c1.3,0,2.1-0.6,2.1-1.5v0c0-0.9-0.8-1.4-2.2-1.4h-2.6v3H120.1z"/>
	<polygon class="st2" points="125,49.7 131.1,49.7 131.1,50.5 126,50.5 126,53.4 130.5,53.4 130.5,54.2 126,54.2 126,57.2 
		131.1,57.2 131.1,58 125,58 	"/>
	<polygon class="st2" points="132.5,49.7 133.6,49.7 136.5,56.9 139.5,49.7 140.5,49.7 137,58.1 136.1,58.1 	"/>
	<polygon class="st2" points="142,49.7 148.1,49.7 148.1,50.5 143,50.5 143,53.4 147.5,53.4 147.5,54.2 143,54.2 143,57.2 
		148.1,57.2 148.1,58 142,58 	"/>
	<path class="st2" d="M149.9,49.7h3.6c1,0,1.9,0.3,2.4,0.8c0.4,0.4,0.6,1,0.6,1.6v0c0,1.4-1,2.2-2.3,2.4l2.6,3.4h-1.2l-2.4-3.3h0
		h-2.4V58h-0.9V49.7z M153.4,53.9c1.3,0,2.1-0.6,2.1-1.7v0c0-1-0.8-1.6-2.1-1.6h-2.6v3.4H153.4z"/>
	<path class="st2" d="M161.8,49.6h0.9l3.8,8.4h-1l-1-2.2h-4.6l-1,2.2h-1L161.8,49.6z M164.1,55l-1.9-4.3l-1.9,4.3H164.1z"/>
	<path class="st2" d="M166.8,53.9L166.8,53.9c0-2.3,1.7-4.3,4.2-4.3c1.4,0,2.3,0.4,3.1,1.1l-0.6,0.7c-0.6-0.6-1.4-1-2.5-1
		c-1.9,0-3.2,1.6-3.2,3.4v0c0,2,1.3,3.5,3.3,3.5c1,0,1.8-0.4,2.4-0.8v-2.1H171v-0.8h3.5v3.3c-0.8,0.7-1.9,1.3-3.4,1.3
		C168.4,58.2,166.8,56.3,166.8,53.9"/>
	<polygon class="st2" points="176.2,49.7 182.2,49.7 182.2,50.5 177.1,50.5 177.1,53.4 181.7,53.4 181.7,54.2 177.1,54.2 
		177.1,57.2 182.3,57.2 182.3,58 176.2,58 	"/>
	<path class="st2" d="M188.2,53.9L188.2,53.9c0-2.4,1.8-4.3,4.2-4.3c1.5,0,2.4,0.5,3.3,1.3l-0.6,0.7c-0.7-0.7-1.5-1.1-2.6-1.1
		c-1.9,0-3.2,1.5-3.2,3.4v0c0,1.9,1.4,3.5,3.2,3.5c1.1,0,1.9-0.4,2.7-1.2l0.6,0.6c-0.9,0.9-1.8,1.5-3.3,1.5
		C190,58.2,188.2,56.3,188.2,53.9"/>
	<path class="st2" d="M197,53.9L197,53.9c0-2.3,1.7-4.3,4.3-4.3s4.3,2,4.3,4.3c0,0,0,0,0,0c0,2.3-1.7,4.3-4.3,4.3S197,56.2,197,53.9
		 M204.6,53.9L204.6,53.9c0-1.9-1.4-3.5-3.3-3.5s-3.3,1.5-3.3,3.4v0c0,1.9,1.4,3.5,3.3,3.5C203.2,57.3,204.6,55.8,204.6,53.9"/>
	<polygon class="st2" points="207.3,49.7 208.3,49.7 211.3,54.2 214.4,49.7 215.3,49.7 215.3,58 214.4,58 214.4,51.3 211.4,55.7 
		211.3,55.7 208.3,51.3 208.3,58 207.3,58 	"/>
	<path class="st2" d="M217.1,49.7h3.1c1.9,0,3.1,1,3.1,2.7v0c0,1.8-1.5,2.7-3.3,2.7h-2v3h-0.9V49.7z M220.1,54.2
		c1.4,0,2.3-0.7,2.3-1.8v0c0-1.2-0.9-1.8-2.2-1.8h-2.1v3.7H220.1z"/>
	<path class="st2" d="M226.7,49.6h0.9l3.8,8.4h-1l-1-2.2h-4.6l-1,2.2h-1L226.7,49.6z M229,55l-1.9-4.3l-1.9,4.3H229z"/>
	<polygon class="st2" points="233,49.7 233.8,49.7 239.1,56.4 239.1,49.7 240,49.7 240,58 239.3,58 233.9,51.2 233.9,58 233,58 	"/>
	<polygon class="st2" points="245.1,54.7 241.6,49.7 242.8,49.7 245.6,53.8 248.4,49.7 249.5,49.7 246.1,54.7 246.1,58 245.1,58 	
		"/>
</g>
</svg>
