<svg id="Layer_1" data-name="Layer 1" xmlns="http://www.w3.org/2000/svg" viewBox="0 0 197.95 140.1"><defs><style>.cls-1{fill:#ea0b8c;fill-rule:evenodd;}</style></defs><title>lyft</title><g id="Page-1"><g id="logos"><path id="logo_standard" data-name="logo standard" class="cls-1" d="M.75,3.34H30.81V84c0,12.76,5.84,20.37,10.45,23.63-4.88,4.34-19.83,8.15-31-1.09C3.73,101.12.75,92.17.75,83.74Zm187.86,67V61.88h9.17V32.14H187.71a39.67,39.67,0,0,0-78.44,8.42V110a25.24,25.24,0,0,0,20-5.35c6.57-5.44,9.55-14.4,9.55-22.82V79.29h15V49.54h-15v-9h0a10.08,10.08,0,0,1,20.16,0v29.8A39.67,39.67,0,0,0,198.7,110V80.43A10.09,10.09,0,0,1,188.61,70.36ZM74.76,32.14V75.79a4.6,4.6,0,0,1-9.19,0V32.14H35.83V83.47c0,9.24,3.13,20.92,17.39,24.72s22.54-4.07,22.54-4.07c-.75,5.19-5.64,9-13.52,9.81-6,.61-13.58-1.36-17.38-3v27.2a63.18,63.18,0,0,0,30,1.83c18.2-3.53,29.68-18.74,29.68-39V32.14Z" transform="translate(-0.75 -0.9)"/></g></g></svg>