<?xml version="1.0" encoding="utf-8"?>
<!-- Generator: Adobe Illustrator 23.0.1, SVG Export Plug-In . SVG Version: 6.00 Build 0)  -->
<svg version="1.1" id="Layer_1" xmlns="http://www.w3.org/2000/svg" xmlns:xlink="http://www.w3.org/1999/xlink" x="0px" y="0px"
	 viewBox="0 0 42.6 404.3" style="enable-background:new 0 0 42.6 404.3;" xml:space="preserve">
<style type="text/css">
	.st0{fill:#EB3700;}
	.st1{font-family:'Digital-7Italic';}
	.st2{font-size:45.92px;}
	.st3{font-family:'DejaVuSansMono';}
	.st4{font-size:22.73px;}
</style>
<title>camera-text</title>
<g id="Layer_1-2">
	<text transform="matrix(6.123234e-17 -1 1 6.123234e-17 37.57 396.9297)" class="st0 st1 st2">250</text>
	<text transform="matrix(6.123234e-17 -1 1 6.123234e-17 37.57 278.4199)" class="st0 st1 st2">5.6</text>
	<text transform="matrix(6.123234e-17 -1 1 6.123234e-17 34.06 295.5801)" class="st0 st3 st4">F</text>
	<text transform="matrix(6.123234e-17 -1 1 6.123234e-17 34.06 201.4199)" class="st0 st3 st4">-2</text>
	<text transform="matrix(6.123234e-17 -1 1 6.123234e-17 34.06 27.3701)" class="st0 st3 st4">2+</text>
	<text transform="matrix(6.123234e-17 -1 1 6.123234e-17 34.06 147.6396)" class="st0 st3 st4">1</text>
	<text transform="matrix(6.123234e-17 -1 1 6.123234e-17 34.06 67.46)" class="st0 st3 st4">1</text>
	<text transform="matrix(6.123234e-17 -1 1 6.123234e-17 34.06 107.5498)" class="st0 st3 st4">0</text>
	<circle class="st0" cx="25.6" cy="167.4" r="1.4"/>
	<circle class="st0" cx="25.6" cy="160.8" r="1.4"/>
	<circle class="st0" cx="25.6" cy="154.3" r="1.4"/>
	<circle class="st0" cx="25.6" cy="127.3" r="1.4"/>
	<circle class="st0" cx="25.6" cy="120.8" r="1.4"/>
	<circle class="st0" cx="25.6" cy="114.2" r="1.4"/>
	<circle class="st0" cx="25.6" cy="87.2" r="1.4"/>
	<circle class="st0" cx="25.6" cy="80.7" r="1.4"/>
	<circle class="st0" cx="25.6" cy="74.2" r="1.4"/>
	<circle class="st0" cx="25.6" cy="47.1" r="1.4"/>
	<circle class="st0" cx="25.6" cy="40.6" r="1.4"/>
	<circle class="st0" cx="25.6" cy="34.1" r="1.4"/>
	<polygon class="st0" points="11,100 4.4,96.2 4.4,103.9 	"/>
</g>
</svg>
