<svg xmlns="http://www.w3.org/2000/svg" viewBox="0 0 1250 1175.14"><defs><style>.cls-1{isolation:isolate;}.cls-2{mix-blend-mode:lighten;}.cls-3{fill:#fff;}</style></defs><title>Asset 3</title><g class="cls-1"><g id="Layer_2" data-name="Layer 2"><g id="Layer_1-2" data-name="Layer 1"><g class="cls-2"><path class="cls-3" d="M851.37,800.9h8.73v26.31h23.78V800.9h8.72v64.18h-8.72V834.52H860.1v30.56h-8.73Z"/><path class="cls-3" d="M937.34,800.9h10.53l19.65,64.18h-9l-4.73-16.72H931.32l-4.64,16.72h-9Zm5.25,7.65-9.16,32.84h18.31Z"/><path class="cls-3" d="M988.31,800.9h9.25l15.65,28.33,15.6-28.33h9.33l-20.59,35.38v28.8h-8.73v-28.8Z"/><path class="cls-3" d="M1066.59,800.9h8.72v56.87h31v7.31h-39.72Z"/><path class="cls-3" d="M1136.43,800.9h38.09v7.3h-29.4v19h28.11v7.31h-28.11v23.25h30.22v7.31h-38.91Z"/><path class="cls-3" d="M1200.17,800.9h9.25l15.64,28.33,15.61-28.33H1250l-20.59,35.38v28.8h-8.73v-28.8Z"/><path class="cls-3" d="M851.37,906.55h8.73V935.1l27.13-28.55h10.19l-25,26.23,25.71,38H887.66l-20.94-32.16-6.62,7v25.11h-8.73Z"/><path class="cls-3" d="M924.74,906.55h35.65v7.31H946.93v49.57h13.46v7.31H924.74v-7.31H938.2V913.86H924.74Z"/><path class="cls-3" d="M988.31,906.55h9.25l15.65,28.34,15.6-28.34h9.33l-20.59,35.39v28.8h-8.73v-28.8Z"/><path class="cls-3" d="M1105.32,938.71q0,16.77-5.31,25T1083.83,972q-10.89,0-16.17-8.21t-5.29-25.07q0-16.8,5.31-25.06t16.15-8.26q10.88,0,16.18,8.26T1105.32,938.71Zm-9.07,0q0-14.15-2.9-20.2a10.47,10.47,0,0,0-19,0q-2.91,6.06-2.91,20.2t2.91,20.17a10.48,10.48,0,0,0,19,0Q1096.24,952.86,1096.25,938.71Z"/><path class="cls-3" d="M1133.85,906.55h8.73V935.1l27.13-28.55h10.19l-25,26.23,25.71,38h-10.49l-20.94-32.16-6.62,7v25.11h-8.73Z"/><path class="cls-3" d="M1246.56,938.71q0,16.77-5.31,25T1225.06,972q-10.87,0-16.16-8.21t-5.29-25.07q0-16.8,5.31-25.06t16.14-8.26q10.89,0,16.19,8.26T1246.56,938.71Zm-9.07,0q0-14.15-2.9-20.2a10.48,10.48,0,0,0-19,0q-2.89,6.06-2.9,20.2t2.9,20.17a10.49,10.49,0,0,0,19,0Q1237.49,952.86,1237.49,938.71Z"/><path class="cls-3" d="M91.33,220.55,148.67,4.41h34.15l-71.4,243.92h-40L0,4.41H34.15Z"/><path class="cls-3" d="M291.88,4.41H427.32V32.18H376.19V220.55h51.13v27.78H291.88V220.55H343V32.18H291.88Z"/><path class="cls-3" d="M550.11,4.41h41.83L674.28,205.2V4.41h31.85V248.33H664.31L582,47.54V248.33H550.11Z"/><path class="cls-3" d="M971.06,239.67a111.11,111.11,0,0,1-53.91,13.4q-46.89,0-72.79-33.17t-25.89-93.28q0-59.81,26.06-93.21T917.15,0a111.11,111.11,0,0,1,53.91,13.4V47.21a91.4,91.4,0,0,0-26-15.19,78.89,78.89,0,0,0-27.93-5.23Q885,26.79,869,51.63t-16,75q0,50,16,74.82t48.2,24.83A78.91,78.91,0,0,0,945.33,221a89,89,0,0,0,25.73-15.19Z"/><path class="cls-3" d="M1096.3,4.41h144.75V32.18H1129.3V104.4h106.85v27.77H1129.3v88.38h114.86v27.78H1096.3Z"/><path class="cls-3" d="M99.71,392.13v23.41a91.13,91.13,0,0,0-21.07-10.16A68.52,68.52,0,0,0,57.34,402q-16.33,0-25.82,7.6T22,430.05q0,11.31,6.23,17.25t23.24,9.93L63.62,460q24,5.59,34.95,17.59t11,32.66q0,24.33-15.08,37.12T50.6,560.15a116,116,0,0,1-24.1-2.57,136.27,136.27,0,0,1-24.33-7.71V525.31A113.79,113.79,0,0,0,27,537.53a74.5,74.5,0,0,0,23.59,3.88q17.48,0,27.18-7.82t9.71-21.87q0-12.8-6.68-19.53t-23.24-10.4l-12.34-2.85q-23.76-5.37-34.49-16.22T0,433.59Q0,410.75,15.36,397T56.2,383.22a102.61,102.61,0,0,1,20.67,2.23A155.16,155.16,0,0,1,99.71,392.13Z"/><path class="cls-3" d="M177.11,386.3h130.1v19.42H253.87V556.83H230.68V405.72H177.11Z"/><path class="cls-3" d="M415.78,386.3h28L496,556.83H472.09L459.53,512.4H399.79l-12.33,44.43H363.59Zm13.94,20.33L405.39,493.9h48.66Z"/><path class="cls-3" d="M569.48,386.3h49.8q28.54,0,43.29,13t14.73,38q0,25.25-14.68,38.15t-43.34,12.9H592.55v68.53H569.48Zm23.07,19v64.08h26.73q16,0,25-8.45t9-23.64q0-15.19-8.91-23.59t-25-8.4Z"/><path class="cls-3" d="M759.15,386.3h23.19V537.42h82.35v19.41H759.15Z"/><path class="cls-3" d="M944.71,386.3h101.2v19.42H967.79v50.49h74.7v19.41h-74.7v61.8h80.29v19.41H944.71Z"/><path class="cls-3" d="M1225.42,392.13v23.41a91.32,91.32,0,0,0-21.07-10.16A68.58,68.58,0,0,0,1183,402q-16.33,0-25.81,7.6t-9.48,20.5q0,11.31,6.23,17.25t23.24,9.93l12.11,2.75q24,5.59,35,17.59t11,32.66q0,24.33-15.07,37.12t-43.87,12.8a116,116,0,0,1-24.09-2.57,135.76,135.76,0,0,1-24.33-7.71V525.31a113.57,113.57,0,0,0,24.84,12.22,74.44,74.44,0,0,0,23.58,3.88q17.49,0,27.19-7.82t9.71-21.87q0-12.8-6.68-19.53t-23.25-10.4l-12.33-2.85q-23.76-5.37-34.5-16.22t-10.73-29.13q0-22.84,15.36-36.61t40.83-13.76a102.63,102.63,0,0,1,20.68,2.23A155.52,155.52,0,0,1,1225.42,392.13Z"/><path class="cls-3" d="M0,961.68V935.57A74.7,74.7,0,0,0,20.79,949,57.12,57.12,0,0,0,43,953.49q15.81,0,22.06-8.24t6.25-30.69V822.09H29.2v-18.8H93.68V914.56q0,31.19-11.67,44.13T43,971.63A93.53,93.53,0,0,1,21.9,969.2,120.41,120.41,0,0,1,0,961.68Z"/><path class="cls-3" d="M293.07,886q0,43.14-13.67,64.37t-41.64,21.24q-28,0-41.59-21.12T182.57,886q0-43.24,13.66-64.48t41.53-21.24q28,0,41.64,21.24T293.07,886Zm-23.34,0q0-36.39-7.47-52t-24.5-15.6q-16.92,0-24.39,15.6t-7.46,52q0,36.29,7.46,51.88t24.39,15.59q17,0,24.5-15.54T269.73,886Z"/><path class="cls-3" d="M363.37,961.68V935.57A74.7,74.7,0,0,0,384.16,949a57.07,57.07,0,0,0,22.23,4.48q15.83,0,22.07-8.24t6.25-30.69V822.09H392.57v-18.8h64.48V914.56q0,31.19-11.67,44.13t-39,12.94a93.38,93.38,0,0,1-21.12-2.43A120.41,120.41,0,0,1,363.37,961.68Z"/><path class="cls-3" d="M555.23,803.29h91.69v18.8H612.3V949.62h34.62v18.8H555.23v-18.8h34.62V822.09H555.23Z"/><path class="cls-3" d="M0,1102.26H7.23l5.25,44.5,6.24-29.44h7.75l6.31,29.51L38,1102.26h7.24l-8.19,54.82h-7l-7.45-32.57-7.42,32.57h-7Z"/><path class="cls-3" d="M65.33,1102.26h7.46v22.47h20.3v-22.47h7.45v54.82H93.09V1131H72.79v26.11H65.33Z"/><path class="cls-3" d="M128,1102.26h30.43v6.24H146.93v42.33h11.49v6.25H128v-6.25h11.49V1108.5H128Z"/><path class="cls-3" d="M188.15,1102.26h16q9.18,0,13.92,4.17t4.73,12.21q0,8.11-4.71,12.26t-13.94,4.15h-8.59v22h-7.41Zm7.41,6.1V1129h8.59q5.15,0,8-2.71a11.44,11.44,0,0,0,0-15.18q-2.87-2.7-8-2.7Z"/><path class="cls-3" d="M248.45,1102.26h16q9.18,0,13.91,4.17t4.74,12.21q0,8.11-4.72,12.26t-13.93,4.15h-8.59v22h-7.42Zm7.42,6.1V1129h8.59c3.42,0,6.1-.9,8-2.71a10,10,0,0,0,2.88-7.6c0-3.26-.95-5.78-2.86-7.58s-4.59-2.7-8-2.7Z"/><path class="cls-3" d="M308.76,1102.26h32.52v6.24H316.17v16.23h24V1131h-24v19.86H342v6.25H308.76Z"/><path class="cls-3" d="M378,1102.26q12.56,0,18.5,6.69t5.95,20.77q0,14-5.95,20.69t-18.5,6.67H366.86v-54.82Zm-.15,48.72q9.38,0,13.07-4.61t3.71-16.65q0-12.15-3.69-16.75t-13.09-4.61h-3.52V1151Z"/><path class="cls-3" d="M521.83,1155.13a24.9,24.9,0,0,1-12.12,3q-10.53,0-16.35-7.45t-5.82-21q0-13.42,5.86-20.94t16.31-7.51a25.76,25.76,0,0,1,6.32.75,26.49,26.49,0,0,1,5.8,2.26v7.6a20.48,20.48,0,0,0-5.84-3.41,17.55,17.55,0,0,0-6.28-1.18q-7.23,0-10.83,5.58t-3.59,16.85q0,11.23,3.59,16.82t10.83,5.58a17.63,17.63,0,0,0,6.34-1.18,20.19,20.19,0,0,0,5.78-3.41Z"/><path class="cls-3" d="M570.64,1131.19a10.47,10.47,0,0,1,4.89,2.77q2,2,5,8.14l7.46,15h-8l-6.53-13.84c-1.89-4-3.58-6.48-5.09-7.62a9.49,9.49,0,0,0-5.89-1.71h-7.09v23.17H548v-54.82h15.27q9,0,13.84,4.08t4.81,11.78A13.1,13.1,0,0,1,579,1127,12.91,12.91,0,0,1,570.64,1131.19Zm-15.2-22.83v19.46h8.12q5.33,0,7.93-2.39t2.6-7.31q0-4.72-2.77-7.25c-1.85-1.67-4.53-2.51-8.06-2.51Z"/><path class="cls-3" d="M610.28,1102.26h32.53v6.24H617.69v16.23h24V1131h-24v19.86H643.5v6.25H610.28Z"/><path class="cls-3" d="M681.49,1102.26h9l16.78,54.82h-7.67l-4-14.29h-19.2l-4,14.29h-7.67Zm4.48,6.54-7.82,28h15.63Z"/><path class="cls-3" d="M726.81,1102.26h9.91l9.48,27.91,9.54-27.91h10v54.82h-6.86v-48.43l-9.77,28.89h-5.62l-9.8-28.89v48.43h-6.83Z"/><path class="cls-3" d="M870,1100v75.19h-6.24V1100Z"/><path class="cls-3" d="M969.9,1102.26h7.46v22.47h20.3v-22.47h7.45v54.82h-7.45V1131h-20.3v26.11H969.9Z"/><path class="cls-3" d="M1030.57,1136v-33.78H1038v37.16a50.09,50.09,0,0,0,.22,5.71,6.74,6.74,0,0,0,.77,2.62,7.6,7.6,0,0,0,3.39,3.27,13.76,13.76,0,0,0,10.78,0,7.8,7.8,0,0,0,3.41-3.27,6.69,6.69,0,0,0,.77-2.61,49,49,0,0,0,.22-5.65v-37.23H1065V1136q0,8.4-1,12a12.37,12.37,0,0,1-3.61,5.85,16,16,0,0,1-5.55,3.24,23.58,23.58,0,0,1-14,0,16.28,16.28,0,0,1-5.58-3.24,12.4,12.4,0,0,1-3.6-5.89Q1030.58,1144.34,1030.57,1136Z"/><path class="cls-3" d="M1090.59,1102.26H1100l18.51,45.12v-45.12h7.16v54.82h-9.4L1097.74,1112v45.12h-7.15Z"/><path class="cls-3" d="M1150.89,1102.26h9.4l18.5,45.12v-45.12H1186v54.82h-9.4l-18.5-45.12v45.12h-7.16Z"/><path class="cls-3" d="M1207.45,1102.26h7.89l13.37,24.2,13.32-24.2h8l-17.59,30.22v24.6H1225v-24.6Z"/></g><path class="cls-3" d="M768.81,848.26v75.19h-6.24V848.26Z"/><path class="cls-3" d="M899.51,684.94h-549V678.7h549Z"/></g></g></g></svg>