<?xml version="1.0" encoding="utf-8"?>
<!-- Generator: Adobe Illustrator 23.0.1, SVG Export Plug-In . SVG Version: 6.00 Build 0)  -->
<svg version="1.1" id="Layer_1" xmlns="http://www.w3.org/2000/svg" xmlns:xlink="http://www.w3.org/1999/xlink" x="0px" y="0px"
	 viewBox="0 0 372.7 33.7" style="enable-background:new 0 0 372.7 33.7;" xml:space="preserve">
<style type="text/css">
	.st0{fill:#EB3700;}
</style>
<g>
	<g>
		<g id="Layer_1-2">
			<path class="st0" d="M19,1.7v4.5c-1.2-0.8-2.6-1.5-4-1.9c-1.3-0.4-2.7-0.6-4.1-0.7C9.2,3.5,7.4,4,6,5C4.8,5.9,4.1,7.4,4.2,8.9
				c-0.1,1.2,0.3,2.4,1.2,3.3c1.3,1,2.8,1.6,4.4,1.9l2.3,0.5c3,0.7,5.3,1.8,6.7,3.4c1.5,1.7,2.2,4,2.1,6.2c0,3.1-1,5.4-2.9,7.1
				c-1.9,1.6-4.7,2.4-8.4,2.4c-1.5,0-3.1-0.2-4.6-0.5c-1.6-0.3-3.1-0.8-4.6-1.5V27c1.5,1,3.1,1.8,4.7,2.3c1.4,0.5,3,0.7,4.5,0.7
				c1.9,0.1,3.7-0.4,5.2-1.5c1.2-1,1.9-2.6,1.9-4.2c0.1-1.4-0.4-2.7-1.3-3.7c-1.3-1.1-2.8-1.8-4.4-2l-2.4-0.5
				c-3-0.7-5.2-1.7-6.6-3.1c-1.4-1.4-2.1-3.4-2-5.4c-0.1-2.7,1-5.2,2.9-7c2.2-1.8,5-2.7,7.8-2.6c1.3,0,2.6,0.1,3.9,0.4
				C16.1,0.7,17.6,1.2,19,1.7z"/>
			<path class="st0" d="M44.5,20.3v-20h4.4v22c0,1.1,0,2.3,0.1,3.4c0,0.5,0.2,1.1,0.5,1.6c0.5,0.8,1.1,1.5,2,1.9
				c1,0.5,2.1,0.7,3.2,0.6c1.1,0,2.2-0.2,3.2-0.6c0.8-0.4,1.5-1.1,2-1.9c0.3-0.5,0.4-1,0.5-1.5c0.1-1.1,0.1-2.2,0.1-3.4V0.3H65v20
				c0.1,2.4-0.1,4.8-0.6,7.1c-0.4,1.3-1.1,2.5-2.1,3.5c-1,0.9-2.1,1.5-3.3,1.9c-2.7,0.8-5.6,0.8-8.3,0c-1.2-0.4-2.3-1.1-3.3-1.9
				c-1-0.9-1.8-2.1-2.1-3.5C44.6,25,44.4,22.7,44.5,20.3z"/>
			<path class="st0" d="M88.5,0.6h5.6l11,26.8V0.6H119v32.5h-15.3l-11-26.8v26.8h-4.2V0.6z"/>
			<path class="st0" d="M164.4,30.4c-1.2,1.1-2.5,1.9-4,2.5c-1.5,0.6-3.1,0.9-4.8,0.8c-3.7,0.2-7.3-1.5-9.6-4.4s-3.4-7.1-3.4-12.4
				s1.2-9.5,3.5-12.4c2.3-3,5.9-4.6,9.7-4.5c1.3,0,2.7,0.2,3.9,0.6c1.3,0.4,2.5,1,3.6,1.8v4.5c-1-1-2.3-1.9-3.6-2.5
				c-1.2-0.5-2.6-0.8-3.9-0.8c-2.6-0.1-5,1.1-6.4,3.3s-2.1,5.5-2.1,10s0.7,7.8,2.1,10c1.4,2.2,3.8,3.4,6.4,3.2
				c0.9,0,1.7-0.1,2.6-0.3c0.7-0.2,1.4-0.5,2-1V20h-4.7v-3.6h8.9L164.4,30.4z"/>
			<path class="st0" d="M318.3,16.9c0,5.7-0.9,9.9-2.7,12.7c-1.7,2.7-4.8,4.3-8,4.2H198.9c-3.7,0-6.4-1.4-8.2-4.2s-2.7-7-2.7-12.7
				s0.9-9.9,2.7-12.7s4.9-4.4,8.2-4.2h108.7c3.2-0.1,6.3,1.5,8,4.2C317.4,7,318.3,11.2,318.3,16.9z M313.7,16.9
				c0-4.8-0.5-8.2-1.5-10.2c-0.8-1.9-2.6-3.1-4.7-3.1H198.9c-2.1-0.1-4,1.1-4.8,3.1c-1,2.1-1.5,5.5-1.5,10.2c0,4.8,0.5,8.2,1.5,10.2
				c0.8,1.9,2.7,3.1,4.8,3.1h108.7c2,0,3.9-1.2,4.7-3.1C313.2,25,313.7,21.6,313.7,16.9z"/>
			<path class="st0" d="M358.2,0.6c5,0,8.6,1.3,11,4s3.5,6.8,3.5,12.3c0,5.6-1.2,9.6-3.5,12.3s-6,3.9-11,4h-16.3V0.6H358.2z
				 M358.1,29.5c3.7,0,6.3-0.9,7.8-2.7c1.5-1.8,2.2-5.1,2.2-9.9s-0.7-8.1-2.2-9.9s-4-2.7-7.8-2.7H356v25.3L358.1,29.5L358.1,29.5z"
				/>
		</g>
	</g>
</g>
</svg>
