<?xml version="1.0" encoding="utf-8"?>
<!-- Generator: Adobe Illustrator 23.0.1, SVG Export Plug-In . SVG Version: 6.00 Build 0)  -->
<svg version="1.1" id="Layer_1" xmlns="http://www.w3.org/2000/svg" xmlns:xlink="http://www.w3.org/1999/xlink" x="0px" y="0px"
	 viewBox="0 0 42.6 78.9" style="enable-background:new 0 0 42.6 78.9;" xml:space="preserve">
<style type="text/css">
	.st0{fill:#EB3700;}
</style>
<title>Asset 8</title>
<g>
	<g>
		<g id="Layer_1-2">
			
				<text transform="matrix(6.123234e-17 -1 1 6.123234e-17 37.57 -451.7236)" class="st0" style="font-family:'Digital-7Italic'; font-size:45.92px;">250</text>
			
				<text transform="matrix(6.123234e-17 -1 1 6.123234e-17 37.57 -570.2334)" class="st0" style="font-family:'Digital-7Italic'; font-size:45.92px;">5.6</text>
			
				<text transform="matrix(6.123234e-17 -1 1 6.123234e-17 34.06 -553.0732)" class="st0" style="font-family:'DejaVuSansMono'; font-size:22.73px;">F</text>
			<g>
				
					<text transform="matrix(6.123234e-17 -1 1 6.123234e-17 34.06 -647.2334)" class="st0" style="font-family:'DejaVuSansMono'; font-size:22.73px;">-2</text>
				
					<text transform="matrix(6.123234e-17 -1 1 6.123234e-17 34.06 -821.2832)" class="st0" style="font-family:'DejaVuSansMono'; font-size:22.73px;">2+</text>
				
					<text transform="matrix(6.123234e-17 -1 1 6.123234e-17 34.06 -701.0137)" class="st0" style="font-family:'DejaVuSansMono'; font-size:22.73px;">1</text>
				
					<text transform="matrix(6.123234e-17 -1 1 6.123234e-17 34.06 -781.1934)" class="st0" style="font-family:'DejaVuSansMono'; font-size:22.73px;">1</text>
				
					<text transform="matrix(6.123234e-17 -1 1 6.123234e-17 34.06 -741.1035)" class="st0" style="font-family:'DejaVuSansMono'; font-size:22.73px;">0</text>
				<circle class="st0" cx="25.6" cy="-681.3" r="1.4"/>
				<circle class="st0" cx="25.6" cy="-687.8" r="1.4"/>
				<circle class="st0" cx="25.6" cy="-694.3" r="1.4"/>
				<circle class="st0" cx="25.6" cy="-721.4" r="1.4"/>
				<circle class="st0" cx="25.6" cy="-727.9" r="1.4"/>
				<circle class="st0" cx="25.6" cy="-734.4" r="1.4"/>
				<circle class="st0" cx="25.6" cy="-761.5" r="1.4"/>
				<circle class="st0" cx="25.6" cy="-768" r="1.4"/>
				<circle class="st0" cx="25.6" cy="-774.5" r="1.4"/>
				<circle class="st0" cx="25.6" cy="-801.6" r="1.4"/>
				<circle class="st0" cx="25.6" cy="-808.1" r="1.4"/>
				<circle class="st0" cx="25.6" cy="-814.6" r="1.4"/>
				<polygon class="st0" points="11,-748.6 4.4,-752.5 4.4,-744.8 				"/>
			</g>
			<g id="PLT82t">
				<path class="st0" d="M20.5,58.8v-7l4.3,3.2l10.5-10.5l2.1,2.1L8.8,75.2l-1.9-2.1l7.5-7.5c-2.4-0.9-4.7-1.8-7-2.6
					c-0.5-0.1-0.9-0.6-0.8-1.1l0,0c0-3,0-6,0-9.2L20.5,58.8z"/>
				<path class="st0" d="M26.4,62.2l3.5-3.5l6,4.4l0.1,0.1c1.4,0.6,1.8,1.8,1.4,3.3L26.4,62.2z"/>
				<path class="st0" d="M23.6,65.2v3.6l-2.7-1L23.6,65.2z"/>
			</g>
			<polygon class="st0" points="24.9,31.6 24.9,26.8 16.3,27.5 			"/>
			<path class="st0" d="M13,38.3h19.9c3.5,0,6.3-2.8,6.3-6.3l0,0V12.1c0-3.5-2.8-6.3-6.3-6.3l0,0H13c-3.5,0-6.3,2.8-6.3,6.3l0,0V32
				C6.7,35.5,9.5,38.3,13,38.3L13,38.3z M14.5,8l1.9,0.4v7.5l4.9,1v-6.8l1.9,0.4v6.8l7.9,1.5V21l-16.6-3.2L14.5,8z M14.5,25.9L31,24
				v2.2l-4.3,0.4v5.8l4.3,2v2.4l-16.6-8.3L14.5,25.9z"/>
		</g>
	</g>
</g>
</svg>
