<svg xmlns="http://www.w3.org/2000/svg" viewBox="0 0 939.23 766.72"><defs><style>.cls-1{isolation:isolate;}.cls-2{mix-blend-mode:multiply;}.cls-3{fill:#fff;}</style></defs><title>Asset 1</title><g class="cls-1"><g id="Layer_2" data-name="Layer 2"><g id="Layer_1-2" data-name="Layer 1"><g class="cls-2"><path class="cls-3" d="M69,157.21,101.44,3.33h36.64L94.27,187.57H43.81L0,3.33H36.65Z"/><path class="cls-3" d="M216.88,35.42V3.33H326.59V35.42H289.94V155.48h36.65v32.09H216.88V155.48h36.65V35.42Z"/><path class="cls-3" d="M413,3.33h39.11l51.34,133.89V3.33h32.08V187.57H496.7L445.12,53.68V187.57H413Z"/><path class="cls-3" d="M734.44,182.26a78.79,78.79,0,0,1-18.14,6.66,87.67,87.67,0,0,1-20,2.22q-37.27,0-56.89-24.55T619.8,95.64q0-46.53,19.62-71.08T696.31,0a89.33,89.33,0,0,1,20.12,2.22,74,74,0,0,1,18,6.67V49.36a70.74,70.74,0,0,0-18.2-12.65,43.62,43.62,0,0,0-18.2-4q-20,0-30.17,15.86T657.68,95.64q0,31.1,10.19,47T698,158.45a43.48,43.48,0,0,0,18.2-4,70.43,70.43,0,0,0,18.2-12.64Z"/><path class="cls-3" d="M939.23,187.57H824.47V3.33H939.23V35.42H860.87V75.15h71v32.08h-71v48.25h78.36Z"/><path class="cls-3" d="M39,343.85q-19.2-7.32-26-15.37T6.2,306.83q0-17.47,11.19-27.47t30.74-10a79.55,79.55,0,0,1,17.74,2,91.5,91.5,0,0,1,17.56,6v24.8a69.1,69.1,0,0,0-16.62-8.78,49.37,49.37,0,0,0-16.7-3q-9.21,0-14.12,3.71t-4.91,10.59a11.76,11.76,0,0,0,3.58,8.82q3.57,3.5,14.94,7.71l10.93,4.13Q76,331,83.35,340.41t7.31,23.68q0,19.46-11.49,29.06t-34.74,9.59a82.69,82.69,0,0,1-19.16-2.28A85.57,85.57,0,0,1,6.71,393.7V367.44a86.31,86.31,0,0,0,19.68,10.77,53.86,53.86,0,0,0,18.81,3.53q9.39,0,14.55-4.27t5.17-11.92a15.88,15.88,0,0,0-3.44-10.12,22.67,22.67,0,0,0-10-6.84Z"/><path class="cls-3" d="M202.3,400.25H176.9V293.91H144.27V271.7h90.66v22.21H202.3Z"/><path class="cls-3" d="M315.49,271.7h31.08l34.7,128.55h-25.4L348,368.48h-34l-7.75,31.77h-25.4ZM331,295l-12,52.61h24Z"/><path class="cls-3" d="M433.32,271.7H468.2q26.6,0,38.26,9.47t11.67,30.74q0,21.27-11.67,30.74t-38.26,9.47h-9.48v48.13h-25.4Zm25.4,21.35v37.71h10.42q12.48,0,17.52-4.21t5-14.64q0-10.43-5-14.64t-17.52-4.22Z"/><path class="cls-3" d="M580.18,400.25V271.7h25.39V377.86H659.9v22.39Z"/><path class="cls-3" d="M796.77,400.25H716.69V271.7h80.08v22.39H742.09v27.72H791.6V344.2H742.09v33.66h54.68Z"/><path class="cls-3" d="M887.57,343.85q-19.2-7.32-26-15.37t-6.81-21.65q0-17.47,11.2-27.47t30.74-10a79.4,79.4,0,0,1,17.73,2,91.59,91.59,0,0,1,17.57,6v24.8a69.28,69.28,0,0,0-16.62-8.78,49.37,49.37,0,0,0-16.7-3c-6.15,0-10.85,1.24-14.13,3.71s-4.9,6-4.9,10.59a11.79,11.79,0,0,0,3.57,8.82q3.57,3.5,14.94,7.71l10.93,4.13q15.51,5.69,22.82,15.07t7.32,23.68q0,19.46-11.5,29.06T893,402.74a82.78,82.78,0,0,1-19.17-2.28,85.49,85.49,0,0,1-18.55-6.76V367.44A86.1,86.1,0,0,0,875,378.21a53.86,53.86,0,0,0,18.81,3.53q9.38,0,14.55-4.27t5.16-11.92A15.82,15.82,0,0,0,910,355.43a22.69,22.69,0,0,0-10-6.84Z"/><path class="cls-3" d="M6.2,712.37h7.06l2.93,30L19.72,723h6.71l4.11,19.41,2.3-30H40l-4.71,40.88H27.72l-4.66-21.46-4.35,21.46H11.24Z"/><path class="cls-3" d="M54.93,712.37H63V728H73.11V712.37h8.07v40.88H73.11V735.07H63v18.18H54.93Z"/><path class="cls-3" d="M100.86,719.49v-7.12H125.2v7.12h-8.14v26.64h8.14v7.12H100.86v-7.12H109V719.49Z"/><path class="cls-3" d="M145.56,712.37h11.09q8.46,0,12.17,3t3.71,9.78q0,6.76-3.71,9.77t-12.17,3h-3v15.3h-8.08Zm8.08,6.79v12H157c2.65,0,4.5-.45,5.57-1.35s1.6-2.44,1.6-4.65-.53-3.76-1.6-4.66-2.92-1.34-5.57-1.34Z"/><path class="cls-3" d="M190.53,712.37h11.09q8.46,0,12.17,3t3.71,9.78q0,6.76-3.71,9.77t-12.17,3h-3v15.3h-8.08Zm8.08,6.79v12h3.31c2.65,0,4.5-.45,5.57-1.35s1.6-2.44,1.6-4.65-.53-3.76-1.6-4.66-2.92-1.34-5.57-1.34Z"/><path class="cls-3" d="M261.13,753.25H235.67V712.37h25.46v7.12H243.75v8.82h15.74v7.12H243.75v10.7h17.38Z"/><path class="cls-3" d="M279.8,712.37h8.65q10,0,14.43,4.78t4.41,15.62q0,10.88-4.41,15.68t-14.43,4.8H279.8Zm8.08,7.29V746h2.19c3.17,0,5.44-1,6.79-3s2-5.4,2-10.2-.67-8.14-2-10.13-3.62-3-6.79-3Z"/><path class="cls-3" d="M395.59,752.07a17.32,17.32,0,0,1-4,1.48,19.43,19.43,0,0,1-4.44.5q-8.26,0-12.62-5.45t-4.35-15.75q0-10.32,4.35-15.77t12.62-5.45a19.82,19.82,0,0,1,4.47.5,16.28,16.28,0,0,1,4,1.47v9a15.36,15.36,0,0,0-4-2.81,9.68,9.68,0,0,0-4-.89,7.45,7.45,0,0,0-6.7,3.52q-2.25,3.51-2.26,10.44t2.26,10.42a7.45,7.45,0,0,0,6.7,3.52,9.68,9.68,0,0,0,4-.89,15.36,15.36,0,0,0,4-2.81Z"/><path class="cls-3" d="M433.06,734a4.05,4.05,0,0,1,2.1,1.13,14.43,14.43,0,0,1,2.17,3.47l7.4,14.7h-8.87l-4.93-10.32c-.15-.29-.34-.69-.58-1.21q-2.16-4.62-5.09-4.62h-2.57v16.15h-8.08V712.37h11.66q7.89,0,11.32,2.8t3.44,9.09a10.2,10.2,0,0,1-2,6.7A8.76,8.76,0,0,1,433.06,734Zm-10.37-14.79v11.15h3.8c2.21,0,3.79-.44,4.75-1.3s1.44-2.3,1.44-4.29-.48-3.41-1.42-4.27-2.54-1.29-4.77-1.29Z"/><path class="cls-3" d="M486,753.25H460.54V712.37H486v7.12H468.62v8.82h15.74v7.12H468.62v10.7H486Z"/><path class="cls-3" d="M512.86,712.37h9.88l11,40.88H525.7l-2.52-10.1H512.36l-2.46,10.1h-8.08Zm4.93,7.4L514,736.49h7.64Z"/><path class="cls-3" d="M548.25,712.37h9.63l4.88,17.94,4.84-17.94h9.7v40.88h-7V720.5L566,738.38h-6.44L555.2,720.5v32.75h-7Z"/><path class="cls-3" d="M655.8,710.65v56.07h-6.22V710.65Z"/><path class="cls-3" d="M729.54,712.37h8.08V728h10.1V712.37h8.08v40.88h-8.08V735.07h-10.1v18.18h-8.08Z"/><path class="cls-3" d="M773.67,738.16V712.37h8.07v27.82A6.94,6.94,0,0,0,783.3,745a6.28,6.28,0,0,0,8.66,0,6.94,6.94,0,0,0,1.56-4.81V712.37h8.07v25.79q0,8.33-3.31,12.11t-10.65,3.78q-7.3,0-10.64-3.78T773.67,738.16Z"/><path class="cls-3" d="M819,712.37h8.68l11.39,29.71V712.37h7.12v40.88h-8.63l-11.44-29.71v29.71H819Z"/><path class="cls-3" d="M864,712.37h8.68L884,742.08V712.37h7.12v40.88h-8.63l-11.44-29.71v29.71H864Z"/><path class="cls-3" d="M905.91,712.37h8.7l7.94,16.43,8-16.43h8.71l-12.62,24.78v16.1h-8.08v-16.1Z"/><path class="cls-3" d="M6.2,601.19V578.54a42.3,42.3,0,0,0,12.15,8.88,30.25,30.25,0,0,0,13,3q7.7,0,11.26-3.84t3.58-12.25V524.44H22.29V507.22H65.74v67.15q0,18.07-7.59,25.86t-25,7.78A53.82,53.82,0,0,1,20,606.29,71.6,71.6,0,0,1,6.2,601.19Z"/><path class="cls-3" d="M113.86,556.76q0-25.37,8.77-38.35t25.93-13q17.22,0,26,13t8.78,38.35q0,25.29-8.78,38.27t-26,13q-17.15,0-25.93-13T113.86,556.76ZM148.56,523q-7.49,0-10.93,8t-3.44,25.8q0,17.75,3.44,25.72t10.93,8q7.55,0,11-8T163,556.76q0-17.82-3.45-25.8T148.56,523Z"/><path class="cls-3" d="M223.76,601.19V578.54a42.3,42.3,0,0,0,12.15,8.88,30.26,30.26,0,0,0,13,3q7.68,0,11.25-3.84t3.58-12.25V524.44H239.85V507.22H283.3v67.15q0,18.07-7.59,25.86t-25,7.78a53.82,53.82,0,0,1-13.14-1.72A71.85,71.85,0,0,1,223.76,601.19Z"/><path class="cls-3" d="M336.72,524.44V507.22h58.87v17.22H375.92v64.43h19.67v17.22H336.72V588.87h19.67V524.44Z"/><path class="cls-3" d="M545.92,472.46H558.4v24.06H574V472.46h12.48V535.6H574V507.52H558.4V535.6H545.92Z"/><path class="cls-3" d="M628,472.46h15.26l17.05,63.14H647.86L644,520h-16.7l-3.81,15.61H611Zm7.61,11.42-5.88,25.84h11.8Z"/><path class="cls-3" d="M679.39,472.46h13.44l12.27,25.38,12.3-25.38h13.45l-19.5,38.27V535.6H698.88V510.73Z"/><path class="cls-3" d="M758,535.6V472.46H770.5V524.6h26.68v11Z"/><path class="cls-3" d="M864.4,535.6H825.07V472.46H864.4v11H837.54v13.61h24.32v11H837.54V524.6H864.4Z"/><path class="cls-3" d="M887.77,472.46h13.44l12.27,25.38,12.3-25.38h13.45l-19.49,38.27V535.6H907.26V510.73Z"/><path class="cls-3" d="M545.08,576.39h12.47v25l19.54-25h14.12l-19.92,24.86,20.64,38.27H578.06l-15-28.41-5.54,7v21.39H545.08Z"/><path class="cls-3" d="M616.87,587.38v-11h37.59v11H641.9v41.15h12.56v11H616.87v-11h12.55V587.38Z"/><path class="cls-3" d="M679.39,576.39h13.44l12.27,25.37,12.3-25.37h13.45l-19.5,38.27v24.86H698.88V614.66Z"/><path class="cls-3" d="M752.4,608q0-16.2,5.6-24.48t16.56-8.29q11,0,16.6,8.29t5.6,24.48q0,16.15-5.6,24.44t-16.6,8.29q-10.95,0-16.56-8.29T752.4,608Zm22.16-21.57q-4.78,0-7,5.1T765.38,608q0,11.33,2.2,16.43t7,5.09q4.82,0,7-5.09t2.2-16.43q0-11.37-2.2-16.47T774.56,586.45Z"/><path class="cls-3" d="M822.91,576.39h12.48v25l19.53-25h14.13l-19.92,24.86,20.64,38.27H855.9l-15-28.41-5.54,7v21.39H822.91Z"/><path class="cls-3" d="M891.32,608q0-16.2,5.6-24.48t16.56-8.29q11,0,16.59,8.29T935.68,608q0,16.15-5.61,24.44t-16.59,8.29q-11,0-16.56-8.29T891.32,608Zm22.16-21.57q-4.79,0-7,5.1T904.3,608q0,11.33,2.2,16.43t7,5.09q4.82,0,7-5.09T922.7,608q0-11.37-2.2-16.47T913.48,586.45Z"/><path class="cls-3" d="M472.72,528.68v56.08h-6.21V528.68Z"/></g></g></g></g></svg>