<?xml version="1.0" encoding="utf-8"?>
<!-- Generator: Adobe Illustrator 23.0.1, SVG Export Plug-In . SVG Version: 6.00 Build 0)  -->
<svg version="1.1" id="Layer_1" xmlns="http://www.w3.org/2000/svg" xmlns:xlink="http://www.w3.org/1999/xlink" x="0px" y="0px"
	 viewBox="0 0 143 51" style="enable-background:new 0 0 143 51;" xml:space="preserve">
<style type="text/css">
	.st0{fill-rule:evenodd;clip-rule:evenodd;fill:#B7BF10;}
	.st1{fill:#696A6C;}
	.st2{fill-rule:evenodd;clip-rule:evenodd;fill:#696A6C;}
</style>
<title>Group</title>
<desc>Created with Sketch.</desc>
<g id="Page-1">
	<g id="home-copy-2" transform="translate(-58.000000, -77.000000)">
		<g id="Group" transform="translate(58.000000, 77.000000)">
			<polygon id="Fill-1" class="st0" points="136,34 143,34 143,27 136,27 			"/>
			<polygon id="Fill-2" class="st0" points="129,41 136,41 136,34 129,34 			"/>
			<polygon id="Fill-3" class="st0" points="122,34 129,34 129,27 122,27 			"/>
			<polygon id="Fill-4" class="st0" points="136,48 143,48 143,41 136,41 			"/>
			<polygon id="Fill-5" class="st0" points="122,41 129,41 129,48 122,48 			"/>
			<path id="Fill-6" class="st1" d="M49.6,8.5c-1.1,0-2.1,0.4-2.8,1.2s-1.1,1.8-1.1,3s0.4,2.2,1.1,3c0.8,0.8,1.7,1.2,2.9,1.2
				c1.1,0,2.1-0.4,2.8-1.2s1.1-1.8,1.1-3s-0.4-2.2-1.1-3C51.7,8.9,50.8,8.5,49.6,8.5z M53.4,5.4H57v12.7c0,2.5-0.5,4.3-1.5,5.5
				c-1.3,1.6-3.3,2.4-6,2.4c-1.4,0-2.6-0.2-3.6-0.5c-1-0.4-1.8-0.9-2.5-1.6s-1.2-1.6-1.5-2.6h4c0.4,0.4,0.8,0.7,1.4,0.9
				c0.6,0.2,1.2,0.3,2,0.3c1,0,1.8-0.2,2.4-0.5c0.6-0.3,1-0.7,1.3-1.2c0.2-0.5,0.4-1.3,0.4-2.5c-0.6,0.7-1.3,1.1-2,1.4
				s-1.5,0.4-2.4,0.4c-1.9,0-3.6-0.7-4.9-2.2c-1.3-1.4-2-3.3-2-5.4c0-2.4,0.7-4.2,2.1-5.7C45.4,5.6,47,5,48.8,5
				c0.8,0,1.6,0.2,2.4,0.5c0.7,0.3,1.5,0.8,2.2,1.5V5.4z"/>
			<path id="Fill-8" class="st2" d="M59,6.4h3.2v1.8c0.3-0.7,0.8-1.3,1.4-1.7C64.2,6.2,64.8,6,65.5,6c0.5,0,1,0.1,1.5,0.4l-1.2,3.2
				c-0.4-0.2-0.8-0.3-1.1-0.3c-0.6,0-1.1,0.3-1.5,1s-0.6,2.1-0.6,4.1v0.7V21H59V6.4z"/>
			<path id="Fill-10" class="st1" d="M75.5,9.3c-1.1,0-2.1,0.4-2.8,1.2c-0.7,0.8-1.1,1.8-1.1,3s0.4,2.2,1.1,3
				c0.8,0.8,1.7,1.2,2.8,1.2c1.1,0,2.1-0.4,2.8-1.2c0.8-0.8,1.1-1.8,1.1-3.1c0-1.2-0.4-2.2-1.1-3C77.6,9.7,76.7,9.3,75.5,9.3z
				 M79.4,6.4H83v14.3h-3.6v-1.5c-0.7,0.7-1.4,1.1-2.1,1.4S75.8,21,75,21c-1.9,0-3.5-0.7-4.9-2.1S68,15.7,68,13.6c0-2.2,0.7-4,2-5.4
				C71.3,6.7,72.9,6,74.8,6c0.9,0,1.7,0.2,2.4,0.5s1.5,0.8,2.1,1.5L79.4,6.4L79.4,6.4z"/>
			<path id="Fill-12" class="st1" d="M94.4,8.3c-1.1,0-2.1,0.4-2.9,1.2s-1.1,1.8-1.1,3c0,1.3,0.4,2.3,1.1,3.1
				c0.8,0.8,1.7,1.2,2.9,1.2c1.1,0,2-0.4,2.8-1.2s1.1-1.8,1.1-3.1c0-1.2-0.4-2.2-1.1-3C96.5,8.7,95.6,8.3,94.4,8.3z M90.6,5.4V7
				c0.7-0.7,1.4-1.1,2.1-1.5C93.5,5.2,94.3,5,95.2,5c1.9,0,3.5,0.7,4.8,2.1s2,3.2,2,5.5c0,2.1-0.7,3.9-2.1,5.4
				c-1.4,1.4-3,2.2-4.9,2.2c-0.8,0-1.6-0.1-2.3-0.4c-0.7-0.3-1.4-0.8-2.1-1.4V25H87V5.4H90.6z"/>
			<path id="Fill-14" class="st2" d="M105,0h3.7v7c0.7-0.6,1.4-1.1,2.2-1.4c0.7-0.3,1.5-0.5,2.2-0.5c1.5,0,2.7,0.5,3.7,1.5
				c0.9,0.9,1.3,2.1,1.3,3.8V20h-3.6v-6.3c0-1.7-0.1-2.8-0.2-3.4c-0.2-0.6-0.4-1-0.8-1.3s-0.9-0.4-1.4-0.4c-0.7,0-1.4,0.2-1.9,0.7
				s-0.9,1.2-1.1,2c-0.1,0.4-0.2,1.4-0.2,3V20H105V0z"/>
			<path id="Fill-16" class="st1" d="M120.5,20h3.9V5.8h-3.9V20z M122.5,0c0.7,0,1.3,0.2,1.8,0.7s0.7,1,0.7,1.6s-0.2,1.2-0.7,1.6
				s-1.1,0.7-1.7,0.7c-0.7,0-1.3-0.2-1.8-0.7s-0.7-1-0.7-1.7c0-0.6,0.2-1.2,0.7-1.6C121.2,0.2,121.8,0,122.5,0z"/>
			<path id="Fill-18" class="st2" d="M142,9.3l-3,1.6c-0.6-0.6-1.1-1-1.7-1.2c-0.6-0.2-1.2-0.3-2-0.3c-1.4,0-2.5,0.4-3.3,1.2
				s-1.3,1.8-1.3,3.1c0,1.2,0.4,2.2,1.2,3c0.8,0.8,1.9,1.2,3.2,1.2c1.6,0,2.9-0.5,3.8-1.6l2.9,1.9c-1.6,2-3.8,3-6.6,3
				c-2.6,0-4.6-0.7-6-2.2c-1.5-1.5-2.2-3.2-2.2-5.2c0-1.4,0.4-2.7,1.1-3.8c0.7-1.2,1.7-2.1,3-2.7c1.3-0.7,2.7-1,4.2-1
				s2.8,0.3,3.9,0.8C140.3,7.4,141.3,8.2,142,9.3"/>
			<path id="Fill-19" class="st2" d="M50.7,35.4l-2.2,2.2c-0.9-0.9-1.7-1.3-2.4-1.3c-0.4,0-0.7,0.1-0.9,0.3s-0.3,0.4-0.3,0.6
				c0,0.2,0.1,0.4,0.2,0.5c0.1,0.2,0.5,0.4,1.1,0.7l1.3,0.7c1.4,0.7,2.3,1.4,2.8,2.1c0.5,0.7,0.8,1.5,0.8,2.5c0,1.3-0.5,2.3-1.4,3.2
				c-0.9,0.8-2.2,1.3-3.7,1.3c-2.1,0-3.7-0.8-4.9-2.4l2.2-2.4c0.4,0.5,0.9,0.9,1.5,1.2s1.1,0.5,1.5,0.5c0.5,0,0.8-0.1,1.1-0.3
				s0.4-0.5,0.4-0.8c0-0.6-0.5-1.1-1.5-1.6l-1.2-0.6c-2.3-1.2-3.4-2.6-3.4-4.4c0-1.1,0.4-2.1,1.3-2.9s2-1.2,3.3-1.2
				c0.9,0,1.8,0.2,2.6,0.6C49.5,34,50.2,34.6,50.7,35.4"/>
			<polygon id="Fill-20" class="st2" points="54.9,28 58.7,28 58.7,33.4 61,33.4 61,36.5 58.7,36.5 58.7,48 54.9,48 54.9,36.5 
				53,36.5 53,33.4 54.9,33.4 			"/>
			<path id="Fill-21" class="st2" d="M64,33h3.8v7c0,1.4,0.1,2.3,0.3,2.9c0.2,0.5,0.5,0.9,0.9,1.2s0.9,0.4,1.6,0.4s1.1-0.1,1.6-0.4
				c0.4-0.3,0.8-0.7,1-1.3c0.2-0.4,0.2-1.3,0.2-2.7V33H77v6.2c0,2.6-0.2,4.3-0.6,5.2c-0.5,1.1-1.2,2-2.2,2.6s-2.2,0.9-3.7,0.9
				c-1.6,0-2.9-0.4-3.9-1.1c-1-0.7-1.7-1.7-2.1-3C64.1,43,64,41.4,64,39.1V33z"/>
			<path id="Fill-22" class="st1" d="M86.5,36.4c-1.1,0-2.1,0.4-2.8,1.2c-0.7,0.8-1.1,1.8-1.1,3s0.4,2.2,1.1,3
				c0.8,0.8,1.7,1.2,2.8,1.2c1.1,0,2.1-0.4,2.8-1.2c0.8-0.8,1.1-1.8,1.1-3.1c0-1.2-0.4-2.2-1.1-3C88.6,36.8,87.7,36.4,86.5,36.4z
				 M90.4,28H94v19.6h-3.6v-1.5c-0.7,0.7-1.4,1.1-2.1,1.4S86.7,48,85.9,48c-1.9,0-3.5-0.7-4.9-2.1c-1.4-1.4-2.1-3.2-2.1-5.3
				c0-2.2,0.7-4,2-5.4s2.9-2.1,4.8-2.1c0.9,0,1.7,0.2,2.4,0.5c0.8,0.3,1.5,0.8,2.1,1.4v-7H90.4z"/>
			<path id="Fill-23" class="st1" d="M97.5,47h3.9V32.8h-3.9V47z M99.5,27c0.7,0,1.3,0.2,1.8,0.7s0.7,1,0.7,1.6s-0.2,1.2-0.7,1.6
				s-1.1,0.7-1.7,0.7c-0.7,0-1.3-0.2-1.8-0.7s-0.7-1-0.7-1.7c0-0.6,0.2-1.2,0.7-1.6C98.2,27.2,98.8,27,99.5,27z"/>
			<path id="Fill-24" class="st1" d="M111.5,36.4c-1.1,0-2,0.4-2.8,1.2c-0.7,0.8-1.1,1.8-1.1,3s0.4,2.2,1.1,3s1.7,1.2,2.8,1.2
				c1.1,0,2.1-0.4,2.8-1.2c0.7-0.8,1.1-1.8,1.1-3s-0.4-2.2-1.1-3C113.6,36.8,112.6,36.4,111.5,36.4 M111.4,33c1.3,0,2.6,0.3,3.8,1
				c1.2,0.7,2.1,1.6,2.8,2.7c0.7,1.2,1,2.4,1,3.7s-0.3,2.6-1,3.8s-1.6,2.1-2.7,2.7c-1.2,0.7-2.4,1-3.8,1c-2.1,0-3.8-0.7-5.3-2.2
				s-2.2-3.2-2.2-5.3c0-2.2,0.8-4.1,2.5-5.6C107.9,33.6,109.5,33,111.4,33"/>
			<path id="Fill-25" class="st0" d="M0,5v2c1.2-1,2.5-1.7,4-2H0z"/>
			<path id="Fill-26" class="st0" d="M11.4,19.3c1-1.1,1.6-2.6,1.6-4.4s-0.5-3.2-1.6-4.3C10.4,9.5,9,9,7.4,9s-2.9,0.6-3.9,1.7
				C2.5,11.8,2,13.2,2,15s0.5,3.2,1.6,4.3c1,1.1,2.3,1.7,3.9,1.7S10.4,20.4,11.4,19.3"/>
			<path id="Fill-27" class="st0" d="M13,7V5H9c0.4,0.1,0.7,0.2,1,0.3C11.1,5.7,12.1,6.2,13,7"/>
			<path id="Fill-28" class="st0" d="M27.5,5c0.5,0.1,0.9,0.3,1.4,0.5C30,6.1,31,6.9,31.8,8l-3.1,3.1c-1.3-1.2-2.4-1.9-3.4-1.9
				c-0.6,0-1,0.1-1.3,0.4c-0.3,0.2-0.5,0.5-0.5,0.9c0,0.3,0.1,0.5,0.3,0.7c0.2,0.2,0.7,0.5,1.5,0.9l1.8,0.9c1.9,0.9,3.2,1.9,4,2.9
				c0.7,1,1.1,2.1,1.1,3.5c0,1.8-0.6,3.2-1.9,4.4c-1.3,1.2-3,1.8-5.2,1.8c-2.9,0-5.2-1.1-6.9-3.4l3.1-3.4c0.6,0.7,1.3,1.2,2.1,1.7
				c0.8,0.4,1.5,0.6,2.1,0.6c0.7,0,1.2-0.2,1.6-0.5s0.6-0.7,0.6-1.1c0-0.8-0.7-1.5-2.2-2.2l-1.7-0.8c-3.2-1.6-4.8-3.7-4.8-6.1
				c0-1.6,0.6-2.9,1.8-4C21.3,5.7,22.1,5.3,23,5h-5.4v20.1h-5V23c-1,0.9-1.9,1.6-2.9,2s-2,0.6-3.2,0.6c-2.5,0-4.6-0.9-6.5-2.8V48h37
				V5H27.5z"/>
		</g>
	</g>
</g>
</svg>
