<?xml version="1.0" encoding="UTF-8" standalone="no"?>
<!-- Created with Inkscape (http://www.inkscape.org/) -->

<svg
   xmlns:dc="http://purl.org/dc/elements/1.1/"
   xmlns:cc="http://creativecommons.org/ns#"
   xmlns:rdf="http://www.w3.org/1999/02/22-rdf-syntax-ns#"
   xmlns:svg="http://www.w3.org/2000/svg"
   xmlns="http://www.w3.org/2000/svg"
   version="1.1"
   width="404.99997"
   height="133.81801"
   id="svg2">
  <defs
     id="defs4" />
  <metadata
     id="metadata7">
    <rdf:RDF>
      <cc:Work
         rdf:about="">
        <dc:format>image/svg+xml</dc:format>
        <dc:type
           rdf:resource="http://purl.org/dc/dcmitype/StillImage" />
        <dc:title></dc:title>
      </cc:Work>
    </rdf:RDF>
  </metadata>
  <g
     transform="translate(-317.71423,-357.12964)"
     id="layer1">
    <path
       d="m 324.37637,373.94612 c 0.0786,23.33775 0.15715,46.67551 0.23573,70.01326 9.74371,3.85034 19.48742,7.70067 29.23113,11.55101 -0.0677,6.10611 -0.18179,12.21401 -0.22051,18.31899 0.15208,1.67292 0.30417,3.34585 0.45625,5.01877 2.30986,1.41089 4.59058,2.89492 6.91863,4.26018 2.6728,0.5373 5.34104,1.12553 8.01668,1.63113 16.11405,-0.38734 32.22787,-0.80511 48.34207,-1.17344 16.57422,0.14965 33.1498,0.32616 49.72316,0.45901 2.80097,-0.31122 5.60195,-0.62243 8.40292,-0.93365 2.43593,0.94294 4.87185,1.88587 7.30778,2.82881 4.66087,-0.33145 9.33455,-0.60192 13.98741,-0.97148 2.80247,-1.012 5.60494,-2.02401 8.40741,-3.03601 0.7072,0.86436 1.41441,1.72872 2.12161,2.59308 9.0365,-0.23573 18.07301,-0.47147 27.10951,-0.7072 1.65015,-1.65014 3.30029,-3.30029 4.95044,-4.95043 1.25725,1.65014 2.5145,3.30029 3.77175,4.95043 28.05655,0.008 56.11318,-0.0158 84.16968,0.012 16.2616,0.0746 32.5232,0.14919 48.7848,0.22378 2.35735,-2.5145 4.7147,-5.02901 7.07205,-7.54351 -0.3451,-1.42932 -0.59148,-2.90834 -0.99799,-4.30674 -3.04621,-3.51486 -6.09241,-7.02971 -9.13862,-10.54456 1.96446,-2.12161 3.92892,-4.24323 5.89338,-6.36484 4.11032,-0.56716 8.2347,-1.08085 12.33624,-1.68136 3.53031,-1.42514 7.08348,-2.80735 10.5995,-4.25933 5.39875,-3.6774 10.7975,-7.35481 16.19625,-11.03222 -4.87185,-6.28626 -9.74371,-12.57253 -14.61556,-18.85879 2.5145,-2.82882 5.02901,-5.65764 7.54351,-8.48646 0.78578,-4.95043 1.57157,-9.90087 2.35735,-14.8513 -1.02152,-3.77176 -2.04303,-7.54351 -3.06455,-11.31527 -4.40038,-3.30029 -8.80077,-6.60058 -13.20115,-9.90087 -4.03602,-0.85477 -8.06747,-1.77151 -12.10635,-2.58761 -7.20125,0.46965 -14.4025,0.93929 -21.60375,1.40894 -5.65764,5.57906 -11.31527,11.15811 -16.97291,16.73717 -4.00749,-8.87935 -8.01498,-17.75869 -12.02247,-26.63804 -4.47896,5.73622 -8.95793,11.47243 -13.43689,17.20865 -0.78578,-2.67166 -1.57157,-5.34333 -2.35735,-8.01499 -18.70163,-0.15716 -37.40327,-0.31431 -56.1049,-0.47147 -0.55005,0.86436 -1.1001,1.72873 -1.65015,2.59309 -5.32117,-0.62081 -10.63919,-1.29944 -15.96232,-1.88416 -7.67201,0.0862 -15.34662,0.14068 -23.01701,0.24679 -1.00288,0.19096 -2.0803,0.24672 -3.03663,0.52211 -3.12475,3.59346 -6.2495,7.18693 -9.37425,10.78039 -2.27877,-3.85034 -4.55754,-7.70067 -6.83631,-11.55101 -6.28626,0 -12.57253,0 -18.85879,0 0.0786,2.27877 0.15716,4.55754 0.23574,6.83631 -4.03732,-1.80437 -8.05748,-3.66652 -12.10553,-5.43479 -4.52986,-0.70291 -9.05972,-1.40582 -13.58958,-2.10873 -4.13054,1.76458 -8.28959,3.47309 -12.40235,5.27265 -2.74163,1.66253 -5.51768,3.27555 -8.23784,4.96896 -1.52781,1.22225 -3.05563,2.4445 -4.58344,3.66675 -4.63612,-2.9074 -9.27224,-5.81479 -13.90836,-8.72219 -5.10759,-1.33583 -10.21518,-2.67166 -15.32277,-4.00749 -4.47896,0.31431 -8.95793,0.62863 -13.43689,0.94294 -3.16274,1.43609 -6.34922,2.83146 -9.49717,4.29292 -2.33475,1.71216 -4.66951,3.42431 -7.00427,5.13647 -1.72872,-1.96446 -3.45744,-3.92891 -5.18616,-5.89337 -3.06455,-1.41441 -6.12911,-2.82882 -9.19366,-4.24323 -4.25444,-0.2262 -8.50666,-0.52936 -12.7625,-0.7072 -4.57939,0.0176 -9.16156,-0.0352 -13.73921,0.0265 -2.87426,0.22691 -5.74853,0.45383 -8.62279,0.68074 z"
       id="path3776"
       style="fill:#ffffff;fill-opacity:1;stroke:none" />
    <g
       transform="matrix(0.05834141,0,0,0.05834141,484.26182,381.14511)"
       id="g2996">
      <path
         d="m 8.3572,1829.5228 c -53.172361,-3.0769 -106.008211,-12.6536 -156.91809,-27.8749 -106.48797,0 -212.97594,0 -319.46391,0 -6.41201,-4.5467 -17.47318,-0.755 -25.72607,-2 -289.13064,0 -578.26133,0 -867.39193,0 0.057,8.5933 -15.2009,1.8717 -21.6089,4 -208.814,0 -417.628,0 -626.442,0 -49.8318,-14.1616 -99.835,-27.7724 -148.6006,-45.362 -15.3039,-5.3978 -31.7199,-8.6537 -43.7898,-20.2808 -26.3529,-19.3218 -52.7058,-38.6437 -79.0587,-57.9656 -0.1684,-124.3633 -0.3368,-248.7265 -0.5052,-373.0898 -168.1649,-74.3964 -336.3298,-148.7928 -504.4948,-223.1891 -0.1672,-419.05039 -0.3344,-838.10078 -0.5016,-1257.15117 199.97,0.34752 399.983,0.12547 599.9261,0.82882 110.1503,12.60524 213.4367,67.06174 289.5287,147.143716 11.8733,15.111471 24.6484,29.5846204 39.004,8.357114 112.2543,-91.13444 253.0948,-145.4053 397.3514,-154.17351 29.2412,-2.31452 58.7046,-1.33968 87.9943,-0.96228 170.7685,13.31598 332.3669,88.895786 464.97713,195.168646 8.78403,7.101093 17.39575,14.411133 26.07547,21.638484 90.59092,-88.037367 198.76099,-161.70297 322.27912,-193.676 65.88256,-17.94946 134.58753,-24.96686 202.76127,-23.65234 90.66349,1.41511 180.7089,22.80313 262.961015,60.78987 14.834752,6.29922 28.738137,14.546375 43.143095,21.7445 0,-27.7245 0,-55.44899 0,-83.17349 132.674867,0.16832 265.34973,0.33663 398.0246,0.50493 27.1798,56.36598 54.3596,112.731966 81.5394,169.09795 50.87793,-56.532652 101.75586,-113.0653 152.6338,-169.59795 172.9734,0 345.9468,0 518.9202,0 -0.5048,4.76251 14.5894,-1.04293 20.585,0.74134 29.115,-0.10829 58.2587,-0.73806 87.1173,3.80939 22.3517,3.1118 44.4277,8.25223 66.1797,14.26154 1.6554,-7.01636 -4.9561,-22.29961 7.203,-18.81228 360.2578,0 720.5157,0 1080.7735,0 0.1746,25.71148 0.3491,51.42297 0.5235,77.13445 74.9654,-93.71275 149.9308,-187.42547 224.8963,-281.13817 68.3305,159.22313 134.6373,319.530347 202.1587,479.18116 88.6483,-91.704993 177.2967,-183.409987 265.945,-275.11498 163.1375,0.32401 326.3124,0.1181 489.4266,0.7729 121.4435,14.88479 234.6446,78.443157 316.6485,168.3065191 67.2743,79.6190239 94.9557,185.3413009 100.41,287.5933009 3.3162,74.07104 -7.6594,149.38403 -36.4637,217.98281 -24.9052,57.40527 -61.8823,109.32306 -107.2457,152.42754 -7.8524,6.03917 -13.2915,12.28011 -3.6247,19.78407 49.0363,68.87311 96.4159,139.00912 147.9419,206.04249 35.1171,42.09763 70.9957,83.55081 106.5985,125.23653 -150.627,89.1134 -301.4038,178.1996 -452.784,266.1146 -17.2308,8.5835 -33.1371,22.529 -53.2804,22.4681 -69.9602,1.3201 -140.0409,0.7591 -210.0475,1.356 -24.4517,28.2352 -49.486,55.9833 -73.2545,84.7969 62.3341,79.553 126.45,158.0451 187.675,238.2525 -50,61.8941 -100,123.7883 -150,185.6825 -251.0333,0.04 -502.0667,0.08 -753.1,0.12 -7.2632,-4.4488 -17.87,-0.8289 -26.4888,-2.0064 -521.4492,-0.1646 -1042.8984,-0.3291 -1564.3476,-0.4936 -10.01261,-22.3547 -20.02518,-44.7094 -30.0377,-67.0642 -16.42334,4.1398 -34.14595,7.4793 -38.54199,26.8762 -7.54487,13.4017 -15.11015,26.792 -22.66521,40.188 -187.43957,0.1679 -374.87913,0.3357 -562.3187,0.5035 3.38256,-25.4041 -31.27712,3.0753 -46.39651,2.2279 -73.75822,19.3959 -150.27389,28.7666 -226.536647,26.5815 -13.199225,-0.1303 -26.405676,0.277 -39.566843,-0.9372 z m 106,-78.3608 c 93.47585,-6.5119 188.07025,-28.2529 268.7178,-77.5141 8.79701,-0.1749 19.81352,-2.5693 15.7822,10.0841 0,13.3053 0,26.6106 0,39.9159 146.1702,0 292.3404,0 438.5106,0 18.76844,-32.689 31.69451,-69.7766 57.65484,-97.7414 9.40531,-8.6453 23.01567,-3.2694 34.5754,-4.7311 18.06209,0.018 36.12417,0.036 54.18626,0.054 13.0673,12.763 15.95388,32.7468 22.8659,49.0945 6.0552,17.8499 9.8862,36.4873 18.6222,53.3227 152.1853,-0.1183 304.3999,0.2367 456.5669,-0.1775 33.8535,-2.3585 62.6809,-23.372 90.528,-40.8225 0.8475,13.6408 0.3607,27.335 0.4899,41 90.6667,0 181.3333,0 272,0 0,-9.4914 0,-18.9827 0,-28.4741 10.1268,9.1573 19.138,21.0111 29.9656,28.4741 237.3178,0 474.6357,0 711.9535,0 0.3024,-8.8876 -1.0835,-22.8136 6.9354,-8.6685 4.7163,7.7646 10.5382,13.2085 20.1702,10.6535 151.9918,0.01 303.9835,0.013 455.9753,0.019 0,-8.6872 0,-17.3744 0,-26.0616 7.8333,8.6811 15.6667,17.3621 23.5,26.0432 62.466,0.01 124.9319,0.013 187.3979,0.02 29.4392,-36.2935 58.6887,-72.7445 88.3102,-108.8874 -63.2671,-79.9837 -127.0241,-159.5854 -189.7081,-240.026 45.8911,-53.9215 92.8981,-106.8888 139.3893,-160.2953 79.2036,-0.097 158.4071,-0.1941 237.6107,-0.2913 129.2431,-73.7658 256.19,-151.5238 385.6311,-224.92266 23.2973,-5.17662 -5.2359,-21.85842 -10.1468,-33.14981 -78.8144,-100.54718 -153.4041,-204.35691 -228.2454,-307.87334 9.5421,-10.10338 24.1571,-18.31917 34.7938,-28.55006 78.1108,-64.06328 133.5031,-157.42926 143.5999,-258.74833 9.7412,-82.8893 -0.6977,-168.81982 -33.8977,-245.62779 C 3832.48,81.997914 3809.9238,49.853309 3781.2493,24.012379 3714.4175,-37.92859 3629.7486,-84.209038 3538.3572,-94.84681 c -149.6537,0 -299.3074,0 -448.9611,0 -107.4091,110.999974 -214.8181,221.99997 -322.2271,333 -8.3329,1.15039 -7.6361,-13.78124 -12.2002,-19.34307 -62.3817,-147.938386 -124.1992,-296.117809 -187.278,-443.75978 -7.5652,6.09878 -14.2431,17.32902 -21.4677,25.39747 -86.9568,108.691222 -173.9117,217.38394 -260.8659,326.0772 -0.1695,-73.95904 -0.3391,-147.91808 -0.5087,-221.87712 -310.3304,0 -620.6609,0 -930.9913,0 0,24.059823 0,48.119647 0,72.17947 -53.9618,-47.506623 -125.7988,-69.98763 -196.8146,-71.456037 -72.5049,-2.697703 -146.4022,12.083788 -210.35882,47.019819 -6.46994,-3.734 16.98623,-33.366369 22.20712,-47.743252 -117.33783,0 -234.67567,0 -352.0135,0 -69.1094,76.773293 -138.21884,153.546559 -207.3283,230.3198 -37.24184,-76.656771 -74.003,-153.547716 -111.0078,-230.3198 -89.8906,0 -179.7812,0 -269.6718,0 C 28.698786,-44.01536 28.528019,7.3213902 28.3572,58.65814 3.0081481,38.015026 -22.878289,18.110821 -50.625147,0.76471621 -72.554346,-13.767293 -95.998721,-26.092829 -119.54367,-37.765017 c -25.98483,-12.283015 -52.63146,-22.86889 -80.11072,-31.319574 -23.4218,-7.252961 -47.49002,-12.898967 -71.58833,-17.357202 -29.6737,-5.088411 -59.60663,-7.460662 -89.68062,-8.354994 -57.4328,-0.931817 -115.15692,4.986531 -170.84257,19.400082 -102.26871,25.418302 -193.68799,82.9937395 -271.02654,153.408715 -27.14356,23.60943 -51.37903,50.30786 -77.16125,75.36332 -117.04548,-118.935735 -267.7917,-208.6337 -432.8265,-239.613973 -64.5875,-12.14686 -131,-10.66278 -195.8102,-1.334601 -121.5922,17.333442 -236.5362,73.128138 -327.9096,154.916108 -17.3131,14.340617 -32.0001,31.531857 -49.0007,46.216396 -22.4226,-34.083463 -47.6846,-66.365754 -77.6962,-94.090025 -37.6852,-37.73313 -83.8014,-66.740398 -132.8132,-87.482782 -47.8059,-20.073993 -99.8497,-29.620448 -151.6475,-27.337013 -153.4957,-5.11e-4 -306.9913,-0.001 -460.487,-0.0015 0.1673,376.05077 0.3345,752.10154 0.5018,1128.15236 147.2778,65.2826 294.5555,130.5652 441.8333,195.8477 20.8889,0 41.7778,0 62.6667,0 0.01,137.1667 0.013,274.3333 0.02,411.5 38.8265,28.4929 77.6531,56.9859 116.4796,85.4788 215.8333,0.01 431.6667,0.015 647.5,0.022 0,-8.7563 0,-17.5126 0,-26.2689 8.3052,7.0216 15.4462,16.9184 24.4281,22.2689 313.5014,0 627.0028,0 940.50421,0 1.95654,-4.8404 -3.28553,-24.3594 4.05576,-18.2193 9.75565,6.3884 18.73124,15.1629 28.95253,20.127 86.68647,0.031 173.37294,0.061 260.05941,0.091 2.0934,-5.8798 -5.2502,-26.5533 6.02871,-18.4918 77.088958,39.7611 165.8727975,48.4165 251.376975,47.3639 12.747296,0.4354 25.394835,-0.3191 38.094705,-1.358 z m -86,-27.1616 c -71.64185,-3.4669 -145.6426,-15.8035 -207.32606,-54.3167 -10.16586,-0.4221 -32.10898,-35.7678 -30.17394,-15.6215 0,13.5285 0,27.0571 0,40.5857 -75.16667,-0.032 -150.33333,-0.064 -225.5,-0.096 -22.33333,-16.1713 -44.66667,-32.3427 -67,-48.514 -0.17873,15.5368 -0.35747,31.0735 -0.5362,46.6103 -301.1546,-0.035 -602.3092,-0.069 -903.4638,-0.104 -20.3333,-19.6284 -40.6667,-39.2568 -61,-58.8852 -0.176,21.3299 -0.3519,42.6598 -0.5277,63.9897 -203.2491,0 -406.4982,0 -609.7473,0 -32.5752,-23.8905 -65.1502,-47.7812 -97.725,-71.6722 -0.1682,-141.7762 -0.3364,-283.5524 -0.5046,-425.3286 -28.5313,-0.3972 -57.3969,0.7845 -85.7226,-0.5838 -139.7576,-61.9531 -279.5152,-123.9061 -419.2728,-185.8591 0,-360.51904 0,-721.03807 0,-1081.55711 153.6,0.210172 307.229,-0.395597 460.8109,0.324024 88.7018,4.279891 173.1719,46.4143 236.8308,107.176525 36.6896,34.66668 66.7285,75.712351 91.9192,119.315741 38.25,-38.12569 75.5015,-77.62343 119.8613,-108.930233 73.1486,-54.2339694 158.7915,-91.597487 248.5643,-107.023176 40.8546,-7.930765 82.6172,-10.073961 124.1511,-10.041471 125.4615,3.135898 246.1349,51.963569 350.8022,118.870966 56.53635,37.000643 109.33567,80.023484 155.29366,129.620534 6.11939,4.91085 12.27621,18.75982 18.32338,6.42891 66.38527,-71.10514 137.51994,-139.729131 223.59284,-186.6558545 74.49954,-41.1231635 158.79776,-63.4232695 243.66441,-67.3786625 52.62646,-2.681378 105.71293,0.08683 157.12899,12.443673 114.30826,25.116167 217.143177,89.425274 300.25916,170.622184 9.293637,12.60643 4.775441,-6.74303 5.79776,-13.27362 0,-57.16939 0,-114.33878 0,-171.50817 74.712,0.16954 149.424,0.33908 224.136,0.50862 38.27321,79.333313 76.54638,158.666646 114.8195,238 8.04239,-1.00587 18.78786,4.30712 23.36258,-4.80492 C 489.23592,88.484637 559.29656,10.626319 629.3572,-67.232 c 97.238,-0.04007 194.476,-0.08013 291.714,-0.1202 -14.9763,29.576047 -32.10525,58.0724481 -47.1938,87.61312 6.7086,10.049333 14.75246,21.101341 22.70364,6.499604 48.11691,-50.941663 116.72796,-78.988602 185.21236,-89.067161 79.3724,-11.388747 165.4043,-2.189181 232.5408,44.857038 27.2997,18.4861139 50.5296,43.007944 67.023,71.597399 0.1718,-40.5 0.3436,-81 0.5155,-121.5 291.6615,0 583.323,0 874.9845,0 0,91.39087 0,182.78174 0,274.17261 100.9778,-126.050494 201.5916,-252.394576 303,-378.09852 62.1042,145.55508 123.0485,291.60398 184.5247,437.42591 11.6125,-0.51664 24.3947,1.78951 35.2773,-0.48865 107.465,-111.00373 214.93,-222.007486 322.395,-333.01126 139.8689,0.200284 279.7619,-0.344179 419.6157,0.320557 73.9959,2.358506 143.4974,36.685938 202.2341,79.759458 39.7235,29.273652 76.1649,65.39476 96.2852,111.171805 25.115,52.72038 35.4808,111.81219 36.7616,169.89013 -0.2754,33.97845 -0.6379,68.10096 -9.1433,101.29274 -19.684,98.30679 -86.9356,180.68501 -168.3431,236.23251 -27.6185,9.30639 -2.9362,27.97267 6.1674,42.17056 72.3823,98.09021 143.792,196.96605 219.0178,292.90675 16.9734,16.45651 -26.5477,22.51921 -36.39,34.2798 -106.2197,62.6295 -212.3928,125.3398 -318.9024,187.4757 -81.1184,0 -162.2369,0 -243.3553,0 -54.681,62.5568 -109.362,125.1136 -164.043,187.6704 63.6525,80.2168 127.2213,160.5001 190.8882,240.7055 -21.83,27.0077 -43.66,54.0154 -65.4899,81.0231 -53.686,0.034 -107.372,0.068 -161.058,0.101 -21.314,-23.4385 -42.628,-46.8771 -63.942,-70.3156 -0.1752,23.4385 -0.3504,46.8771 -0.5256,70.3156 -141.9071,0 -283.8141,0 -425.7212,0 -19.2511,-23.492 -38.5021,-46.984 -57.7532,-70.476 -0.1755,22.492 -0.3511,44.984 -0.5266,67.476 -224.4875,0 -448.975,0 -673.4625,0 -22.5037,-22.4963 -45.0073,-44.9926 -67.5109,-67.489 0,22.4963 0,44.9927 0,67.489 -72,0 -144,0 -216,0 0,-23.3587 0,-46.7173 0,-70.076 -32.5865,27.6381 -66.255,57.276 -107.9406,69.5774 -149.8531,0.1414 -299.7063,0.2828 -449.5594,0.4242 -16.2159,-30.4637 -28.467,-63.4045 -48.98755,-91.2997 -5.23979,-7.766 -12.39767,-11.4931 -21.82136,-10.4489 -24.3728,-0.6066 -48.79785,0.3271 -73.19109,0.323 -29.36717,19.2648 -46.50498,51.8468 -65.53156,80.4413 -7.14142,6.9133 -7.85209,24.9074 -21.11199,21.0169 -128.28549,0.014 -256.57097,0.027 -384.85645,0.041 0,-16.6667 0,-33.3333 0,-50 -17.86203,0.5506 -36.3761,-1.0763 -53.84359,0.7918 -58.89768,38.9028 -128.12691,59.114 -197.18965,70.5634 -49.14786,7.8209 -98.800759,9.9865 -148.46676,7.998 z m 48.5,-126.9132 c 89.32092,-6.0493 174.23104,-63.309 210.067,-145.8414 15.30711,-33.7728 20.15978,-70.9157 21.9447,-107.5979 -110.33723,0 -220.674467,0 -331.0117,0 0,25.3333 0,50.6667 0,76 76.673367,0 153.34673,0 230.0201,0 -17.00219,39.9976 -51.17331,70.8861 -90.86855,87.4882 -20.684431,8.4948 -42.968393,11.7851 -65.15155,13.671 0,26.1984 0,52.3967 0,78.5951 8.338198,-0.7179 16.667974,-1.5296 25,-2.315 z m -7,-38.7794 c 2.116623,-7.2283 -5.189491,-22.4959 5.690486,-22.2474 34.975754,-3.9689 68.639584,-18.4193 95.882024,-40.5982 19.9545,-16.3968 37.29435,-36.1951 48.22234,-59.7576 6.33806,-10.4929 8.77086,-22.6941 13.12075,-34.0567 -78.97187,0 -157.943733,0 -236.9156,0 0,-13.3333 0,-26.6667 0,-40 98.052967,0 196.10593,0 294.1589,0 -3.47483,46.247 -17.88216,92.5007 -47.60709,128.8241 -41.15031,52.8067 -105.72523,86.0829 -172.55181,89.1759 0,-7.1134 0,-14.2267 0,-21.3401 z m -42.2385,0.6643 c -0.08717,-13.2253 -0.174333,-26.4505 -0.2615,-39.6758 -33.2841827,-5.4245 -66.318868,-17.4285 -91.6688,-40.2426 -37.01764,-29.3503 -58.80864,-75.3149 -59.52052,-122.2853 -1.64088,-37.395 10.80896,-75.1159 34.312523,-104.2421 26.376106,-31.8779 63.1558,-55.545 104.208438,-62.8438 13.492866,1.3637 14.113849,-7.6984 12.77251,-18.4722 0.139592,-21.2421 0.279279,-42.4843 0.418949,-63.7264 -47.308893,5.7258 -94.562874,19.4577 -133.27571,48.2481 -52.02087,37.8276 -91.9158,94.8818 -101.11459,159.3346 -3.78488,20.5425 -1.42061,41.7212 -1.80024,62.506 4.91609,43.4619 19.79861,86.0473 47.08098,120.6457 37.22986,48.8231 92.325791,84.55 153.0974897,95.109 11.0476537,-1.44 40.4744733,15.9652 35.9455333,-4.7628 -0.06505,-9.8641 -0.129848,-19.7283 -0.195063,-29.5924 z m -28.2615,17.6812 c -50.39827,-8.2668 -97.403758,-34.3397 -131.73402,-72.0424 -34.66419,-36.3278 -55.64576,-85.5864 -58.19708,-135.666 -0.1688,-25.5367 -1.4681,-51.4004 7.22101,-75.9578 20.31253,-72.0129 79.71993,-130.2721 149.889313,-154.179 11.732143,0.2165 40.9986693,-19.0338 43.320377,-4.3978 0,12.5851 0,25.1703 0,37.7554 -28.734533,6.209 -56.518101,18.0164 -79.528894,36.4606 -44.767646,33.9643 -74.871386,89.0536 -71.637056,145.9028 -1.09289,54.8853 26.32475,108.9862 69.960644,141.9936 23.302203,19.2166 51.783417,31.2155 81.205606,37.4394 -0.065544,14.8592 0.180555,29.7254 -0.25,44.5787 -3.4072119,-0.6796 -6.8316327,-1.269 -10.2499,-1.8875 z m -2022.5,-224.0054 c 0,-79 0,-158 0,-237 -28,0 -56,0 -84,0 0,158 0,316 0,474 28,0 56,0 84,0 0,-79 0,-158 0,-237 z m -65,0.5 c 0,-73.1667 0,-146.3333 0,-219.5 15.6667,0 31.3333,0 47,0 0,146.3333 0,292.6667 0,439 -15.6667,0 -31.3333,0 -47,0 0,-73.1667 0,-146.3333 0,-219.5 z m 262,197.5 c 0,-13 0,-26 0,-39 -57.6667,0 -115.3333,0 -173,0 0,26 0,52 0,78 57.6667,0 115.3333,0 173,0 0,-13 0,-26 0,-39 z m -155,0.5 c 2.1394,-6.9481 -5.2445,-23.4194 5.7624,-21.5 43.7458,0 87.4917,0 131.2376,0 0,14.3333 0,28.6667 0,43 -45.6667,0 -91.3333,0 -137,0 0,-7.1667 0,-14.3333 0,-21.5 z m 406,-198.5 c 0,-79 0,-158 0,-237 -27.3333,0 -54.6667,0 -82,0 0,158 0,316 0,474 27.3333,0 54.6667,0 82,0 0,-79 0,-158 0,-237 z m -64,0.5 c 0,-73.1667 0,-146.3333 0,-219.5 15.3333,0 30.6667,0 46,0 0,146.3333 0,292.6667 0,439 -15.3333,0 -30.6667,0 -46,0 0,-73.1667 0,-146.3333 0,-219.5 z m 372,-0.5 c 0,-79 0,-158 0,-237 -27.6648,0 -55.3295,0 -82.9943,0 -0.1685,113.5836 -0.3371,227.1671 -0.5057,340.7507 -66.5459,-101.9263 -132.4647,-204.2685 -199.75,-305.7071 -1.7535,10.8762 -0.2474,25.2088 -0.75,37.4114 0,34.2256 0,68.4511 0,102.6767 66.5,99.618 133,199.236 199.5,298.854 28.1667,0.01 56.3333,0.013 84.5,0.02 0,-79.0019 0,-158.0038 0,-237.0057 z m -170.25,76.2642 c -31.9167,-47.8889 -63.8333,-95.7778 -95.75,-143.6667 0,-25.0087 0,-50.0174 0,-75.0261 67.7202,101.5678 133.6435,204.4442 200.5,306.6344 0.1684,-127.7353 0.3368,-255.4705 0.5051,-383.2058 15.665,0 31.3299,0 46.9949,0 0,146.3333 0,292.6667 0,439 -18.8333,-0.023 -37.6667,-0.045 -56.5,-0.068 -31.9165,-47.8893 -63.8344,-95.7782 -95.75,-143.6678 z m 414.25,-76.2642 c 0,-79 0,-158 0,-237 -28,0 -56,0 -84,0 0,158 0,316 0,474 28,0 56,0 84,0 0,-79 0,-158 0,-237 z m -66,0.5 c 0,-73.1667 0,-146.3333 0,-219.5 16,0 32,0 48,0 0,146.3333 0,292.6667 0,439 -16,0 -32,0 -48,0 0,-73.1667 0,-146.3333 0,-219.5 z m 263,197.5 c 0,-13 0,-26 0,-39 -57.66667,0 -115.33333,0 -173,0 0,26 0,52 0,78 57.66667,0 115.33333,0 173,0 0,-13 0,-26 0,-39 z m -155,0.5 c 2.1394,-6.9481 -5.24452,-23.4194 5.76237,-21.5 43.74588,0 87.49175,0 131.23763,0 0,14.3333 0,28.6667 0,43 -45.66667,0 -91.33333,0 -137,0 0,-7.1667 0,-14.3333 0,-21.5 z m 406,-198.5 c 0,-79 0,-158 0,-237 -27.33333,0 -54.66667,0 -82,0 0,158 0,316 0,474 27.33333,0 54.66667,0 82,0 0,-79 0,-158 0,-237 z m -64,0.5 c 0,-73.1667 0,-146.3333 0,-219.5 15.33333,0 30.66667,0 46,0 0,146.3333 0,292.6667 0,439 -15.33333,0 -30.66667,0 -46,0 0,-73.1667 0,-146.3333 0,-219.5 z m 334,235.9131 c -38.21926,-58.7122 -78.35399,-116.2686 -116.1338,-175.2043 39.3057,-10.6542 71.27057,-41.3793 87.62997,-78.1883 9.84933,-20.2365 12.54481,-43.1226 13.01288,-65.394 -0.74594,-57.5208 -36.12778,-113.7059 -89.16108,-136.841 -33.80166,-15.7285 -71.84079,-17.2856 -108.59797,-17.431 -10.91667,-0.2254 -21.83333,-0.4507 -32.75,-0.6761 0,26.7739 0,53.5477 0,80.3216 34.69636,1.0403 71.04418,-2.8746 103.99091,9.8233 21.17265,11.1087 36.48886,32.801 39.24137,56.5586 0.52976,15.1641 1.40167,31.2674 -7.66068,44.3597 -14.76709,25.7331 -46.14818,37.6476 -74.79787,35.7977 -25.90441,0.3206 -51.80882,0.6411 -77.71323,0.9616 54.47989,82.1621 108.95973,164.3243 163.4395,246.4865 33.15593,-0.3914 66.3598,0.8053 99.5,-0.5743 z m -159,-121.4943 c -23.3363,-35.5525 -47.23632,-70.8085 -70.0735,-106.6392 22.54757,-1.0446 45.42897,0.4774 67.77031,-2.1527 28.71568,-5.0215 56.5255,-21.8058 69.44007,-48.6273 11.59712,-25.3273 9.75731,-56.0175 -2.60507,-80.7135 -11.25058,-21.6229 -30.69598,-39.3328 -54.55956,-45.5996 -25.68571,-6.8741 -52.69493,-4.2254 -78.97225,-6.4904 0,-14.647 0,-29.2939 0,-43.9409 41.45701,1.5842 85.66532,-0.8639 123,20.073 50.94353,25.557 79.09064,86.1243 70.0579,141.7205 -4.37173,29.6877 -19.72734,57.3683 -42.35341,77.0942 -14.52263,13.0866 -32.71941,22.3467 -51.89457,26.2002 -16.05993,-0.6832 -19.14613,6.2338 -8.09692,17.0248 34.72826,52.378 70.49511,104.3326 104.287,157.1321 -18.83333,-0.015 -37.66667,-0.029 -56.5,-0.044 -23.16665,-35.0123 -46.33344,-70.0252 -69.5,-105.0372 z m 1040,35.608 c 0.42723,-29.2063 -0.84955,-58.8047 0.62953,-87.7691 7.14587,-7.6848 -1.364,-15.1294 -4.4584,-22.657 -48.34546,-92.2003 -96.6909,-184.4005 -145.03633,-276.6007 -31.78543,-0.1732 -63.57087,-0.3464 -95.3563,-0.5195 53.44945,100.0769 108.16393,199.5304 162.2215,299.3047 0,58.2383 0,116.4765 0,174.7148 27.33333,0 54.66667,0 82,0 0,-28.8244 0,-57.6488 0,-86.4732 z m -64,-11.5062 c -0.46672,-27.3547 0.92829,-55.1828 -0.68818,-82.2451 -49.836,-91.9394 -100.23467,-183.6037 -149.53832,-275.8081 18.1723,0.1775 36.3446,0.3551 54.5169,0.5326 47.83419,91.3334 95.66843,182.6667 143.5027,274 -4.09139,10.8152 -0.66794,23.506 -1.7931,35.0615 0,43.1462 0,86.2923 0,129.4385 -15.33333,0 -30.66667,0 -46,0 0,-26.9931 0,-53.9863 0,-80.9794 z m 731,-139.0206 c 0,-79 0,-158 0,-237 -27.3333,0 -54.6667,0 -82,0 0,158 0,316 0,474 27.3333,0 54.6667,0 82,0 0,-79 0,-158 0,-237 z m -64,0.5 c 0,-73.1667 0,-146.3333 0,-219.5 15.3333,0 30.6667,0 46,0 0,146.3333 0,292.6667 0,439 -15.3333,0 -30.6667,0 -46,0 0,-73.1667 0,-146.3333 0,-219.5 z m 163.5,235.4982 c 52.4017,-1.2848 105.7145,-15.874 146.419,-50.1878 30.0321,-23.7973 53.6583,-55.5669 67.8898,-91.1782 13.4771,-33.1907 18.8554,-69.4861 17.4134,-105.1973 -1.5245,-57.8123 -25.6111,-114.3107 -65.7998,-155.8726 -36.1164,-39.5697 -88.0875,-62.1246 -141.078,-67.0694 -33.2774,-4.2025 -66.8938,-2.6223 -100.3444,-3.8173 0,26.4415 0,52.8829 0,79.3244 40.8783,0.4697 82.7552,-2.0876 122.5266,8.7889 15.8975,4.8296 29.9023,13.3016 43.271,22.9982 17.9602,15.8823 33.1608,34.8626 41.9675,57.4576 19.5649,47.1162 17.1778,102.1983 -2.7236,148.7674 -20.3517,46.0457 -68.7083,72.0993 -116.9797,77.6835 -29.222,3.5391 -58.6965,1.966 -88.0618,2.2991 0,25.6667 0,51.3333 0,77 25.1591,-0.3677 50.3956,0.9015 75.5,-0.9965 z m -57.5,-36.7834 c 2.1593,-6.7738 -5.2911,-22.9484 5.761,-21.0229 41.5642,-0.5081 84.7835,-0.2274 123.2315,-18.3831 44.3293,-18.3792 76.6417,-60.3564 86.238,-107.1162 6.9396,-29.2605 7.5798,-59.888 2.6493,-89.4762 -10.4542,-66.0131 -63.4512,-126.8021 -131.6037,-134.8755 -28.5028,-4.437 -57.4978,-4.0855 -86.2761,-4.3413 0,-14.4294 0,-28.8587 0,-43.2881 60.6309,1.166 126.2025,0.9061 177.8473,37.2609 17.5493,11.0021 31.0997,27.1128 45.3316,41.8687 25.2735,32.0286 41.94,70.621 46.933,111.1749 2.16,17.9166 1.1028,36.3162 0.6575,54.3266 -4.2289,35.1133 -15.0172,69.6716 -34.7825,99.2284 -32.0806,49.1605 -86.0321,83.6038 -144.6315,90.3319 -30.2336,4.6217 -60.8895,3.6772 -91.3554,5.2077 0,-6.965 0,-13.9321 0,-20.8958 z m 460,-199.2148 c 0,-79 0,-158 0,-237 -27.3333,0 -54.6667,0 -82,0 0,158 0,316 0,474 27.3333,0 54.6667,0 82,0 0,-79 0,-158 0,-237 z m -64,0.5 c 0,-73.1667 0,-146.3333 0,-219.5 15.3333,0 30.6667,0 46,0 0,146.3333 0,292.6667 0,439 -15.3333,0 -30.6667,0 -46,0 0,-73.1667 0,-146.3333 0,-219.5 z m 333.4435,233.75 c -38.4404,-57.5775 -76.98,-115.0886 -115.4746,-172.6299 31.8409,-8.8235 58.5661,-30.6542 76.7363,-57.8775 12.12,-18.3235 20.2542,-39.5497 22.7446,-61.4186 9.0141,-58.6334 -19.4769,-121.3014 -70.1914,-152.3127 -22.0648,-12.7636 -46.4719,-21.6043 -71.942,-23.9877 -28.6169,-2.9979 -57.5436,-2.8385 -86.3164,-3.0235 0,26.6667 0,53.3333 0,80 31.1469,0.7587 63.1148,-1.6855 93.5045,6.0143 32.8517,9.3546 52.8239,44.8584 49.6479,78.0127 -0.9256,30.8531 -28.356,55.0364 -57.4539,60.5645 -17.9054,3.9546 -36.6823,1.0619 -54.9485,2.1818 -15.0475,3.6801 -63.7238,-9.703 -37.7789,16.0754 50.8906,77.1247 102.0822,154.0503 153.0074,231.1522 33.4172,0 66.8343,0 100.2515,0 -0.5946,-0.9173 -1.1928,-1.8335 -1.7865,-2.751 z m -158.2665,-120 c -23.3552,-35.25 -46.7105,-70.5 -70.0657,-105.75 22.4893,-1.0844 45.2986,0.3152 67.5908,-2.2995 28.4511,-4.8365 56.1441,-20.9095 69.1894,-47.4374 12.5178,-24.6596 10.1593,-54.7099 -0.293,-79.6684 -10.8601,-21.588 -29.5736,-39.8475 -53.0578,-46.8271 -26.1497,-8.5446 -54.4622,-5.1744 -81.5407,-7.2672 0,-14.7515 0,-29.503 0,-44.2545 42.6797,1.3716 88.2349,-0.4275 126.256,21.9996 40.1323,21.7747 66.1073,66.7358 67.87,112.0249 -0.1165,16.8367 -1.1165,33.5447 -6.6307,49.5954 -7.9753,22.5225 -21.8714,42.9299 -40.4915,58.0265 -18.099,15.4722 -41.2829,23.7819 -64.8124,26.1625 0.2533,5.9024 9.4155,14.8802 13.1194,21.9738 32.852,49.8146 67.5572,98.8904 98.6892,149.4718 -18.5858,0 -37.1715,0 -55.7573,0 -23.3552,-35.2502 -46.7109,-70.5001 -70.0657,-105.7504 z m 371.823,-114.25 c 0,-79 0,-158 0,-237 -28,0 -56,0 -84,0 0,158 0,316 0,474 28,0 56,0 84,0 0,-79 0,-158 0,-237 z m -66,0.5 c 0,-73.1667 0,-146.3333 0,-219.5 16,0 32,0 48,0 0,146.3333 0,292.6667 0,439 -16,0 -32,0 -48,0 0,-73.1667 0,-146.3333 0,-219.5 z m 275,-0.5 c 0,-79 0,-158 0,-237 -27.3333,0 -54.6667,0 -82,0 0,158 0,316 0,474 27.3333,0 54.6667,0 82,0 0,-79 0,-158 0,-237 z m -64,0.5 c 0,-73.1667 0,-146.3333 0,-219.5 15.3333,0 30.6667,0 46,0 0,146.3333 0,292.6667 0,439 -15.3333,0 -30.6667,0 -46,0 0,-73.1667 0,-146.3333 0,-219.5 z m 372,-0.5 c 0,-79 0,-158 0,-237 -27.6667,0 -55.3333,0 -83,0 0,113.7557 0,227.5113 0,341.267 -66.7138,-102.1076 -132.7751,-204.6484 -200.25,-306.2535 -1.7532,11.4291 -0.2476,26.1785 -0.75,38.882 0,33.7032 0,67.4065 0,101.1097 66.5,99.6323 133,199.2646 199.5,298.8969 28.1667,0.033 56.3333,0.065 84.5,0.098 0,-79 0,-158.0001 0,-237.0001 z m -81.1878,209.25 c -61.6515,-92.1745 -123.2123,-184.4097 -184.8122,-276.6187 0,-24.9164 0,-49.8329 0,-74.7493 67.0372,99.7446 131.8871,201.3741 197.8686,302.0056 5.4033,9.3817 1.424,-12.8927 2.6599,-17.5715 0.1589,-120.4387 0.3178,-240.8774 0.4766,-361.3161 15.665,0 31.3299,0 46.9949,0 0,146.3333 0,292.6667 0,439 -18.6518,0 -37.3035,0 -55.9553,0 -2.4108,-3.5833 -4.8217,-7.1667 -7.2325,-10.75 z m 294.1878,-209.25 c 0,-79 0,-158 0,-237 -27.3333,0 -54.6667,0 -82,0 0,158 0,316 0,474 27.3333,0 54.6667,0 82,0 0,-79 0,-158 0,-237 z m -64,0.5 c 0,-73.1667 0,-146.3333 0,-219.5 15.3333,0 30.6667,0 46,0 0,146.3333 0,292.6667 0,439 -15.3333,0 -30.6667,0 -46,0 0,-73.1667 0,-146.3333 0,-219.5 z m 351.8724,234.8469 c -66.455,-80.3586 -132.8707,-160.7525 -198.8611,-241.4927 67.86,-77.0631 137.3135,-152.7187 204.9887,-229.9438 -7.7784,-2.1223 -19.5149,-0.2829 -28.8118,-0.8853 -24.8961,0.022 -49.7921,0.043 -74.6882,0.065 -55.3333,61.6714 -110.6666,123.3428 -166,185.0141 -0.9994,31.8992 0.4989,63.8861 0.7351,95.8213 53,64.3584 106,128.7168 158.9999,193.0752 35.0033,0 70.0066,0 105.0099,0 l -0.9202,-1.1084 -0.4523,-0.5447 0,-6e-4 z M 3076.2715,1481.521 c -24.9714,-30.3756 -49.9429,-60.7513 -74.9143,-91.1269 -0.6337,-27.5767 -1.7782,-55.163 -1,-82.7482 52,-57.9655 104,-115.931 156,-173.8965 18.5,-0.034 37,-0.068 55.5,-0.102 -50.2789,58.9356 -103.4485,116.3113 -155.1488,174.4313 -11.3042,12.5959 -22.6084,25.1919 -33.9126,37.7878 61.9354,75.5008 124.4015,150.568 186.0614,226.2938 -19.205,0.8478 -38.449,0.3545 -57.6713,0.4871 -24.9714,-30.3752 -49.9436,-60.7527 -74.9144,-91.1264 z m -4902.4143,-128.8731 c 0,-13.3333 0,-26.6667 0,-40 -57.6667,0 -115.3333,0 -173,0 0,26.6667 0,53.3333 0,80 57.6667,0 115.3333,0 173,0 0,-13.3333 0,-26.6667 0,-40 z m -155,0 c 2.23,-6.5439 -4.875,-22.4228 4.3218,-22 44.2261,0 88.4521,0 132.6782,0 0,14.6667 0,29.3333 0,44 -45.6667,0 -91.3333,0 -137,0 0,-7.3333 0,-14.6667 0,-22 z m 1155,0 c 0,-13.3333 0,-26.6667 0,-40 -57.66667,0 -115.33333,0 -173,0 0,26.6667 0,53.3333 0,80 57.66667,0 115.33333,0 173,0 0,-13.3333 0,-26.6667 0,-40 z m -155,0 c 2.23,-6.5439 -4.87496,-22.4228 4.32178,-22 44.22607,0 88.45215,0 132.67822,0 0,14.6667 0,29.3333 0,44 -45.66667,0 -91.33333,0 -137,0 0,-7.3333 0,-14.6667 0,-22 z M 666.6977,1248.8577 c 23.61892,-44.4176 48.74445,-88.3867 71.1595,-133.2296 -31.02747,0.1733 -62.05493,0.3465 -93.0824,0.5198 -31.82384,60.1561 -64.38061,119.9368 -95.3462,180.5377 8.39807,20.025 20.21105,39.2958 29.92554,59.0301 4.66782,8.9465 9.33564,17.893 14.00346,26.8395 25.3833,-43.9325 48.84161,-89.1947 73.3401,-133.6975 z m -85.5831,71.4315 c -3.33546,-8.206 -10.5018,-16.4251 -11.56486,-24.6233 28.69903,-53.8393 57.39811,-107.6787 86.09726,-161.518 17.4841,-0.1778 34.9682,-0.3557 52.4523,-0.5337 -36.53281,70.5702 -75.32424,140.1527 -113.8323,209.7271 -5.21004,-5.2415 -8.70501,-15.8927 -13.1524,-23.0521 z m -286.2574,-58.6578 c -18.97368,-36.0601 -41.99625,-71.0931 -74.16366,-96.7651 -24.72629,-20.1511 -53.24559,-35.7924 -83.8316,-45.0847 -27.39747,-8.962 -56.397809,-11.1313 -85.00474,-13.0363 0,26.2478 0,52.4956 0,78.7434 24.224606,2.4784 48.6267,5.6651 70.94637,15.8883 30.20533,12.9602 54.36798,36.6152 75.55363,61.2252 32.16667,0.015 64.33333,0.031 96.5,0.046 l 0,-1.0165 0,-3e-4 z m -96.75,-26.0217 c -32.90277,-36.4115 -78.56987,-63.1781 -128.25,-66.238 0,-14.6332 0,-29.2664 0,-43.8996 42.81553,3.4858 85.92801,15.1016 121.40447,40.0475 30.41924,19.6831 55.17336,47.6152 72.80953,79.1283 -19.238,-0.015 -38.476,-0.029 -57.714,-0.044 -2.74995,-2.9981 -5.50028,-5.996 -8.25,-8.9942 z m -2024.25,-79.9618 c 0,-13.3333 0,-26.6667 0,-40 -57.6667,0 -115.3333,0 -173,0 0,26.6667 0,53.3333 0,80 57.6667,0 115.3333,0 173,0 0,-13.3333 0,-26.6667 0,-40 z m -155,0 c 2.23,-6.5439 -4.875,-22.4228 4.3218,-22 44.2261,0 88.4521,0 132.6782,0 0,14.6667 0,29.3333 0,44 -45.6667,0 -91.3333,0 -137,0 0,-7.3333 0,-14.6667 0,-22 z m 1155,0 c 0,-13.3333 0,-26.6667 0,-40 -57.66667,0 -115.33333,0 -173,0 0,26.6667 0,53.3333 0,80 57.66667,0 115.33333,0 173,0 0,-13.3333 0,-26.6667 0,-40 z m -155,0 c 2.23,-6.5439 -4.87496,-22.4228 4.32178,-22 44.22607,0 88.45215,0 132.67822,0 0,14.6667 0,29.3333 0,44 -45.66667,0 -91.33333,0 -137,0 0,-7.3333 0,-14.6667 0,-22 z"
         id="path3002"
         style="fill:#fef200;fill-opacity:1" />
      <path
         d="m 8.3572,1829.5228 c -53.172361,-3.0769 -106.008211,-12.6536 -156.91809,-27.8749 -106.48797,0 -212.97594,0 -319.46391,0 -6.41201,-4.5467 -17.47318,-0.755 -25.72607,-2 -289.13064,0 -578.26133,0 -867.39193,0 0.057,8.5933 -15.2009,1.8717 -21.6089,4 -208.814,0 -417.628,0 -626.442,0 -49.8318,-14.1616 -99.835,-27.7724 -148.6006,-45.362 -15.3039,-5.3978 -31.7199,-8.6537 -43.7898,-20.2808 -26.3529,-19.3218 -52.7058,-38.6437 -79.0587,-57.9656 -0.1684,-124.3633 -0.3368,-248.7265 -0.5052,-373.0898 -168.1649,-74.3964 -336.3298,-148.7928 -504.4948,-223.1891 -0.1672,-419.05039 -0.3344,-838.10078 -0.5016,-1257.15117 199.97,0.34752 399.983,0.12547 599.9261,0.82882 110.1503,12.60524 213.4367,67.06174 289.5287,147.143716 11.8733,15.111471 24.6484,29.5846204 39.004,8.357114 112.2543,-91.13444 253.0948,-145.4053 397.3514,-154.17351 29.2412,-2.31452 58.7046,-1.33968 87.9943,-0.96228 170.7685,13.31598 332.3669,88.895786 464.97713,195.168646 8.78403,7.101093 17.39575,14.411133 26.07547,21.638484 90.59092,-88.037367 198.76099,-161.70297 322.27912,-193.676 65.88256,-17.94946 134.58753,-24.96686 202.76127,-23.65234 90.66349,1.41511 180.7089,22.80313 262.961015,60.78987 14.834752,6.29922 28.738137,14.546375 43.143095,21.7445 0,-27.7245 0,-55.44899 0,-83.17349 132.674867,0.16832 265.34973,0.33663 398.0246,0.50493 27.1798,56.36598 54.3596,112.731966 81.5394,169.09795 50.87793,-56.532652 101.75586,-113.0653 152.6338,-169.59795 172.9734,0 345.9468,0 518.9202,0 -0.5048,4.76251 14.5894,-1.04293 20.585,0.74134 29.115,-0.10829 58.2587,-0.73806 87.1173,3.80939 22.3517,3.1118 44.4277,8.25223 66.1797,14.26154 1.6554,-7.01636 -4.9561,-22.29961 7.203,-18.81228 360.2578,0 720.5157,0 1080.7735,0 0.1746,25.71148 0.3491,51.42297 0.5235,77.13445 74.9654,-93.71275 149.9308,-187.42547 224.8963,-281.13817 68.3305,159.22313 134.6373,319.530347 202.1587,479.18116 88.6483,-91.704993 177.2967,-183.409987 265.945,-275.11498 163.1375,0.32401 326.3124,0.1181 489.4266,0.7729 121.4435,14.88479 234.6446,78.443157 316.6485,168.3065191 67.2743,79.6190239 94.9557,185.3413009 100.41,287.5933009 3.3162,74.07104 -7.6594,149.38403 -36.4637,217.98281 -24.9052,57.40527 -61.8823,109.32306 -107.2457,152.42754 -7.8524,6.03917 -13.2915,12.28011 -3.6247,19.78407 49.0363,68.87311 96.4159,139.00912 147.9419,206.04249 35.1171,42.09763 70.9957,83.55081 106.5985,125.23653 -150.627,89.1134 -301.4038,178.1996 -452.784,266.1146 -17.2308,8.5835 -33.1371,22.529 -53.2804,22.4681 -69.9602,1.3201 -140.0409,0.7591 -210.0475,1.356 -24.4517,28.2352 -49.486,55.9833 -73.2545,84.7969 62.3341,79.553 126.45,158.0451 187.675,238.2525 -50,61.8941 -100,123.7883 -150,185.6825 -251.0333,0.04 -502.0667,0.08 -753.1,0.12 -7.2632,-4.4488 -17.87,-0.8289 -26.4888,-2.0064 -521.4492,-0.1646 -1042.8984,-0.3291 -1564.3476,-0.4936 -10.01261,-22.3547 -20.02518,-44.7094 -30.0377,-67.0642 -16.42334,4.1398 -34.14595,7.4793 -38.54199,26.8762 -7.54487,13.4017 -15.11015,26.792 -22.66521,40.188 -187.43957,0.1679 -374.87913,0.3357 -562.3187,0.5035 3.38256,-25.4041 -31.27712,3.0753 -46.39651,2.2279 -73.75822,19.3959 -150.27389,28.7666 -226.536647,26.5815 -13.199225,-0.1303 -26.405676,0.277 -39.566843,-0.9372 z m 106,-78.3608 c 93.47585,-6.5119 188.07025,-28.2529 268.7178,-77.5141 8.79701,-0.1749 19.81352,-2.5693 15.7822,10.0841 0,13.3053 0,26.6106 0,39.9159 146.1702,0 292.3404,0 438.5106,0 18.76844,-32.689 31.69451,-69.7766 57.65484,-97.7414 9.40531,-8.6453 23.01567,-3.2694 34.5754,-4.7311 18.06209,0.018 36.12417,0.036 54.18626,0.054 13.0673,12.763 15.95388,32.7468 22.8659,49.0945 6.0552,17.8499 9.8862,36.4873 18.6222,53.3227 152.1853,-0.1183 304.3999,0.2367 456.5669,-0.1775 33.8535,-2.3585 62.6809,-23.372 90.528,-40.8225 0.8475,13.6408 0.3607,27.335 0.4899,41 90.6667,0 181.3333,0 272,0 0,-9.4914 0,-18.9827 0,-28.4741 10.1268,9.1573 19.138,21.0111 29.9656,28.4741 237.3178,0 474.6357,0 711.9535,0 0.3024,-8.8876 -1.0835,-22.8136 6.9354,-8.6685 4.7163,7.7646 10.5382,13.2085 20.1702,10.6535 151.9918,0.01 303.9835,0.013 455.9753,0.019 0,-8.6872 0,-17.3744 0,-26.0616 7.8333,8.6811 15.6667,17.3621 23.5,26.0432 62.466,0.01 124.9319,0.013 187.3979,0.02 29.4392,-36.2935 58.6887,-72.7445 88.3102,-108.8874 -63.2671,-79.9837 -127.0241,-159.5854 -189.7081,-240.026 45.8911,-53.9215 92.8981,-106.8888 139.3893,-160.2953 79.2036,-0.097 158.4071,-0.1941 237.6107,-0.2913 129.2431,-73.7658 256.19,-151.5238 385.6311,-224.92266 23.2973,-5.17662 -5.2359,-21.85842 -10.1468,-33.14981 -78.8144,-100.54718 -153.4041,-204.35691 -228.2454,-307.87334 9.5421,-10.10338 24.1571,-18.31917 34.7938,-28.55006 78.1108,-64.06328 133.5031,-157.42926 143.5999,-258.74833 9.7412,-82.8893 -0.6977,-168.81982 -33.8977,-245.62779 C 3832.48,81.997914 3809.9238,49.853309 3781.2493,24.012379 3714.4175,-37.92859 3629.7486,-84.209038 3538.3572,-94.84681 c -149.6537,0 -299.3074,0 -448.9611,0 -107.4091,110.999974 -214.8181,221.99997 -322.2271,333 -8.3329,1.15039 -7.6361,-13.78124 -12.2002,-19.34307 -62.3817,-147.938386 -124.1992,-296.117809 -187.278,-443.75978 -7.5652,6.09878 -14.2431,17.32902 -21.4677,25.39747 -86.9568,108.691222 -173.9117,217.38394 -260.8659,326.0772 -0.1695,-73.95904 -0.3391,-147.91808 -0.5087,-221.87712 -310.3304,0 -620.6609,0 -930.9913,0 0,24.059823 0,48.119647 0,72.17947 -53.9618,-47.506623 -125.7988,-69.98763 -196.8146,-71.456037 -72.5049,-2.697703 -146.4022,12.083788 -210.35882,47.019819 -6.46994,-3.734 16.98623,-33.366369 22.20712,-47.743252 -117.33783,0 -234.67567,0 -352.0135,0 -69.1094,76.773293 -138.21884,153.546559 -207.3283,230.3198 -37.24184,-76.656771 -74.003,-153.547716 -111.0078,-230.3198 -89.8906,0 -179.7812,0 -269.6718,0 C 28.698786,-44.01536 28.528019,7.3213902 28.3572,58.65814 3.0081481,38.015026 -22.878289,18.110821 -50.625147,0.76471621 -72.554346,-13.767293 -95.998721,-26.092829 -119.54367,-37.765017 c -25.98483,-12.283015 -52.63146,-22.86889 -80.11072,-31.319574 -23.4218,-7.252961 -47.49002,-12.898967 -71.58833,-17.357202 -29.6737,-5.088411 -59.60663,-7.460662 -89.68062,-8.354994 -57.4328,-0.931817 -115.15692,4.986531 -170.84257,19.400082 -102.26871,25.418302 -193.68799,82.9937395 -271.02654,153.408715 -27.14356,23.60943 -51.37903,50.30786 -77.16125,75.36332 -117.04548,-118.935735 -267.7917,-208.6337 -432.8265,-239.613973 -64.5875,-12.14686 -131,-10.66278 -195.8102,-1.334601 -121.5922,17.333442 -236.5362,73.128138 -327.9096,154.916108 -17.3131,14.340617 -32.0001,31.531857 -49.0007,46.216396 -22.4226,-34.083463 -47.6846,-66.365754 -77.6962,-94.090025 -37.6852,-37.73313 -83.8014,-66.740398 -132.8132,-87.482782 -47.8059,-20.073993 -99.8497,-29.620448 -151.6475,-27.337013 -153.4957,-5.11e-4 -306.9913,-0.001 -460.487,-0.0015 0.1673,376.05077 0.3345,752.10154 0.5018,1128.15236 147.2778,65.2826 294.5555,130.5652 441.8333,195.8477 20.8889,0 41.7778,0 62.6667,0 0.01,137.1667 0.013,274.3333 0.02,411.5 38.8265,28.4929 77.6531,56.9859 116.4796,85.4788 215.8333,0.01 431.6667,0.015 647.5,0.022 0,-8.7563 0,-17.5126 0,-26.2689 8.3052,7.0216 15.4462,16.9184 24.4281,22.2689 313.5014,0 627.0028,0 940.50421,0 1.95654,-4.8404 -3.28553,-24.3594 4.05576,-18.2193 9.75565,6.3884 18.73124,15.1629 28.95253,20.127 86.68647,0.031 173.37294,0.061 260.05941,0.091 2.0934,-5.8798 -5.2502,-26.5533 6.02871,-18.4918 77.088958,39.7611 165.8727975,48.4165 251.376975,47.3639 12.747296,0.4354 25.394835,-0.3191 38.094705,-1.358 z m -86,-27.1616 c -71.64185,-3.4669 -145.6426,-15.8035 -207.32606,-54.3167 -10.16586,-0.4221 -32.10898,-35.7678 -30.17394,-15.6215 0,13.5285 0,27.0571 0,40.5857 -75.16667,-0.032 -150.33333,-0.064 -225.5,-0.096 -22.33333,-16.1713 -44.66667,-32.3427 -67,-48.514 -0.17873,15.5368 -0.35747,31.0735 -0.5362,46.6103 -301.1546,-0.035 -602.3092,-0.069 -903.4638,-0.104 -20.3333,-19.6284 -40.6667,-39.2568 -61,-58.8852 -0.176,21.3299 -0.3519,42.6598 -0.5277,63.9897 -203.2491,0 -406.4982,0 -609.7473,0 -32.5752,-23.8905 -65.1502,-47.7812 -97.725,-71.6722 -0.1682,-141.7762 -0.3364,-283.5524 -0.5046,-425.3286 -28.5313,-0.3972 -57.3969,0.7845 -85.7226,-0.5838 -139.7576,-61.9531 -279.5152,-123.9061 -419.2728,-185.8591 0,-360.51904 0,-721.03807 0,-1081.55711 153.6,0.210172 307.229,-0.395597 460.8109,0.324024 88.7018,4.279891 173.1719,46.4143 236.8308,107.176525 36.6896,34.66668 66.7285,75.712351 91.9192,119.315741 38.25,-38.12569 75.5015,-77.62343 119.8613,-108.930233 73.1486,-54.2339694 158.7915,-91.597487 248.5643,-107.023176 40.8546,-7.930765 82.6172,-10.073961 124.1511,-10.041471 125.4615,3.135898 246.1349,51.963569 350.8022,118.870966 56.53635,37.000643 109.33567,80.023484 155.29366,129.620534 6.11939,4.91085 12.27621,18.75982 18.32338,6.42891 66.38527,-71.10514 137.51994,-139.729131 223.59284,-186.6558545 74.49954,-41.1231635 158.79776,-63.4232695 243.66441,-67.3786625 52.62646,-2.681378 105.71293,0.08683 157.12899,12.443673 114.30826,25.116167 217.143177,89.425274 300.25916,170.622184 9.293637,12.60643 4.775441,-6.74303 5.79776,-13.27362 0,-57.16939 0,-114.33878 0,-171.50817 74.712,0.16954 149.424,0.33908 224.136,0.50862 38.27321,79.333313 76.54638,158.666646 114.8195,238 8.04239,-1.00587 18.78786,4.30712 23.36258,-4.80492 C 489.23592,88.484637 559.29656,10.626319 629.3572,-67.232 c 97.238,-0.04007 194.476,-0.08013 291.714,-0.1202 -14.9763,29.576047 -32.10525,58.0724481 -47.1938,87.61312 6.7086,10.049333 14.75246,21.101341 22.70364,6.499604 48.11691,-50.941663 116.72796,-78.988602 185.21236,-89.067161 79.3724,-11.388747 165.4043,-2.189181 232.5408,44.857038 27.2997,18.4861139 50.5296,43.007944 67.023,71.597399 0.1718,-40.5 0.3436,-81 0.5155,-121.5 291.6615,0 583.323,0 874.9845,0 0,91.39087 0,182.78174 0,274.17261 100.9778,-126.050494 201.5916,-252.394576 303,-378.09852 62.1042,145.55508 123.0485,291.60398 184.5247,437.42591 11.6125,-0.51664 24.3947,1.78951 35.2773,-0.48865 107.465,-111.00373 214.93,-222.007486 322.395,-333.01126 139.8689,0.200284 279.7619,-0.344179 419.6157,0.320557 73.9959,2.358506 143.4974,36.685938 202.2341,79.759458 39.7235,29.273652 76.1649,65.39476 96.2852,111.171805 25.115,52.72038 35.4808,111.81219 36.7616,169.89013 -0.2754,33.97845 -0.6379,68.10096 -9.1433,101.29274 -19.684,98.30679 -86.9356,180.68501 -168.3431,236.23251 -27.6185,9.30639 -2.9362,27.97267 6.1674,42.17056 72.3823,98.09021 143.792,196.96605 219.0178,292.90675 16.9734,16.45651 -26.5477,22.51921 -36.39,34.2798 -106.2197,62.6295 -212.3928,125.3398 -318.9024,187.4757 -81.1184,0 -162.2369,0 -243.3553,0 -54.681,62.5568 -109.362,125.1136 -164.043,187.6704 63.6525,80.2168 127.2213,160.5001 190.8882,240.7055 -21.83,27.0077 -43.66,54.0154 -65.4899,81.0231 -53.686,0.034 -107.372,0.068 -161.058,0.101 -21.314,-23.4385 -42.628,-46.8771 -63.942,-70.3156 -0.1752,23.4385 -0.3504,46.8771 -0.5256,70.3156 -141.9071,0 -283.8141,0 -425.7212,0 -19.2511,-23.492 -38.5021,-46.984 -57.7532,-70.476 -0.1755,22.492 -0.3511,44.984 -0.5266,67.476 -224.4875,0 -448.975,0 -673.4625,0 -22.5037,-22.4963 -45.0073,-44.9926 -67.5109,-67.489 0,22.4963 0,44.9927 0,67.489 -72,0 -144,0 -216,0 0,-23.3587 0,-46.7173 0,-70.076 -32.5865,27.6381 -66.255,57.276 -107.9406,69.5774 -149.8531,0.1414 -299.7063,0.2828 -449.5594,0.4242 -16.2159,-30.4637 -28.467,-63.4045 -48.98755,-91.2997 -5.23979,-7.766 -12.39767,-11.4931 -21.82136,-10.4489 -24.3728,-0.6066 -48.79785,0.3271 -73.19109,0.323 -29.36717,19.2648 -46.50498,51.8468 -65.53156,80.4413 -7.14142,6.9133 -7.85209,24.9074 -21.11199,21.0169 -128.28549,0.014 -256.57097,0.027 -384.85645,0.041 0,-16.6667 0,-33.3333 0,-50 -17.86203,0.5506 -36.3761,-1.0763 -53.84359,0.7918 -58.89768,38.9028 -128.12691,59.114 -197.18965,70.5634 -49.14786,7.8209 -98.800759,9.9865 -148.46676,7.998 z m 48.5,-126.9132 c 89.32092,-6.0493 174.23104,-63.309 210.067,-145.8414 15.30711,-33.7728 20.15978,-70.9157 21.9447,-107.5979 -110.33723,0 -220.674467,0 -331.0117,0 0,25.3333 0,50.6667 0,76 76.673367,0 153.34673,0 230.0201,0 -17.00219,39.9976 -51.17331,70.8861 -90.86855,87.4882 -20.684431,8.4948 -42.968393,11.7851 -65.15155,13.671 0,26.1984 0,52.3967 0,78.5951 8.338198,-0.7179 16.667974,-1.5296 25,-2.315 z m -7,-38.7794 c 2.116623,-7.2283 -5.189491,-22.4959 5.690486,-22.2474 34.975754,-3.9689 68.639584,-18.4193 95.882024,-40.5982 19.9545,-16.3968 37.29435,-36.1951 48.22234,-59.7576 6.33806,-10.4929 8.77086,-22.6941 13.12075,-34.0567 -78.97187,0 -157.943733,0 -236.9156,0 0,-13.3333 0,-26.6667 0,-40 98.052967,0 196.10593,0 294.1589,0 -3.47483,46.247 -17.88216,92.5007 -47.60709,128.8241 -41.15031,52.8067 -105.72523,86.0829 -172.55181,89.1759 0,-7.1134 0,-14.2267 0,-21.3401 z m -42.2385,0.6643 c -0.08717,-13.2253 -0.174333,-26.4505 -0.2615,-39.6758 -33.2841827,-5.4245 -66.318868,-17.4285 -91.6688,-40.2426 -37.01764,-29.3503 -58.80864,-75.3149 -59.52052,-122.2853 -1.64088,-37.395 10.80896,-75.1159 34.312523,-104.2421 26.376106,-31.8779 63.1558,-55.545 104.208438,-62.8438 13.492866,1.3637 14.113849,-7.6984 12.77251,-18.4722 0.139592,-21.2421 0.279279,-42.4843 0.418949,-63.7264 -47.308893,5.7258 -94.562874,19.4577 -133.27571,48.2481 -52.02087,37.8276 -91.9158,94.8818 -101.11459,159.3346 -3.78488,20.5425 -1.42061,41.7212 -1.80024,62.506 4.91609,43.4619 19.79861,86.0473 47.08098,120.6457 37.22986,48.8231 92.325791,84.55 153.0974897,95.109 11.0476537,-1.44 40.4744733,15.9652 35.9455333,-4.7628 -0.06505,-9.8641 -0.129848,-19.7283 -0.195063,-29.5924 z m -28.2615,17.6812 c -50.39827,-8.2668 -97.403758,-34.3397 -131.73402,-72.0424 -34.66419,-36.3278 -55.64576,-85.5864 -58.19708,-135.666 -0.1688,-25.5367 -1.4681,-51.4004 7.22101,-75.9578 20.31253,-72.0129 79.71993,-130.2721 149.889313,-154.179 11.732143,0.2165 40.9986693,-19.0338 43.320377,-4.3978 0,12.5851 0,25.1703 0,37.7554 -28.734533,6.209 -56.518101,18.0164 -79.528894,36.4606 -44.767646,33.9643 -74.871386,89.0536 -71.637056,145.9028 -1.09289,54.8853 26.32475,108.9862 69.960644,141.9936 23.302203,19.2166 51.783417,31.2155 81.205606,37.4394 -0.065544,14.8592 0.180555,29.7254 -0.25,44.5787 -3.4072119,-0.6796 -6.8316327,-1.269 -10.2499,-1.8875 z m -2022.5,-224.0054 c 0,-79 0,-158 0,-237 -28,0 -56,0 -84,0 0,158 0,316 0,474 28,0 56,0 84,0 0,-79 0,-158 0,-237 z m -65,0.5 c 0,-73.1667 0,-146.3333 0,-219.5 15.6667,0 31.3333,0 47,0 0,146.3333 0,292.6667 0,439 -15.6667,0 -31.3333,0 -47,0 0,-73.1667 0,-146.3333 0,-219.5 z m 262,197.5 c 0,-13 0,-26 0,-39 -57.6667,0 -115.3333,0 -173,0 0,26 0,52 0,78 57.6667,0 115.3333,0 173,0 0,-13 0,-26 0,-39 z m -155,0.5 c 2.1394,-6.9481 -5.2445,-23.4194 5.7624,-21.5 43.7458,0 87.4917,0 131.2376,0 0,14.3333 0,28.6667 0,43 -45.6667,0 -91.3333,0 -137,0 0,-7.1667 0,-14.3333 0,-21.5 z m 406,-198.5 c 0,-79 0,-158 0,-237 -27.3333,0 -54.6667,0 -82,0 0,158 0,316 0,474 27.3333,0 54.6667,0 82,0 0,-79 0,-158 0,-237 z m -64,0.5 c 0,-73.1667 0,-146.3333 0,-219.5 15.3333,0 30.6667,0 46,0 0,146.3333 0,292.6667 0,439 -15.3333,0 -30.6667,0 -46,0 0,-73.1667 0,-146.3333 0,-219.5 z m 372,-0.5 c 0,-79 0,-158 0,-237 -27.6648,0 -55.3295,0 -82.9943,0 -0.1685,113.5836 -0.3371,227.1671 -0.5057,340.7507 -66.5459,-101.9263 -132.4647,-204.2685 -199.75,-305.7071 -1.7535,10.8762 -0.2474,25.2088 -0.75,37.4114 0,34.2256 0,68.4511 0,102.6767 66.5,99.618 133,199.236 199.5,298.854 28.1667,0.01 56.3333,0.013 84.5,0.02 0,-79.0019 0,-158.0038 0,-237.0057 z m -170.25,76.2642 c -31.9167,-47.8889 -63.8333,-95.7778 -95.75,-143.6667 0,-25.0087 0,-50.0174 0,-75.0261 67.7202,101.5678 133.6435,204.4442 200.5,306.6344 0.1684,-127.7353 0.3368,-255.4705 0.5051,-383.2058 15.665,0 31.3299,0 46.9949,0 0,146.3333 0,292.6667 0,439 -18.8333,-0.023 -37.6667,-0.045 -56.5,-0.068 -31.9165,-47.8893 -63.8344,-95.7782 -95.75,-143.6678 z m 414.25,-76.2642 c 0,-79 0,-158 0,-237 -28,0 -56,0 -84,0 0,158 0,316 0,474 28,0 56,0 84,0 0,-79 0,-158 0,-237 z m -66,0.5 c 0,-73.1667 0,-146.3333 0,-219.5 16,0 32,0 48,0 0,146.3333 0,292.6667 0,439 -16,0 -32,0 -48,0 0,-73.1667 0,-146.3333 0,-219.5 z m 263,197.5 c 0,-13 0,-26 0,-39 -57.66667,0 -115.33333,0 -173,0 0,26 0,52 0,78 57.66667,0 115.33333,0 173,0 0,-13 0,-26 0,-39 z m -155,0.5 c 2.1394,-6.9481 -5.24452,-23.4194 5.76237,-21.5 43.74588,0 87.49175,0 131.23763,0 0,14.3333 0,28.6667 0,43 -45.66667,0 -91.33333,0 -137,0 0,-7.1667 0,-14.3333 0,-21.5 z m 406,-198.5 c 0,-79 0,-158 0,-237 -27.33333,0 -54.66667,0 -82,0 0,158 0,316 0,474 27.33333,0 54.66667,0 82,0 0,-79 0,-158 0,-237 z m -64,0.5 c 0,-73.1667 0,-146.3333 0,-219.5 15.33333,0 30.66667,0 46,0 0,146.3333 0,292.6667 0,439 -15.33333,0 -30.66667,0 -46,0 0,-73.1667 0,-146.3333 0,-219.5 z m 334,235.9131 c -38.21926,-58.7122 -78.35399,-116.2686 -116.1338,-175.2043 39.3057,-10.6542 71.27057,-41.3793 87.62997,-78.1883 9.84933,-20.2365 12.54481,-43.1226 13.01288,-65.394 -0.74594,-57.5208 -36.12778,-113.7059 -89.16108,-136.841 -33.80166,-15.7285 -71.84079,-17.2856 -108.59797,-17.431 -10.91667,-0.2254 -21.83333,-0.4507 -32.75,-0.6761 0,26.7739 0,53.5477 0,80.3216 34.69636,1.0403 71.04418,-2.8746 103.99091,9.8233 21.17265,11.1087 36.48886,32.801 39.24137,56.5586 0.52976,15.1641 1.40167,31.2674 -7.66068,44.3597 -14.76709,25.7331 -46.14818,37.6476 -74.79787,35.7977 -25.90441,0.3206 -51.80882,0.6411 -77.71323,0.9616 54.47989,82.1621 108.95973,164.3243 163.4395,246.4865 33.15593,-0.3914 66.3598,0.8053 99.5,-0.5743 z m -159,-121.4943 c -23.3363,-35.5525 -47.23632,-70.8085 -70.0735,-106.6392 22.54757,-1.0446 45.42897,0.4774 67.77031,-2.1527 28.71568,-5.0215 56.5255,-21.8058 69.44007,-48.6273 11.59712,-25.3273 9.75731,-56.0175 -2.60507,-80.7135 -11.25058,-21.6229 -30.69598,-39.3328 -54.55956,-45.5996 -25.68571,-6.8741 -52.69493,-4.2254 -78.97225,-6.4904 0,-14.647 0,-29.2939 0,-43.9409 41.45701,1.5842 85.66532,-0.8639 123,20.073 50.94353,25.557 79.09064,86.1243 70.0579,141.7205 -4.37173,29.6877 -19.72734,57.3683 -42.35341,77.0942 -14.52263,13.0866 -32.71941,22.3467 -51.89457,26.2002 -16.05993,-0.6832 -19.14613,6.2338 -8.09692,17.0248 34.72826,52.378 70.49511,104.3326 104.287,157.1321 -18.83333,-0.015 -37.66667,-0.029 -56.5,-0.044 -23.16665,-35.0123 -46.33344,-70.0252 -69.5,-105.0372 z m 1040,35.608 c 0.42723,-29.2063 -0.84955,-58.8047 0.62953,-87.7691 7.14587,-7.6848 -1.364,-15.1294 -4.4584,-22.657 -48.34546,-92.2003 -96.6909,-184.4005 -145.03633,-276.6007 -31.78543,-0.1732 -63.57087,-0.3464 -95.3563,-0.5195 53.44945,100.0769 108.16393,199.5304 162.2215,299.3047 0,58.2383 0,116.4765 0,174.7148 27.33333,0 54.66667,0 82,0 0,-28.8244 0,-57.6488 0,-86.4732 z m -64,-11.5062 c -0.46672,-27.3547 0.92829,-55.1828 -0.68818,-82.2451 -49.836,-91.9394 -100.23467,-183.6037 -149.53832,-275.8081 18.1723,0.1775 36.3446,0.3551 54.5169,0.5326 47.83419,91.3334 95.66843,182.6667 143.5027,274 -4.09139,10.8152 -0.66794,23.506 -1.7931,35.0615 0,43.1462 0,86.2923 0,129.4385 -15.33333,0 -30.66667,0 -46,0 0,-26.9931 0,-53.9863 0,-80.9794 z m 731,-139.0206 c 0,-79 0,-158 0,-237 -27.3333,0 -54.6667,0 -82,0 0,158 0,316 0,474 27.3333,0 54.6667,0 82,0 0,-79 0,-158 0,-237 z m -64,0.5 c 0,-73.1667 0,-146.3333 0,-219.5 15.3333,0 30.6667,0 46,0 0,146.3333 0,292.6667 0,439 -15.3333,0 -30.6667,0 -46,0 0,-73.1667 0,-146.3333 0,-219.5 z m 163.5,235.4982 c 52.4017,-1.2848 105.7145,-15.874 146.419,-50.1878 30.0321,-23.7973 53.6583,-55.5669 67.8898,-91.1782 13.4771,-33.1907 18.8554,-69.4861 17.4134,-105.1973 -1.5245,-57.8123 -25.6111,-114.3107 -65.7998,-155.8726 -36.1164,-39.5697 -88.0875,-62.1246 -141.078,-67.0694 -33.2774,-4.2025 -66.8938,-2.6223 -100.3444,-3.8173 0,26.4415 0,52.8829 0,79.3244 40.8783,0.4697 82.7552,-2.0876 122.5266,8.7889 15.8975,4.8296 29.9023,13.3016 43.271,22.9982 17.9602,15.8823 33.1608,34.8626 41.9675,57.4576 19.5649,47.1162 17.1778,102.1983 -2.7236,148.7674 -20.3517,46.0457 -68.7083,72.0993 -116.9797,77.6835 -29.222,3.5391 -58.6965,1.966 -88.0618,2.2991 0,25.6667 0,51.3333 0,77 25.1591,-0.3677 50.3956,0.9015 75.5,-0.9965 z m -57.5,-36.7834 c 2.1593,-6.7738 -5.2911,-22.9484 5.761,-21.0229 41.5642,-0.5081 84.7835,-0.2274 123.2315,-18.3831 44.3293,-18.3792 76.6417,-60.3564 86.238,-107.1162 6.9396,-29.2605 7.5798,-59.888 2.6493,-89.4762 -10.4542,-66.0131 -63.4512,-126.8021 -131.6037,-134.8755 -28.5028,-4.437 -57.4978,-4.0855 -86.2761,-4.3413 0,-14.4294 0,-28.8587 0,-43.2881 60.6309,1.166 126.2025,0.9061 177.8473,37.2609 17.5493,11.0021 31.0997,27.1128 45.3316,41.8687 25.2735,32.0286 41.94,70.621 46.933,111.1749 2.16,17.9166 1.1028,36.3162 0.6575,54.3266 -4.2289,35.1133 -15.0172,69.6716 -34.7825,99.2284 -32.0806,49.1605 -86.0321,83.6038 -144.6315,90.3319 -30.2336,4.6217 -60.8895,3.6772 -91.3554,5.2077 0,-6.965 0,-13.9321 0,-20.8958 z m 460,-199.2148 c 0,-79 0,-158 0,-237 -27.3333,0 -54.6667,0 -82,0 0,158 0,316 0,474 27.3333,0 54.6667,0 82,0 0,-79 0,-158 0,-237 z m -64,0.5 c 0,-73.1667 0,-146.3333 0,-219.5 15.3333,0 30.6667,0 46,0 0,146.3333 0,292.6667 0,439 -15.3333,0 -30.6667,0 -46,0 0,-73.1667 0,-146.3333 0,-219.5 z m 333.4435,233.75 c -38.4404,-57.5775 -76.98,-115.0886 -115.4746,-172.6299 31.8409,-8.8235 58.5661,-30.6542 76.7363,-57.8775 12.12,-18.3235 20.2542,-39.5497 22.7446,-61.4186 9.0141,-58.6334 -19.4769,-121.3014 -70.1914,-152.3127 -22.0648,-12.7636 -46.4719,-21.6043 -71.942,-23.9877 -28.6169,-2.9979 -57.5436,-2.8385 -86.3164,-3.0235 0,26.6667 0,53.3333 0,80 31.1469,0.7587 63.1148,-1.6855 93.5045,6.0143 32.8517,9.3546 52.8239,44.8584 49.6479,78.0127 -0.9256,30.8531 -28.356,55.0364 -57.4539,60.5645 -17.9054,3.9546 -36.6823,1.0619 -54.9485,2.1818 -15.0475,3.6801 -63.7238,-9.703 -37.7789,16.0754 50.8906,77.1247 102.0822,154.0503 153.0074,231.1522 33.4172,0 66.8343,0 100.2515,0 -0.5946,-0.9173 -1.1928,-1.8335 -1.7865,-2.751 z m -158.2665,-120 c -23.3552,-35.25 -46.7105,-70.5 -70.0657,-105.75 22.4893,-1.0844 45.2986,0.3152 67.5908,-2.2995 28.4511,-4.8365 56.1441,-20.9095 69.1894,-47.4374 12.5178,-24.6596 10.1593,-54.7099 -0.293,-79.6684 -10.8601,-21.588 -29.5736,-39.8475 -53.0578,-46.8271 -26.1497,-8.5446 -54.4622,-5.1744 -81.5407,-7.2672 0,-14.7515 0,-29.503 0,-44.2545 42.6797,1.3716 88.2349,-0.4275 126.256,21.9996 40.1323,21.7747 66.1073,66.7358 67.87,112.0249 -0.1165,16.8367 -1.1165,33.5447 -6.6307,49.5954 -7.9753,22.5225 -21.8714,42.9299 -40.4915,58.0265 -18.099,15.4722 -41.2829,23.7819 -64.8124,26.1625 0.2533,5.9024 9.4155,14.8802 13.1194,21.9738 32.852,49.8146 67.5572,98.8904 98.6892,149.4718 -18.5858,0 -37.1715,0 -55.7573,0 -23.3552,-35.2502 -46.7109,-70.5001 -70.0657,-105.7504 z m 371.823,-114.25 c 0,-79 0,-158 0,-237 -28,0 -56,0 -84,0 0,158 0,316 0,474 28,0 56,0 84,0 0,-79 0,-158 0,-237 z m -66,0.5 c 0,-73.1667 0,-146.3333 0,-219.5 16,0 32,0 48,0 0,146.3333 0,292.6667 0,439 -16,0 -32,0 -48,0 0,-73.1667 0,-146.3333 0,-219.5 z m 275,-0.5 c 0,-79 0,-158 0,-237 -27.3333,0 -54.6667,0 -82,0 0,158 0,316 0,474 27.3333,0 54.6667,0 82,0 0,-79 0,-158 0,-237 z m -64,0.5 c 0,-73.1667 0,-146.3333 0,-219.5 15.3333,0 30.6667,0 46,0 0,146.3333 0,292.6667 0,439 -15.3333,0 -30.6667,0 -46,0 0,-73.1667 0,-146.3333 0,-219.5 z m 372,-0.5 c 0,-79 0,-158 0,-237 -27.6667,0 -55.3333,0 -83,0 0,113.7557 0,227.5113 0,341.267 -66.7138,-102.1076 -132.7751,-204.6484 -200.25,-306.2535 -1.7532,11.4291 -0.2476,26.1785 -0.75,38.882 0,33.7032 0,67.4065 0,101.1097 66.5,99.6323 133,199.2646 199.5,298.8969 28.1667,0.033 56.3333,0.065 84.5,0.098 0,-79 0,-158.0001 0,-237.0001 z m -81.1878,209.25 c -61.6515,-92.1745 -123.2123,-184.4097 -184.8122,-276.6187 0,-24.9164 0,-49.8329 0,-74.7493 67.0372,99.7446 131.8871,201.3741 197.8686,302.0056 5.4033,9.3817 1.424,-12.8927 2.6599,-17.5715 0.1589,-120.4387 0.3178,-240.8774 0.4766,-361.3161 15.665,0 31.3299,0 46.9949,0 0,146.3333 0,292.6667 0,439 -18.6518,0 -37.3035,0 -55.9553,0 -2.4108,-3.5833 -4.8217,-7.1667 -7.2325,-10.75 z m 294.1878,-209.25 c 0,-79 0,-158 0,-237 -27.3333,0 -54.6667,0 -82,0 0,158 0,316 0,474 27.3333,0 54.6667,0 82,0 0,-79 0,-158 0,-237 z m -64,0.5 c 0,-73.1667 0,-146.3333 0,-219.5 15.3333,0 30.6667,0 46,0 0,146.3333 0,292.6667 0,439 -15.3333,0 -30.6667,0 -46,0 0,-73.1667 0,-146.3333 0,-219.5 z m 351.8724,234.8469 c -66.455,-80.3586 -132.8707,-160.7525 -198.8611,-241.4927 67.86,-77.0631 137.3135,-152.7187 204.9887,-229.9438 -7.7784,-2.1223 -19.5149,-0.2829 -28.8118,-0.8853 -24.8961,0.022 -49.7921,0.043 -74.6882,0.065 -55.3333,61.6714 -110.6666,123.3428 -166,185.0141 -0.9994,31.8992 0.4989,63.8861 0.7351,95.8213 53,64.3584 106,128.7168 158.9999,193.0752 35.0033,0 70.0066,0 105.0099,0 l -0.9202,-1.1084 -0.4523,-0.5447 0,-6e-4 z M 3076.2715,1481.521 c -24.9714,-30.3756 -49.9429,-60.7513 -74.9143,-91.1269 -0.6337,-27.5767 -1.7782,-55.163 -1,-82.7482 52,-57.9655 104,-115.931 156,-173.8965 18.5,-0.034 37,-0.068 55.5,-0.102 -50.2789,58.9356 -103.4485,116.3113 -155.1488,174.4313 -11.3042,12.5959 -22.6084,25.1919 -33.9126,37.7878 61.9354,75.5008 124.4015,150.568 186.0614,226.2938 -19.205,0.8478 -38.449,0.3545 -57.6713,0.4871 -24.9714,-30.3752 -49.9436,-60.7527 -74.9144,-91.1264 z m -4902.4143,-128.8731 c 0,-13.3333 0,-26.6667 0,-40 -57.6667,0 -115.3333,0 -173,0 0,26.6667 0,53.3333 0,80 57.6667,0 115.3333,0 173,0 0,-13.3333 0,-26.6667 0,-40 z m -155,0 c 2.23,-6.5439 -4.875,-22.4228 4.3218,-22 44.2261,0 88.4521,0 132.6782,0 0,14.6667 0,29.3333 0,44 -45.6667,0 -91.3333,0 -137,0 0,-7.3333 0,-14.6667 0,-22 z m 1155,0 c 0,-13.3333 0,-26.6667 0,-40 -57.66667,0 -115.33333,0 -173,0 0,26.6667 0,53.3333 0,80 57.66667,0 115.33333,0 173,0 0,-13.3333 0,-26.6667 0,-40 z m -155,0 c 2.23,-6.5439 -4.87496,-22.4228 4.32178,-22 44.22607,0 88.45215,0 132.67822,0 0,14.6667 0,29.3333 0,44 -45.66667,0 -91.33333,0 -137,0 0,-7.3333 0,-14.6667 0,-22 z M 666.6977,1248.8577 c 23.61892,-44.4176 48.74445,-88.3867 71.1595,-133.2296 -31.02747,0.1733 -62.05493,0.3465 -93.0824,0.5198 -31.82384,60.1561 -64.38061,119.9368 -95.3462,180.5377 8.39807,20.025 20.21105,39.2958 29.92554,59.0301 4.66782,8.9465 9.33564,17.893 14.00346,26.8395 25.3833,-43.9325 48.84161,-89.1947 73.3401,-133.6975 z m -85.5831,71.4315 c -3.33546,-8.206 -10.5018,-16.4251 -11.56486,-24.6233 28.69903,-53.8393 57.39811,-107.6787 86.09726,-161.518 17.4841,-0.1778 34.9682,-0.3557 52.4523,-0.5337 -36.53281,70.5702 -75.32424,140.1527 -113.8323,209.7271 -5.21004,-5.2415 -8.70501,-15.8927 -13.1524,-23.0521 z m -286.2574,-58.6578 c -18.97368,-36.0601 -41.99625,-71.0931 -74.16366,-96.7651 -24.72629,-20.1511 -53.24559,-35.7924 -83.8316,-45.0847 -27.39747,-8.962 -56.397809,-11.1313 -85.00474,-13.0363 0,26.2478 0,52.4956 0,78.7434 24.224606,2.4784 48.6267,5.6651 70.94637,15.8883 30.20533,12.9602 54.36798,36.6152 75.55363,61.2252 32.16667,0.015 64.33333,0.031 96.5,0.046 l 0,-1.0165 0,-3e-4 z m -96.75,-26.0217 c -32.90277,-36.4115 -78.56987,-63.1781 -128.25,-66.238 0,-14.6332 0,-29.2664 0,-43.8996 42.81553,3.4858 85.92801,15.1016 121.40447,40.0475 30.41924,19.6831 55.17336,47.6152 72.80953,79.1283 -19.238,-0.015 -38.476,-0.029 -57.714,-0.044 -2.74995,-2.9981 -5.50028,-5.996 -8.25,-8.9942 z m -2024.25,-79.9618 c 0,-13.3333 0,-26.6667 0,-40 -57.6667,0 -115.3333,0 -173,0 0,26.6667 0,53.3333 0,80 57.6667,0 115.3333,0 173,0 0,-13.3333 0,-26.6667 0,-40 z m -155,0 c 2.23,-6.5439 -4.875,-22.4228 4.3218,-22 44.2261,0 88.4521,0 132.6782,0 0,14.6667 0,29.3333 0,44 -45.6667,0 -91.3333,0 -137,0 0,-7.3333 0,-14.6667 0,-22 z m 1155,0 c 0,-13.3333 0,-26.6667 0,-40 -57.66667,0 -115.33333,0 -173,0 0,26.6667 0,53.3333 0,80 57.66667,0 115.33333,0 173,0 0,-13.3333 0,-26.6667 0,-40 z m -155,0 c 2.23,-6.5439 -4.87496,-22.4228 4.32178,-22 44.22607,0 88.45215,0 132.67822,0 0,14.6667 0,29.3333 0,44 -45.66667,0 -91.33333,0 -137,0 0,-7.3333 0,-14.6667 0,-22 z m 2075,-244.37661 c 0,-19.7922 0,-39.5844 0,-59.3766 -28.7919,-5.56274 -56.1351,-18.72757 -77.1851,-39.32851 -39.15378,-36.69545 -51.67139,-92.5562 -52.3149,-144.41829 -37.5,-0.17218 -75,-0.34441 -112.5,-0.5167 0.32899,69.64765 15.42816,141.5512 57.11115,198.68918 42.08063,60.06687 112.58605,96.74061 184.88885,104.32792 0,-19.79233 0,-39.58467 0,-59.377 z m -1406.8454,56.8867 C -183.20005,955.29137 -61.32075,883.20733 12.945247,776.07452 29.07299,752.61574 44.729204,728.31913 56.8572,702.64789 c -43.8372,0 -87.6744,0 -131.5116,0 -17.868969,22.2175 -34.94582,45.15252 -56.4006,64.12202 -21.17852,21.11991 -46.0065,38.17666 -71.90471,52.99995 -39.11931,21.60393 -82.93333,33.89405 -127.18309,39.24683 0,36.87707 0,73.75413 0,110.6312 5.74109,0.0321 11.44566,-1.01891 17.1546,-1.4899 z m 2708.376,-112.5101 c 52.7296,-38.05098 105.279,-76.35739 158.3007,-114 105.6096,75.43065 210.4652,151.91452 315.6687,227.9114 -25.672,-84.97204 -54.5482,-169.6416 -81.8642,-254.41247 -12.5906,-38.60241 -25.1813,-77.20482 -37.772,-115.80723 104.3975,-77.56246 211.0265,-152.30781 315.5648,-229.6917 -130.3095,-0.003 -260.6191,-0.005 -390.9286,-0.008 -40.1468,-123.51493 -79.7145,-247.22158 -120.5364,-370.51448 -4.2928,7.7005608 -6.8261,20.202536 -10.4443,29.744096 -36.9708,113.592794 -73.9416,227.185594 -110.9124,340.778384 -130.0171,0 -260.0342,0 -390.0513,0 103.997,77.63616 210.4824,152.13675 314.5604,229.6716 -39.7743,123.45398 -80.5078,246.78437 -119.5656,370.3284 52.8145,-37.78403 105.3427,-75.96972 157.9802,-114 z m -2813.7721,58.2776 c -0.0862,-18.24077 -0.17233,-36.48153 -0.2585,-54.7223 -56.21998,-7.09896 -110.97631,-27.01791 -156.68168,-61.01204 -33.32343,-23.97251 -62.7909,-53.47693 -86.96296,-86.6207 -28.26628,-37.95411 -48.46775,-81.73194 -60.41387,-127.44652 -11.78795,-46.23528 -15.52509,-94.38304 -11.85517,-141.92213 3.9608,-47.09288 16.82993,-93.40691 38.10223,-135.64499 23.05816,-45.01531 55.63042,-84.76479 93.27791,-118.38464 51.89102,-44.91936 116.70077,-75.06593 185.03354,-82.8374 0,-37.636487 0,-75.272973 0,-112.90946 -56.67859,6.078551 -113.5229,18.661942 -164.42642,45.063907 -33.61862,16.088802 -64.53073,37.405497 -93.42876,60.812946 -21.77278,18.386687 -41.79446,38.551957 -60.64493,59.906807 -19.89969,23.60454 -38.42585,48.46541 -53.76796,75.32206 -12.15525,20.34691 -22.08545,42.1378 -30.96434,64.09015 -11.0466,27.53749 -19.08808,56.14579 -24.81824,85.22317 -5.13862,27.49616 -7.44034,55.28015 -8.23047,83.21751 -0.39786,24.86365 0.993,49.89739 3.32742,74.65024 3.53397,31.49647 9.84773,62.68237 18.81692,93.05626 8.57913,28.73731 20.22857,56.39738 33.75661,83.11834 13.12671,23.84737 27.44297,46.92206 44.17202,68.42949 21.7104,27.88741 46.44784,53.52532 73.23635,76.58225 32.1812,26.77357 67.6522,49.63251 105.83462,66.84645 49.60696,22.18376 103.02612,35.44422 157.15428,39.903 -0.0862,-18.2408 -0.1724,-36.4816 -0.2586,-54.7224 z m 1632.9819,46.6524 c 62.2726,-17.37377 117.1554,-58.94338 150.5146,-114.26589 30.4631,-48.3898 44.2763,-105.68893 46.8781,-162.36705 0.8448,-34.23039 0.1448,-68.77425 -9.8677,-101.88226 -12.2631,-49.56827 -45.3472,-92.28577 -88.1007,-119.73343 -35.8878,-24.07194 -76.1853,-40.93127 -117.6114,-52.89129 -17.9112,-12.28727 -16.3234,1.87922 -15.5533,15.16423 0,35.61477 0,71.22953 0,106.8443 38.5436,19.91927 76.2321,45.80611 98.2773,84.13539 10.6636,19.89128 17.5257,42.13054 16.5391,64.88485 1.2758,43.78844 -12.0585,89.55809 -41.3679,122.6814 -19.294,21.84551 -45.1783,36.6735 -72.9485,45.12235 -0.1719,40.03777 -0.3437,80.07553 -0.5155,120.1133 11.329,-2.2578 22.6522,-4.58607 33.7559,-7.8059 z m 649.2596,-424.43 c 0,-137.5 0,-275 0,-412.5 103.6667,0 207.3333,0 311,0 0,-37.666667 0,-75.333333 0,-113 -141.3333,0 -282.6667,0 -424,0 0,312.66667 0,625.33333 0,938 37.6667,0 75.3333,0 113,0 0,-137.5 0,-275 0,-412.5 z m -1599,-62 c 0,-157.83333 0,-315.66667 0,-473.5 -38.66667,0 -77.33333,0 -116,0 0,315.66667 0,631.33333 0,947 38.66667,0 77.33333,0 116,0 0,-157.83333 0,-315.66667 0,-473.5 z m 553,472.9546 C 690.28639,787.8098 562.00265,629.08768 433.936,470.19293 564.33118,314.00948 695.07418,158.10006 824.8463,1.39789 c -11.43647,-1.75321952 -26.1795,-0.2475856 -38.88509,-0.75 -33.61697,0 -67.23394,0 -100.85091,0 -111.36494,133.8652 -222.73617,267.72519 -334.2097,401.5 0.007,55 0.0133,110 0.02,165 8.90141,-19.05552 17.4694,5.08988 25.80153,12.8113 99.13131,122.5861 197.85296,245.51964 297.48737,367.6887 47.8838,0 95.7676,0 143.6514,0 l 0,-0.5454 -0.004,0 z m -3298,-473.9546 c 0,-157.5 0,-315 0,-472.5 -38.3333,0 -76.6667,0 -115,0 0,315 0,630 0,945 38.3333,0 76.6667,0 115,0 0,-157.5 0,-315 0,-472.5 z m 516.2072,462.25 c -86.4759,-112.34191 -172.8862,-224.73426 -259.3257,-337.1042 52.675,-9.42683 105.9566,-24.56949 150.9085,-54.75844 44.8108,-31.00533 73.1146,-81.2127 90.0933,-131.98143 14.2713,-45.3463 17.8438,-93.90109 11.5164,-140.92647 -4.3912,-31.80895 -12.8366,-63.11317 -26.5778,-92.19345 -11.9617,-27.31527 -28.4488,-52.46884 -47.4734,-75.36342 -26.2033,-29.254341 -57.4829,-54.280124 -93.4399,-70.472638 -71.6122,-32.95629978 -151.9745,-30.970467 -229.0869,-31.93462074 -7.7047,0.94435774 -19.5533,-2.31205046 -24.8217,1.10214104 0,38.6275097 0,77.2550187 0,115.8825277 58.7113,0.3461 118.3268,-2.23555 176.0173,10.42237 27.4581,8.48664 53.4925,22.64962 72.408,44.58659 38.5584,38.42444 55.4601,94.13047 53.0103,147.69479 1.9943,69.24234 -46.1501,134.94213 -111.1176,157.52083 -29.4859,11.25523 -61.092,14.31236 -92.3917,13.18983 -45.3443,0.25532 -90.6886,0.51063 -136.0329,0.76595 110.9245,151.62732 222.9862,302.54252 334.4616,453.81964 46.592,0 93.1841,0 139.7761,0 -2.6413,-3.41667 -5.2826,-6.83333 -7.9239,-10.25 z m 5204.7938,-406 c 0.3247,-154.5946 -0.6785,-309.19703 0.561,-463.786247 0.2552,-21.654584 0.5103,-43.309169 0.7655,-64.963753 -38.7758,0 -77.5517,0 -116.3275,0 0,315 0,630 0,945 38.3333,0 76.6667,0 115,0 7e-4,-138.74967 0,-277.502 0,-416.25 z m 523.999,415.9501 c -88.6138,-116.00675 -178.1839,-231.28412 -266.4751,-347.5362 67.2604,-11.40255 138.0715,-33.05757 185.5438,-84.81075 44.1107,-53.2831 68.7558,-121.51111 69.7109,-190.6092 0.5229,-36.36653 -4.0065,-73.0456 -15.5092,-107.65104 -9.0694,-29.49474 -22.9983,-57.48895 -39.9225,-83.24123 -14.4064,-21.0372 -31.2005,-40.516789 -50.561,-57.107242 C 3602.3867,34.265321 3543.3416,12.118132 3483.5763,6.1797148 3432.254,-0.45985359 3380.4543,1.6670316 3328.8572,0.32399 c 0,39.107967 0,78.215933 0,117.3239 58.3726,0.33404 117.6015,-2.17197 174.9676,10.27169 59.5277,15.12406 104.1819,67.37188 119.7084,125.44481 6.6337,24.09355 8.534,48.89365 7.4794,73.74981 -1.4411,45.89706 -23.3023,90.49863 -58.5687,119.88835 -39.2825,34.01541 -92.7916,46.30471 -143.7791,44.18169 -45.9126,0.32154 -91.8252,0.64309 -137.7378,0.96464 111.4767,151.12989 222.9534,302.25979 334.4301,453.3897 46.4995,-0.0393 93.0043,0.28515 139.5001,-0.19059 z m -5226,-65.7001 c -0.4179,-17.7868 0.8301,-37.23947 -0.614,-54 -72.4008,-8.74364 -141.4566,-41.38864 -193.7443,-92.35798 -29.0169,-27.52066 -53.7889,-59.61438 -72.6587,-94.91261 -22.7622,-42.00089 -35.9307,-88.75337 -41.0949,-136.14936 -4.3331,-38.49777 -3.3602,-77.65389 4.3912,-115.67405 5.8597,-31.94803 17.1718,-62.72884 30.6238,-92.20791 16.1876,-32.01538 35.7661,-62.37342 59.8064,-89.07715 32.8592,-37.13772 73.7191,-67.3339 119.3127,-87.06112 29.8556,-13.38524 61.6762,-21.810735 93.9778,-26.70162 0,-36.6321 0,-73.2642 0,-109.8963 -54.5388,6.17731 -109.026,18.79037806 -158.2149,43.803704 -22.247,10.515798 -43.4795,23.438741 -63.578,37.602857 -30.8915,21.885183 -59.2229,47.338449 -84.2221,75.770709 -20.7394,22.98087 -39.0259,48.22761 -54.682,74.94533 -12.5805,20.55564 -22.8988,42.59766 -32.0043,64.87819 -11.228,27.9847 -19.5252,57.09204 -25.2302,86.66378 -5.4133,30.94799 -8.1703,62.28771 -8.0134,93.69266 1.0949,40.63285 4.6513,81.3935 14.7808,120.85805 5.2557,24.49988 13.57,48.37911 23.0879,71.51099 11.602,27.58053 25.8798,54.03466 42.6195,78.80887 17.872,26.17821 38.3275,50.4938 60.6481,72.96217 33.9182,33.91242 72.7217,63.15907 115.7051,84.591 38.023,19.65257 79.316,32.41803 121.3191,40.29647 15.7878,2.7172 31.7925,4.68874 47.7844,5.65332 0,-18 0,-36 0,-54 z m 107.7483,51.5071 c 46.0706,-5.74362 91.4693,-18.46571 133.4217,-38.37323 24.5111,-11.7696 47.7559,-25.69591 70.0472,-41.24641 18.798,-14.00746 37.4395,-28.64143 54.3666,-44.88919 28.053,-26.88187 52.9151,-56.97628 73.8301,-89.72792 18.4489,-28.82227 33.41213,-59.89724 44.827,-92.15665 14.53276,-40.81243 22.64627,-83.69119 26.04219,-126.80964 1.85954,-28.51918 2.27222,-57.03643 0.0699,-85.55016 -2.41933,-30.51847 -7.27315,-60.91398 -15.51822,-90.43911 -7.84792,-29.45808 -19.06891,-57.97787 -33.0106,-85.09768 -13.80627,-26.56698 -29.93827,-52.02373 -48.74127,-75.37491 -14.4333,-19.07429 -31.2682,-36.36019 -48.2942,-53.09803 -28.977,-26.782831 -60.4684,-50.869136 -94.885,-70.261785 -34.0469,-19.245683 -70.5996,-34.1058056 -108.6277,-43.4349958 -24.343,-6.0072392 -49.315,-10.0366732 -74.2931,-12.0472592 0.1724,36.5 0.3448,73 0.5171,109.5 68.3352,8.90589 133.6773,38.56155 184.8906,84.83888 35.9821,31.4834 65.8871,69.92954 87.8162,112.38292 19.8382,38.77566 31.2733,81.30076 36.4032,124.44286 1.3087,24.95464 0.7809,50.1949 0.3555,75.19122 -4.7956,44.65639 -14.4043,89.22025 -33.6117,130.02344 -17.738,39.81855 -43.3028,76.05782 -73.827,107.08504 -51.6574,53.18948 -120.7091,89.88241 -194.5306,98.97858 -12.3893,-1.86923 -6.0048,12.44004 -7.587,19.88394 -0.1424,29.55771 -0.2848,59.11541 -0.4272,88.67312 6.9405,-0.50607 13.8488,-1.70051 20.7663,-2.49303 z M 1093.8572,435.31998 c 0,-20.44264 0,-40.88528 0,-61.32792 -30.9475,-11.95807 -62.0459,-28.36475 -80.8914,-56.71182 -24.12798,-36.46698 -23.48511,-84.40028 -9.8234,-124.63607 14.6466,-38.97721 47.8803,-70.15788 87.4643,-83.02972 4.5184,-5.41643 2.3136,-16.080387 3.0407,-23.550679 0.07,-30.183554 0.1403,-60.367107 0.2104,-90.550661 C 1026.8323,5.7974377 963.39083,41.623848 924.35078,97.772573 889.259,145.47333 875.48378,205.74233 877.7688,264.23204 c 0.11084,60.07557 24.08959,121.59816 71.26124,160.12952 41.47104,35.3163 92.97516,56.70255 144.52516,72.27505 0.7009,-19.77399 0.1033,-41.03867 0.302,-61.31663 z M 64.6834,268.89789 C 26.289452,192.39246 -27.907777,122.39115 -99.146616,73.909244 -166.66733,26.038457 -247.90235,-0.95483507 -330.1428,-7.35211 c 0,37.54829 0,75.09658 0,112.64487 45.60543,5.31074 90.86457,18.01146 130.70472,41.14335 19.80331,11.40979 38.47226,24.41506 55.67807,39.47825 16.82545,14.17616 31.94086,30.51916 46.645776,46.83721 9.490478,12.25299 18.980956,24.50598 28.471434,36.75897 44.555567,0.0458 89.111133,0.0916 133.6667,0.1374 l -0.3405,-0.75 0,-5e-5 z m 1328.1675,-11.5 c -3.9462,-62.47085 -17.5178,-127.0259 -56.48,-177.700464 -36.3004,-49.679937 -95.4148,-77.8257842 -155.5137,-84.999536 0,37.26192 0,74.52384 0,111.78576 35.2094,9.12549 65.6419,34.26843 80.3311,67.52108 13.1427,26.26229 18.3826,55.61176 20.6689,84.64316 37,0 74,0 111,0 l -0.01,-1.25 0,0 z m 272.0063,-190.25 c 0,-18.833333 0,-37.666667 0,-56.5 -69.3333,0 -138.6667,0 -208,0 0,37.666667 0,75.333333 0,113 69.3333,0 138.6667,0 208,0 0,-18.83333 0,-37.666667 0,-56.5 z"
         id="path3000"
         style="fill:#ec1b23" />
      <path
         d="m 8.3572,1829.5228 c -53.172361,-3.0769 -106.008211,-12.6536 -156.91809,-27.8749 -106.48797,0 -212.97594,0 -319.46391,0 -6.41201,-4.5467 -17.47318,-0.755 -25.72607,-2 -289.13064,0 -578.26133,0 -867.39193,0 0.057,8.5933 -15.2009,1.8717 -21.6089,4 -208.814,0 -417.628,0 -626.442,0 -49.8318,-14.1616 -99.835,-27.7724 -148.6006,-45.362 -15.3039,-5.3978 -31.7199,-8.6537 -43.7898,-20.2808 -26.3529,-19.3218 -52.7058,-38.6437 -79.0587,-57.9656 -0.1684,-124.3633 -0.3368,-248.7265 -0.5052,-373.0898 -168.1649,-74.3964 -336.3298,-148.7928 -504.4948,-223.1891 -0.1672,-419.05039 -0.3344,-838.10078 -0.5016,-1257.15117 199.97,0.34752 399.983,0.12547 599.9261,0.82882 110.1503,12.60524 213.4367,67.06174 289.5287,147.143716 11.8733,15.111471 24.6484,29.5846204 39.004,8.357114 112.2543,-91.13444 253.0948,-145.4053 397.3514,-154.17351 29.2412,-2.31452 58.7046,-1.33968 87.9943,-0.96228 170.7685,13.31598 332.3669,88.895786 464.97713,195.168646 8.78403,7.101093 17.39575,14.411133 26.07547,21.638484 90.59092,-88.037367 198.76099,-161.70297 322.27912,-193.676 65.88256,-17.94946 134.58753,-24.96686 202.76127,-23.65234 90.66349,1.41511 180.7089,22.80313 262.961015,60.78987 14.834752,6.29922 28.738137,14.546375 43.143095,21.7445 0,-27.7245 0,-55.44899 0,-83.17349 132.674867,0.16832 265.34973,0.33663 398.0246,0.50493 27.1798,56.36598 54.3596,112.731966 81.5394,169.09795 50.87793,-56.532652 101.75586,-113.0653 152.6338,-169.59795 172.9734,0 345.9468,0 518.9202,0 -0.5048,4.76251 14.5894,-1.04293 20.585,0.74134 29.115,-0.10829 58.2587,-0.73806 87.1173,3.80939 22.3517,3.1118 44.4277,8.25223 66.1797,14.26154 1.6554,-7.01636 -4.9561,-22.29961 7.203,-18.81228 360.2578,0 720.5157,0 1080.7735,0 0.1746,25.71148 0.3491,51.42297 0.5235,77.13445 74.9654,-93.71275 149.9308,-187.42547 224.8963,-281.13817 68.3305,159.22313 134.6373,319.530347 202.1587,479.18116 88.6483,-91.704993 177.2967,-183.409987 265.945,-275.11498 163.1375,0.32401 326.3124,0.1181 489.4266,0.7729 121.4435,14.88479 234.6446,78.443157 316.6485,168.3065191 67.2743,79.6190239 94.9557,185.3413009 100.41,287.5933009 3.3162,74.07104 -7.6594,149.38403 -36.4637,217.98281 -24.9052,57.40527 -61.8823,109.32306 -107.2457,152.42754 -7.8524,6.03917 -13.2915,12.28011 -3.6247,19.78407 49.0363,68.87311 96.4159,139.00912 147.9419,206.04249 35.1171,42.09763 70.9957,83.55081 106.5985,125.23653 -150.627,89.1134 -301.4038,178.1996 -452.784,266.1146 -17.2308,8.5835 -33.1371,22.529 -53.2804,22.4681 -69.9602,1.3201 -140.0409,0.7591 -210.0475,1.356 -24.4517,28.2352 -49.486,55.9833 -73.2545,84.7969 62.3341,79.553 126.45,158.0451 187.675,238.2525 -50,61.8941 -100,123.7883 -150,185.6825 -251.0333,0.04 -502.0667,0.08 -753.1,0.12 -7.2632,-4.4488 -17.87,-0.8289 -26.4888,-2.0064 -521.4492,-0.1646 -1042.8984,-0.3291 -1564.3476,-0.4936 -10.01261,-22.3547 -20.02518,-44.7094 -30.0377,-67.0642 -16.42334,4.1398 -34.14595,7.4793 -38.54199,26.8762 -7.54487,13.4017 -15.11015,26.792 -22.66521,40.188 -187.43957,0.1679 -374.87913,0.3357 -562.3187,0.5035 3.38256,-25.4041 -31.27712,3.0753 -46.39651,2.2279 -73.75822,19.3959 -150.27389,28.7666 -226.536647,26.5815 -13.199225,-0.1303 -26.405676,0.277 -39.566843,-0.9372 z m 106,-78.3608 c 93.47585,-6.5119 188.07025,-28.2529 268.7178,-77.5141 8.79701,-0.1749 19.81352,-2.5693 15.7822,10.0841 0,13.3053 0,26.6106 0,39.9159 146.1702,0 292.3404,0 438.5106,0 18.76844,-32.689 31.69451,-69.7766 57.65484,-97.7414 9.40531,-8.6453 23.01567,-3.2694 34.5754,-4.7311 18.06209,0.018 36.12417,0.036 54.18626,0.054 13.0673,12.763 15.95388,32.7468 22.8659,49.0945 6.0552,17.8499 9.8862,36.4873 18.6222,53.3227 152.1853,-0.1183 304.3999,0.2367 456.5669,-0.1775 33.8535,-2.3585 62.6809,-23.372 90.528,-40.8225 0.8475,13.6408 0.3607,27.335 0.4899,41 90.6667,0 181.3333,0 272,0 0,-9.4914 0,-18.9827 0,-28.4741 10.1268,9.1573 19.138,21.0111 29.9656,28.4741 237.3178,0 474.6357,0 711.9535,0 0.3024,-8.8876 -1.0835,-22.8136 6.9354,-8.6685 4.7163,7.7646 10.5382,13.2085 20.1702,10.6535 151.9918,0.01 303.9835,0.013 455.9753,0.019 0,-8.6872 0,-17.3744 0,-26.0616 7.8333,8.6811 15.6667,17.3621 23.5,26.0432 62.466,0.01 124.9319,0.013 187.3979,0.02 29.4392,-36.2935 58.6887,-72.7445 88.3102,-108.8874 -63.2671,-79.9837 -127.0241,-159.5854 -189.7081,-240.026 45.8911,-53.9215 92.8981,-106.8888 139.3893,-160.2953 79.2036,-0.097 158.4071,-0.1941 237.6107,-0.2913 129.2431,-73.7658 256.19,-151.5238 385.6311,-224.92266 23.2973,-5.17662 -5.2359,-21.85842 -10.1468,-33.14981 -78.8144,-100.54718 -153.4041,-204.35691 -228.2454,-307.87334 9.5421,-10.10338 24.1571,-18.31917 34.7938,-28.55006 78.1108,-64.06328 133.5031,-157.42926 143.5999,-258.74833 9.7412,-82.8893 -0.6977,-168.81982 -33.8977,-245.62779 C 3832.48,81.997914 3809.9238,49.853309 3781.2493,24.012379 3714.4175,-37.92859 3629.7486,-84.209038 3538.3572,-94.84681 c -149.6537,0 -299.3074,0 -448.9611,0 -107.4091,110.999974 -214.8181,221.99997 -322.2271,333 -8.3329,1.15039 -7.6361,-13.78124 -12.2002,-19.34307 -62.3817,-147.938386 -124.1992,-296.117809 -187.278,-443.75978 -7.5652,6.09878 -14.2431,17.32902 -21.4677,25.39747 -86.9568,108.691222 -173.9117,217.38394 -260.8659,326.0772 -0.1695,-73.95904 -0.3391,-147.91808 -0.5087,-221.87712 -310.3304,0 -620.6609,0 -930.9913,0 0,24.059823 0,48.119647 0,72.17947 -53.9618,-47.506623 -125.7988,-69.98763 -196.8146,-71.456037 -72.5049,-2.697703 -146.4022,12.083788 -210.35882,47.019819 -6.46994,-3.734 16.98623,-33.366369 22.20712,-47.743252 -117.33783,0 -234.67567,0 -352.0135,0 -69.1094,76.773293 -138.21884,153.546559 -207.3283,230.3198 -37.24184,-76.656771 -74.003,-153.547716 -111.0078,-230.3198 -89.8906,0 -179.7812,0 -269.6718,0 C 28.698786,-44.01536 28.528019,7.3213902 28.3572,58.65814 3.0081481,38.015026 -22.878289,18.110821 -50.625147,0.76471621 -72.554346,-13.767293 -95.998721,-26.092829 -119.54367,-37.765017 c -25.98483,-12.283015 -52.63146,-22.86889 -80.11072,-31.319574 -23.4218,-7.252961 -47.49002,-12.898967 -71.58833,-17.357202 -29.6737,-5.088411 -59.60663,-7.460662 -89.68062,-8.354994 -57.4328,-0.931817 -115.15692,4.986531 -170.84257,19.400082 -102.26871,25.418302 -193.68799,82.9937395 -271.02654,153.408715 -27.14356,23.60943 -51.37903,50.30786 -77.16125,75.36332 -117.04548,-118.935735 -267.7917,-208.6337 -432.8265,-239.613973 -64.5875,-12.14686 -131,-10.66278 -195.8102,-1.334601 -121.5922,17.333442 -236.5362,73.128138 -327.9096,154.916108 -17.3131,14.340617 -32.0001,31.531857 -49.0007,46.216396 -22.4226,-34.083463 -47.6846,-66.365754 -77.6962,-94.090025 -37.6852,-37.73313 -83.8014,-66.740398 -132.8132,-87.482782 -47.8059,-20.073993 -99.8497,-29.620448 -151.6475,-27.337013 -153.4957,-5.11e-4 -306.9913,-0.001 -460.487,-0.0015 0.1673,376.05077 0.3345,752.10154 0.5018,1128.15236 147.2778,65.2826 294.5555,130.5652 441.8333,195.8477 20.8889,0 41.7778,0 62.6667,0 0.01,137.1667 0.013,274.3333 0.02,411.5 38.8265,28.4929 77.6531,56.9859 116.4796,85.4788 215.8333,0.01 431.6667,0.015 647.5,0.022 0,-8.7563 0,-17.5126 0,-26.2689 8.3052,7.0216 15.4462,16.9184 24.4281,22.2689 313.5014,0 627.0028,0 940.50421,0 1.95654,-4.8404 -3.28553,-24.3594 4.05576,-18.2193 9.75565,6.3884 18.73124,15.1629 28.95253,20.127 86.68647,0.031 173.37294,0.061 260.05941,0.091 2.0934,-5.8798 -5.2502,-26.5533 6.02871,-18.4918 77.088958,39.7611 165.8727975,48.4165 251.376975,47.3639 12.747296,0.4354 25.394835,-0.3191 38.094705,-1.358 z m -86,-27.1616 c -71.64185,-3.4669 -145.6426,-15.8035 -207.32606,-54.3167 -10.16586,-0.4221 -32.10898,-35.7678 -30.17394,-15.6215 0,13.5285 0,27.0571 0,40.5857 -75.16667,-0.032 -150.33333,-0.064 -225.5,-0.096 -22.33333,-16.1713 -44.66667,-32.3427 -67,-48.514 -0.17873,15.5368 -0.35747,31.0735 -0.5362,46.6103 -301.1546,-0.035 -602.3092,-0.069 -903.4638,-0.104 -20.3333,-19.6284 -40.6667,-39.2568 -61,-58.8852 -0.176,21.3299 -0.3519,42.6598 -0.5277,63.9897 -203.2491,0 -406.4982,0 -609.7473,0 -32.5752,-23.8905 -65.1502,-47.7812 -97.725,-71.6722 -0.1682,-141.7762 -0.3364,-283.5524 -0.5046,-425.3286 -28.5313,-0.3972 -57.3969,0.7845 -85.7226,-0.5838 -139.7576,-61.9531 -279.5152,-123.9061 -419.2728,-185.8591 0,-360.51904 0,-721.03807 0,-1081.55711 153.6,0.210172 307.229,-0.395597 460.8109,0.324024 88.7018,4.279891 173.1719,46.4143 236.8308,107.176525 36.6896,34.66668 66.7285,75.712351 91.9192,119.315741 38.25,-38.12569 75.5015,-77.62343 119.8613,-108.930233 73.1486,-54.2339694 158.7915,-91.597487 248.5643,-107.023176 40.8546,-7.930765 82.6172,-10.073961 124.1511,-10.041471 125.4615,3.135898 246.1349,51.963569 350.8022,118.870966 56.53635,37.000643 109.33567,80.023484 155.29366,129.620534 6.11939,4.91085 12.27621,18.75982 18.32338,6.42891 66.38527,-71.10514 137.51994,-139.729131 223.59284,-186.6558545 74.49954,-41.1231635 158.79776,-63.4232695 243.66441,-67.3786625 52.62646,-2.681378 105.71293,0.08683 157.12899,12.443673 114.30826,25.116167 217.143177,89.425274 300.25916,170.622184 9.293637,12.60643 4.775441,-6.74303 5.79776,-13.27362 0,-57.16939 0,-114.33878 0,-171.50817 74.712,0.16954 149.424,0.33908 224.136,0.50862 38.27321,79.333313 76.54638,158.666646 114.8195,238 8.04239,-1.00587 18.78786,4.30712 23.36258,-4.80492 C 489.23592,88.484637 559.29656,10.626319 629.3572,-67.232 c 97.238,-0.04007 194.476,-0.08013 291.714,-0.1202 -14.9763,29.576047 -32.10525,58.0724481 -47.1938,87.61312 6.7086,10.049333 14.75246,21.101341 22.70364,6.499604 48.11691,-50.941663 116.72796,-78.988602 185.21236,-89.067161 79.3724,-11.388747 165.4043,-2.189181 232.5408,44.857038 27.2997,18.4861139 50.5296,43.007944 67.023,71.597399 0.1718,-40.5 0.3436,-81 0.5155,-121.5 291.6615,0 583.323,0 874.9845,0 0,91.39087 0,182.78174 0,274.17261 100.9778,-126.050494 201.5916,-252.394576 303,-378.09852 62.1042,145.55508 123.0485,291.60398 184.5247,437.42591 11.6125,-0.51664 24.3947,1.78951 35.2773,-0.48865 107.465,-111.00373 214.93,-222.007486 322.395,-333.01126 139.8689,0.200284 279.7619,-0.344179 419.6157,0.320557 73.9959,2.358506 143.4974,36.685938 202.2341,79.759458 39.7235,29.273652 76.1649,65.39476 96.2852,111.171805 25.115,52.72038 35.4808,111.81219 36.7616,169.89013 -0.2754,33.97845 -0.6379,68.10096 -9.1433,101.29274 -19.684,98.30679 -86.9356,180.68501 -168.3431,236.23251 -27.6185,9.30639 -2.9362,27.97267 6.1674,42.17056 72.3823,98.09021 143.792,196.96605 219.0178,292.90675 16.9734,16.45651 -26.5477,22.51921 -36.39,34.2798 -106.2197,62.6295 -212.3928,125.3398 -318.9024,187.4757 -81.1184,0 -162.2369,0 -243.3553,0 -54.681,62.5568 -109.362,125.1136 -164.043,187.6704 63.6525,80.2168 127.2213,160.5001 190.8882,240.7055 -21.83,27.0077 -43.66,54.0154 -65.4899,81.0231 -53.686,0.034 -107.372,0.068 -161.058,0.101 -21.314,-23.4385 -42.628,-46.8771 -63.942,-70.3156 -0.1752,23.4385 -0.3504,46.8771 -0.5256,70.3156 -141.9071,0 -283.8141,0 -425.7212,0 -19.2511,-23.492 -38.5021,-46.984 -57.7532,-70.476 -0.1755,22.492 -0.3511,44.984 -0.5266,67.476 -224.4875,0 -448.975,0 -673.4625,0 -22.5037,-22.4963 -45.0073,-44.9926 -67.5109,-67.489 0,22.4963 0,44.9927 0,67.489 -72,0 -144,0 -216,0 0,-23.3587 0,-46.7173 0,-70.076 -32.5865,27.6381 -66.255,57.276 -107.9406,69.5774 -149.8531,0.1414 -299.7063,0.2828 -449.5594,0.4242 -16.2159,-30.4637 -28.467,-63.4045 -48.98755,-91.2997 -5.23979,-7.766 -12.39767,-11.4931 -21.82136,-10.4489 -24.3728,-0.6066 -48.79785,0.3271 -73.19109,0.323 -29.36717,19.2648 -46.50498,51.8468 -65.53156,80.4413 -7.14142,6.9133 -7.85209,24.9074 -21.11199,21.0169 -128.28549,0.014 -256.57097,0.027 -384.85645,0.041 0,-16.6667 0,-33.3333 0,-50 -17.86203,0.5506 -36.3761,-1.0763 -53.84359,0.7918 -58.89768,38.9028 -128.12691,59.114 -197.18965,70.5634 -49.14786,7.8209 -98.800759,9.9865 -148.46676,7.998 z m 48.5,-126.9132 c 89.32092,-6.0493 174.23104,-63.309 210.067,-145.8414 15.30711,-33.7728 20.15978,-70.9157 21.9447,-107.5979 -110.33723,0 -220.674467,0 -331.0117,0 0,25.3333 0,50.6667 0,76 76.673367,0 153.34673,0 230.0201,0 -17.00219,39.9976 -51.17331,70.8861 -90.86855,87.4882 -20.684431,8.4948 -42.968393,11.7851 -65.15155,13.671 0,26.1984 0,52.3967 0,78.5951 8.338198,-0.7179 16.667974,-1.5296 25,-2.315 z m -49.2385,-38.1151 c -0.08717,-13.2253 -0.174333,-26.4505 -0.2615,-39.6758 -33.2841827,-5.4245 -66.318868,-17.4285 -91.6688,-40.2426 -37.01764,-29.3503 -58.80864,-75.3149 -59.52052,-122.2853 -1.64088,-37.395 10.80896,-75.1159 34.312523,-104.2421 26.376106,-31.8779 63.1558,-55.545 104.208438,-62.8438 13.492866,1.3637 14.113849,-7.6984 12.77251,-18.4722 0.139592,-21.2421 0.279279,-42.4843 0.418949,-63.7264 -47.308893,5.7258 -94.562874,19.4577 -133.27571,48.2481 -52.02087,37.8276 -91.9158,94.8818 -101.11459,159.3346 -3.78488,20.5425 -1.42061,41.7212 -1.80024,62.506 4.91609,43.4619 19.79861,86.0473 47.08098,120.6457 37.22986,48.8231 92.325791,84.55 153.0974897,95.109 11.0476537,-1.44 40.4744733,15.9652 35.9455333,-4.7628 -0.06505,-9.8641 -0.129848,-19.7283 -0.195063,-29.5924 z m -2050.7615,-206.3242 c 0,-79 0,-158 0,-237 -28,0 -56,0 -84,0 0,158 0,316 0,474 28,0 56,0 84,0 0,-79 0,-158 0,-237 z m 197,198 c 0,-13 0,-26 0,-39 -57.6667,0 -115.3333,0 -173,0 0,26 0,52 0,78 57.6667,0 115.3333,0 173,0 0,-13 0,-26 0,-39 z m 251,-198 c 0,-79 0,-158 0,-237 -27.3333,0 -54.6667,0 -82,0 0,158 0,316 0,474 27.3333,0 54.6667,0 82,0 0,-79 0,-158 0,-237 z m 308,0 c 0,-79 0,-158 0,-237 -27.6648,0 -55.3295,0 -82.9943,0 -0.1685,113.5836 -0.3371,227.1671 -0.5057,340.7507 -66.5459,-101.9263 -132.4647,-204.2685 -199.75,-305.7071 -1.7535,10.8762 -0.2474,25.2088 -0.75,37.4114 0,34.2256 0,68.4511 0,102.6767 66.5,99.618 133,199.236 199.5,298.854 28.1667,0.01 56.3333,0.013 84.5,0.02 0,-79.0019 0,-158.0038 0,-237.0057 z m 244,0 c 0,-79 0,-158 0,-237 -28,0 -56,0 -84,0 0,158 0,316 0,474 28,0 56,0 84,0 0,-79 0,-158 0,-237 z m 197,198 c 0,-13 0,-26 0,-39 -57.66667,0 -115.33333,0 -173,0 0,26 0,52 0,78 57.66667,0 115.33333,0 173,0 0,-13 0,-26 0,-39 z m 251,-198 c 0,-79 0,-158 0,-237 -27.33333,0 -54.66667,0 -82,0 0,158 0,316 0,474 27.33333,0 54.66667,0 82,0 0,-79 0,-158 0,-237 z m 270,236.4131 c -38.21926,-58.7122 -78.35399,-116.2686 -116.1338,-175.2043 39.3057,-10.6542 71.27057,-41.3793 87.62997,-78.1883 9.84933,-20.2365 12.54481,-43.1226 13.01288,-65.394 -0.74594,-57.5208 -36.12778,-113.7059 -89.16108,-136.841 -33.80166,-15.7285 -71.84079,-17.2856 -108.59797,-17.431 -10.91667,-0.2254 -21.83333,-0.4507 -32.75,-0.6761 0,26.7739 0,53.5477 0,80.3216 34.69636,1.0403 71.04418,-2.8746 103.99091,9.8233 21.17265,11.1087 36.48886,32.801 39.24137,56.5586 0.52976,15.1641 1.40167,31.2674 -7.66068,44.3597 -14.76709,25.7331 -46.14818,37.6476 -74.79787,35.7977 -25.90441,0.3206 -51.80882,0.6411 -77.71323,0.9616 54.47989,82.1621 108.95973,164.3243 163.4395,246.4865 33.15593,-0.3914 66.3598,0.8053 99.5,-0.5743 z m 881,-85.8863 c 0.42723,-29.2063 -0.84955,-58.8047 0.62953,-87.7691 7.14587,-7.6848 -1.364,-15.1294 -4.4584,-22.657 -48.34546,-92.2003 -96.6909,-184.4005 -145.03633,-276.6007 -31.78543,-0.1732 -63.57087,-0.3464 -95.3563,-0.5195 53.44945,100.0769 108.16393,199.5304 162.2215,299.3047 0,58.2383 0,116.4765 0,174.7148 27.33333,0 54.66667,0 82,0 0,-28.8244 0,-57.6488 0,-86.4732 z m 667,-150.5268 c 0,-79 0,-158 0,-237 -27.3333,0 -54.6667,0 -82,0 0,158 0,316 0,474 27.3333,0 54.6667,0 82,0 0,-79 0,-158 0,-237 z m 99.5,235.9982 c 52.4017,-1.2848 105.7145,-15.874 146.419,-50.1878 30.0321,-23.7973 53.6583,-55.5669 67.8898,-91.1782 13.4771,-33.1907 18.8554,-69.4861 17.4134,-105.1973 -1.5245,-57.8123 -25.6111,-114.3107 -65.7998,-155.8726 -36.1164,-39.5697 -88.0875,-62.1246 -141.078,-67.0694 -33.2774,-4.2025 -66.8938,-2.6223 -100.3444,-3.8173 0,26.4415 0,52.8829 0,79.3244 40.8783,0.4697 82.7552,-2.0876 122.5266,8.7889 15.8975,4.8296 29.9023,13.3016 43.271,22.9982 17.9602,15.8823 33.1608,34.8626 41.9675,57.4576 19.5649,47.1162 17.1778,102.1983 -2.7236,148.7674 -20.3517,46.0457 -68.7083,72.0993 -116.9797,77.6835 -29.222,3.5391 -58.6965,1.966 -88.0618,2.2991 0,25.6667 0,51.3333 0,77 25.1591,-0.3677 50.3956,0.9015 75.5,-0.9965 z m 402.5,-235.9982 c 0,-79 0,-158 0,-237 -27.3333,0 -54.6667,0 -82,0 0,158 0,316 0,474 27.3333,0 54.6667,0 82,0 0,-79 0,-158 0,-237 z m 269.4435,234.25 c -38.4404,-57.5775 -76.98,-115.0886 -115.4746,-172.6299 31.8409,-8.8235 58.5661,-30.6542 76.7363,-57.8775 12.12,-18.3235 20.2542,-39.5497 22.7446,-61.4186 9.0141,-58.6334 -19.4769,-121.3014 -70.1914,-152.3127 -22.0648,-12.7636 -46.4719,-21.6043 -71.942,-23.9877 -28.6169,-2.9979 -57.5436,-2.8385 -86.3164,-3.0235 0,26.6667 0,53.3333 0,80 31.1469,0.7587 63.1148,-1.6855 93.5045,6.0143 32.8517,9.3546 52.8239,44.8584 49.6479,78.0127 -0.9256,30.8531 -28.356,55.0364 -57.4539,60.5645 -17.9054,3.9546 -36.6823,1.0619 -54.9485,2.1818 -15.0475,3.6801 -63.7238,-9.703 -37.7789,16.0754 50.8906,77.1247 102.0822,154.0503 153.0074,231.1522 33.4172,0 66.8343,0 100.2515,0 -0.5946,-0.9173 -1.1928,-1.8335 -1.7865,-2.751 z m 213.5565,-234.25 c 0,-79 0,-158 0,-237 -28,0 -56,0 -84,0 0,158 0,316 0,474 28,0 56,0 84,0 0,-79 0,-158 0,-237 z m 209,0 c 0,-79 0,-158 0,-237 -27.3333,0 -54.6667,0 -82,0 0,158 0,316 0,474 27.3333,0 54.6667,0 82,0 0,-79 0,-158 0,-237 z m 308,0 c 0,-79 0,-158 0,-237 -27.6667,0 -55.3333,0 -83,0 0,113.7557 0,227.5113 0,341.267 -66.7138,-102.1076 -132.7751,-204.6484 -200.25,-306.2535 -1.7532,11.4291 -0.2476,26.1785 -0.75,38.882 0,33.7032 0,67.4065 0,101.1097 66.5,99.6323 133,199.2646 199.5,298.8969 28.1667,0.033 56.3333,0.065 84.5,0.098 0,-79 0,-158.0001 0,-237.0001 z m 213,0 c 0,-79 0,-158 0,-237 -27.3333,0 -54.6667,0 -82,0 0,158 0,316 0,474 27.3333,0 54.6667,0 82,0 0,-79 0,-158 0,-237 z m 287.8724,235.3469 c -66.455,-80.3586 -132.8707,-160.7525 -198.8611,-241.4927 67.86,-77.0631 137.3135,-152.7187 204.9887,-229.9438 -7.7784,-2.1223 -19.5149,-0.2829 -28.8118,-0.8853 -24.8961,0.022 -49.7921,0.043 -74.6882,0.065 -55.3333,61.6714 -110.6666,123.3428 -166,185.0141 -0.9994,31.8992 0.4989,63.8861 0.7351,95.8213 53,64.3584 106,128.7168 158.9999,193.0752 35.0033,0 70.0066,0 105.0099,0 l -0.9202,-1.1084 -0.4523,-0.5447 0,-6e-4 z m -5071.8724,-235.3469 c 0,-13.3333 0,-26.6667 0,-40 -57.6667,0 -115.3333,0 -173,0 0,26.6667 0,53.3333 0,80 57.6667,0 115.3333,0 173,0 0,-13.3333 0,-26.6667 0,-40 z m 1000,0 c 0,-13.3333 0,-26.6667 0,-40 -57.66667,0 -115.33333,0 -173,0 0,26.6667 0,53.3333 0,80 57.66667,0 115.33333,0 173,0 0,-13.3333 0,-26.6667 0,-40 z M 666.6977,1248.8577 c 23.61892,-44.4176 48.74445,-88.3867 71.1595,-133.2296 -31.02747,0.1733 -62.05493,0.3465 -93.0824,0.5198 -31.82384,60.1561 -64.38061,119.9368 -95.3462,180.5377 8.39807,20.025 20.21105,39.2958 29.92554,59.0301 4.66782,8.9465 9.33564,17.893 14.00346,26.8395 25.3833,-43.9325 48.84161,-89.1947 73.3401,-133.6975 z m -371.8405,12.7737 c -18.97368,-36.0601 -41.99625,-71.0931 -74.16366,-96.7651 -24.72629,-20.1511 -53.24559,-35.7924 -83.8316,-45.0847 -27.39747,-8.962 -56.397809,-11.1313 -85.00474,-13.0363 0,26.2478 0,52.4956 0,78.7434 24.224606,2.4784 48.6267,5.6651 70.94637,15.8883 30.20533,12.9602 54.36798,36.6152 75.55363,61.2252 32.16667,0.015 64.33333,0.031 96.5,0.046 l 0,-1.0165 0,-3e-4 z m -2121,-105.9835 c 0,-13.3333 0,-26.6667 0,-40 -57.6667,0 -115.3333,0 -173,0 0,26.6667 0,53.3333 0,80 57.6667,0 115.3333,0 173,0 0,-13.3333 0,-26.6667 0,-40 z m 1000,0 c 0,-13.3333 0,-26.6667 0,-40 -57.66667,0 -115.33333,0 -173,0 0,26.6667 0,53.3333 0,80 57.66667,0 115.33333,0 173,0 0,-13.3333 0,-26.6667 0,-40 z m 1920,-244.37661 c 0,-19.7922 0,-39.5844 0,-59.3766 -28.7919,-5.56274 -56.1351,-18.72757 -77.1851,-39.32851 -39.15378,-36.69545 -51.67139,-92.5562 -52.3149,-144.41829 -37.5,-0.17218 -75,-0.34441 -112.5,-0.5167 0.32899,69.64765 15.42816,141.5512 57.11115,198.68918 42.08063,60.06687 112.58605,96.74061 184.88885,104.32792 0,-19.79233 0,-39.58467 0,-59.377 z m -1406.8454,56.8867 C -183.20005,955.29137 -61.32075,883.20733 12.945247,776.07452 29.07299,752.61574 44.729204,728.31913 56.8572,702.64789 c -43.8372,0 -87.6744,0 -131.5116,0 -17.868969,22.2175 -34.94582,45.15252 -56.4006,64.12202 -21.17852,21.11991 -46.0065,38.17666 -71.90471,52.99995 -39.11931,21.60393 -82.93333,33.89405 -127.18309,39.24683 0,36.87707 0,73.75413 0,110.6312 5.74109,0.0321 11.44566,-1.01891 17.1546,-1.4899 z m 2708.376,-112.5101 c 52.7296,-38.05098 105.279,-76.35739 158.3007,-114 105.6096,75.43065 210.4652,151.91452 315.6687,227.9114 -25.672,-84.97204 -54.5482,-169.6416 -81.8642,-254.41247 -12.5906,-38.60241 -25.1813,-77.20482 -37.772,-115.80723 104.3975,-77.56246 211.0265,-152.30781 315.5648,-229.6917 -130.3095,-0.003 -260.6191,-0.005 -390.9286,-0.008 -40.1468,-123.51493 -79.7145,-247.22158 -120.5364,-370.51448 -4.2928,7.7005608 -6.8261,20.202536 -10.4443,29.744096 -36.9708,113.592794 -73.9416,227.185594 -110.9124,340.778384 -130.0171,0 -260.0342,0 -390.0513,0 103.997,77.63616 210.4824,152.13675 314.5604,229.6716 -39.7743,123.45398 -80.5078,246.78437 -119.5656,370.3284 52.8145,-37.78403 105.3427,-75.96972 157.9802,-114 z m -2813.7721,58.2776 c -0.0862,-18.24077 -0.17233,-36.48153 -0.2585,-54.7223 -56.21998,-7.09896 -110.97631,-27.01791 -156.68168,-61.01204 -33.32343,-23.97251 -62.7909,-53.47693 -86.96296,-86.6207 -28.26628,-37.95411 -48.46775,-81.73194 -60.41387,-127.44652 -11.78795,-46.23528 -15.52509,-94.38304 -11.85517,-141.92213 3.9608,-47.09288 16.82993,-93.40691 38.10223,-135.64499 23.05816,-45.01531 55.63042,-84.76479 93.27791,-118.38464 51.89102,-44.91936 116.70077,-75.06593 185.03354,-82.8374 0,-37.636487 0,-75.272973 0,-112.90946 -56.67859,6.078551 -113.5229,18.661942 -164.42642,45.063907 -33.61862,16.088802 -64.53073,37.405497 -93.42876,60.812946 -21.77278,18.386687 -41.79446,38.551957 -60.64493,59.906807 -19.89969,23.60454 -38.42585,48.46541 -53.76796,75.32206 -12.15525,20.34691 -22.08545,42.1378 -30.96434,64.09015 -11.0466,27.53749 -19.08808,56.14579 -24.81824,85.22317 -5.13862,27.49616 -7.44034,55.28015 -8.23047,83.21751 -0.39786,24.86365 0.993,49.89739 3.32742,74.65024 3.53397,31.49647 9.84773,62.68237 18.81692,93.05626 8.57913,28.73731 20.22857,56.39738 33.75661,83.11834 13.12671,23.84737 27.44297,46.92206 44.17202,68.42949 21.7104,27.88741 46.44784,53.52532 73.23635,76.58225 32.1812,26.77357 67.6522,49.63251 105.83462,66.84645 49.60696,22.18376 103.02612,35.44422 157.15428,39.903 -0.0862,-18.2408 -0.1724,-36.4816 -0.2586,-54.7224 z m 1632.9819,46.6524 c 62.2726,-17.37377 117.1554,-58.94338 150.5146,-114.26589 30.4631,-48.3898 44.2763,-105.68893 46.8781,-162.36705 0.8448,-34.23039 0.1448,-68.77425 -9.8677,-101.88226 -12.2631,-49.56827 -45.3472,-92.28577 -88.1007,-119.73343 -35.8878,-24.07194 -76.1853,-40.93127 -117.6114,-52.89129 -17.9112,-12.28727 -16.3234,1.87922 -15.5533,15.16423 0,35.61477 0,71.22953 0,106.8443 38.5436,19.91927 76.2321,45.80611 98.2773,84.13539 10.6636,19.89128 17.5257,42.13054 16.5391,64.88485 1.2758,43.78844 -12.0585,89.55809 -41.3679,122.6814 -19.294,21.84551 -45.1783,36.6735 -72.9485,45.12235 -0.1719,40.03777 -0.3437,80.07553 -0.5155,120.1133 11.329,-2.2578 22.6522,-4.58607 33.7559,-7.8059 z m 649.2596,-424.43 c 0,-137.5 0,-275 0,-412.5 103.6667,0 207.3333,0 311,0 0,-37.666667 0,-75.333333 0,-113 -141.3333,0 -282.6667,0 -424,0 0,312.66667 0,625.33333 0,938 37.6667,0 75.3333,0 113,0 0,-137.5 0,-275 0,-412.5 z m -1599,-62 c 0,-157.83333 0,-315.66667 0,-473.5 -38.66667,0 -77.33333,0 -116,0 0,315.66667 0,631.33333 0,947 38.66667,0 77.33333,0 116,0 0,-157.83333 0,-315.66667 0,-473.5 z m 553,472.9546 C 690.28639,787.8098 562.00265,629.08768 433.936,470.19293 564.33118,314.00948 695.07418,158.10006 824.8463,1.39789 c -11.43647,-1.75321952 -26.1795,-0.2475856 -38.88509,-0.75 -33.61697,0 -67.23394,0 -100.85091,0 -111.36494,133.8652 -222.73617,267.72519 -334.2097,401.5 0.007,55 0.0133,110 0.02,165 8.90141,-19.05552 17.4694,5.08988 25.80153,12.8113 99.13131,122.5861 197.85296,245.51964 297.48737,367.6887 47.8838,0 95.7676,0 143.6514,0 l 0,-0.5454 -0.004,0 z m -3298,-473.9546 c 0,-157.5 0,-315 0,-472.5 -38.3333,0 -76.6667,0 -115,0 0,315 0,630 0,945 38.3333,0 76.6667,0 115,0 0,-157.5 0,-315 0,-472.5 z m 516.2072,462.25 c -86.4759,-112.34191 -172.8862,-224.73426 -259.3257,-337.1042 52.675,-9.42683 105.9566,-24.56949 150.9085,-54.75844 44.8108,-31.00533 73.1146,-81.2127 90.0933,-131.98143 14.2713,-45.3463 17.8438,-93.90109 11.5164,-140.92647 -4.3912,-31.80895 -12.8366,-63.11317 -26.5778,-92.19345 -11.9617,-27.31527 -28.4488,-52.46884 -47.4734,-75.36342 -26.2033,-29.254341 -57.4829,-54.280124 -93.4399,-70.472638 -71.6122,-32.95629978 -151.9745,-30.970467 -229.0869,-31.93462074 -7.7047,0.94435774 -19.5533,-2.31205046 -24.8217,1.10214104 0,38.6275097 0,77.2550187 0,115.8825277 58.7113,0.3461 118.3268,-2.23555 176.0173,10.42237 27.4581,8.48664 53.4925,22.64962 72.408,44.58659 38.5584,38.42444 55.4601,94.13047 53.0103,147.69479 1.9943,69.24234 -46.1501,134.94213 -111.1176,157.52083 -29.4859,11.25523 -61.092,14.31236 -92.3917,13.18983 -45.3443,0.25532 -90.6886,0.51063 -136.0329,0.76595 110.9245,151.62732 222.9862,302.54252 334.4616,453.81964 46.592,0 93.1841,0 139.7761,0 -2.6413,-3.41667 -5.2826,-6.83333 -7.9239,-10.25 z m 5204.7938,-406 c 0.3247,-154.5946 -0.6785,-309.19703 0.561,-463.786247 0.2552,-21.654584 0.5103,-43.309169 0.7655,-64.963753 -38.7758,0 -77.5517,0 -116.3275,0 0,315 0,630 0,945 38.3333,0 76.6667,0 115,0 7e-4,-138.74967 0,-277.502 0,-416.25 z m 523.999,415.9501 c -88.6138,-116.00675 -178.1839,-231.28412 -266.4751,-347.5362 67.2604,-11.40255 138.0715,-33.05757 185.5438,-84.81075 44.1107,-53.2831 68.7558,-121.51111 69.7109,-190.6092 0.5229,-36.36653 -4.0065,-73.0456 -15.5092,-107.65104 -9.0694,-29.49474 -22.9983,-57.48895 -39.9225,-83.24123 -14.4064,-21.0372 -31.2005,-40.516789 -50.561,-57.107242 C 3602.3867,34.265321 3543.3416,12.118132 3483.5763,6.1797148 3432.254,-0.45985359 3380.4543,1.6670316 3328.8572,0.32399 c 0,39.107967 0,78.215933 0,117.3239 58.3726,0.33404 117.6015,-2.17197 174.9676,10.27169 59.5277,15.12406 104.1819,67.37188 119.7084,125.44481 6.6337,24.09355 8.534,48.89365 7.4794,73.74981 -1.4411,45.89706 -23.3023,90.49863 -58.5687,119.88835 -39.2825,34.01541 -92.7916,46.30471 -143.7791,44.18169 -45.9126,0.32154 -91.8252,0.64309 -137.7378,0.96464 111.4767,151.12989 222.9534,302.25979 334.4301,453.3897 46.4995,-0.0393 93.0043,0.28515 139.5001,-0.19059 z m -5226,-65.7001 c -0.4179,-17.7868 0.8301,-37.23947 -0.614,-54 -72.4008,-8.74364 -141.4566,-41.38864 -193.7443,-92.35798 -29.0169,-27.52066 -53.7889,-59.61438 -72.6587,-94.91261 -22.7622,-42.00089 -35.9307,-88.75337 -41.0949,-136.14936 -4.3331,-38.49777 -3.3602,-77.65389 4.3912,-115.67405 5.8597,-31.94803 17.1718,-62.72884 30.6238,-92.20791 16.1876,-32.01538 35.7661,-62.37342 59.8064,-89.07715 32.8592,-37.13772 73.7191,-67.3339 119.3127,-87.06112 29.8556,-13.38524 61.6762,-21.810735 93.9778,-26.70162 0,-36.6321 0,-73.2642 0,-109.8963 -54.5388,6.17731 -109.026,18.79037806 -158.2149,43.803704 -22.247,10.515798 -43.4795,23.438741 -63.578,37.602857 -30.8915,21.885183 -59.2229,47.338449 -84.2221,75.770709 -20.7394,22.98087 -39.0259,48.22761 -54.682,74.94533 -12.5805,20.55564 -22.8988,42.59766 -32.0043,64.87819 -11.228,27.9847 -19.5252,57.09204 -25.2302,86.66378 -5.4133,30.94799 -8.1703,62.28771 -8.0134,93.69266 1.0949,40.63285 4.6513,81.3935 14.7808,120.85805 5.2557,24.49988 13.57,48.37911 23.0879,71.51099 11.602,27.58053 25.8798,54.03466 42.6195,78.80887 17.872,26.17821 38.3275,50.4938 60.6481,72.96217 33.9182,33.91242 72.7217,63.15907 115.7051,84.591 38.023,19.65257 79.316,32.41803 121.3191,40.29647 15.7878,2.7172 31.7925,4.68874 47.7844,5.65332 0,-18 0,-36 0,-54 z m 107.7483,51.5071 c 46.0706,-5.74362 91.4693,-18.46571 133.4217,-38.37323 24.5111,-11.7696 47.7559,-25.69591 70.0472,-41.24641 18.798,-14.00746 37.4395,-28.64143 54.3666,-44.88919 28.053,-26.88187 52.9151,-56.97628 73.8301,-89.72792 18.4489,-28.82227 33.41213,-59.89724 44.827,-92.15665 14.53276,-40.81243 22.64627,-83.69119 26.04219,-126.80964 1.85954,-28.51918 2.27222,-57.03643 0.0699,-85.55016 -2.41933,-30.51847 -7.27315,-60.91398 -15.51822,-90.43911 -7.84792,-29.45808 -19.06891,-57.97787 -33.0106,-85.09768 -13.80627,-26.56698 -29.93827,-52.02373 -48.74127,-75.37491 -14.4333,-19.07429 -31.2682,-36.36019 -48.2942,-53.09803 -28.977,-26.782831 -60.4684,-50.869136 -94.885,-70.261785 -34.0469,-19.245683 -70.5996,-34.1058056 -108.6277,-43.4349958 -24.343,-6.0072392 -49.315,-10.0366732 -74.2931,-12.0472592 0.1724,36.5 0.3448,73 0.5171,109.5 68.3352,8.90589 133.6773,38.56155 184.8906,84.83888 35.9821,31.4834 65.8871,69.92954 87.8162,112.38292 19.8382,38.77566 31.2733,81.30076 36.4032,124.44286 1.3087,24.95464 0.7809,50.1949 0.3555,75.19122 -4.7956,44.65639 -14.4043,89.22025 -33.6117,130.02344 -17.738,39.81855 -43.3028,76.05782 -73.827,107.08504 -51.6574,53.18948 -120.7091,89.88241 -194.5306,98.97858 -12.3893,-1.86923 -6.0048,12.44004 -7.587,19.88394 -0.1424,29.55771 -0.2848,59.11541 -0.4272,88.67312 6.9405,-0.50607 13.8488,-1.70051 20.7663,-2.49303 z M 1093.8572,435.31998 c 0,-20.44264 0,-40.88528 0,-61.32792 -30.9475,-11.95807 -62.0459,-28.36475 -80.8914,-56.71182 -24.12798,-36.46698 -23.48511,-84.40028 -9.8234,-124.63607 14.6466,-38.97721 47.8803,-70.15788 87.4643,-83.02972 4.5184,-5.41643 2.3136,-16.080387 3.0407,-23.550679 0.07,-30.183554 0.1403,-60.367107 0.2104,-90.550661 C 1026.8323,5.7974377 963.39083,41.623848 924.35078,97.772573 889.259,145.47333 875.48378,205.74233 877.7688,264.23204 c 0.11084,60.07557 24.08959,121.59816 71.26124,160.12952 41.47104,35.3163 92.97516,56.70255 144.52516,72.27505 0.7009,-19.77399 0.1033,-41.03867 0.302,-61.31663 z M 64.6834,268.89789 C 26.289452,192.39246 -27.907777,122.39115 -99.146616,73.909244 -166.66733,26.038457 -247.90235,-0.95483507 -330.1428,-7.35211 c 0,37.54829 0,75.09658 0,112.64487 45.60543,5.31074 90.86457,18.01146 130.70472,41.14335 19.80331,11.40979 38.47226,24.41506 55.67807,39.47825 16.82545,14.17616 31.94086,30.51916 46.645776,46.83721 9.490478,12.25299 18.980956,24.50598 28.471434,36.75897 44.555567,0.0458 89.111133,0.0916 133.6667,0.1374 l -0.3405,-0.75 0,-5e-5 z m 1328.1675,-11.5 c -3.9462,-62.47085 -17.5178,-127.0259 -56.48,-177.700464 -36.3004,-49.679937 -95.4148,-77.8257842 -155.5137,-84.999536 0,37.26192 0,74.52384 0,111.78576 35.2094,9.12549 65.6419,34.26843 80.3311,67.52108 13.1427,26.26229 18.3826,55.61176 20.6689,84.64316 37,0 74,0 111,0 l -0.01,-1.25 0,0 z m 272.0063,-190.25 c 0,-18.833333 0,-37.666667 0,-56.5 -69.3333,0 -138.6667,0 -208,0 0,37.666667 0,75.333333 0,113 69.3333,0 138.6667,0 208,0 0,-18.83333 0,-37.666667 0,-56.5 z"
         id="path2998"
         style="fill:#0d0d0d" />
    </g>
  </g>
</svg>
