<?xml version="1.0" encoding="utf-8"?>
<!-- Generator: Adobe Illustrator 23.0.1, SVG Export Plug-In . SVG Version: 6.00 Build 0)  -->
<svg version="1.1" id="Layer_1" xmlns="http://www.w3.org/2000/svg" xmlns:xlink="http://www.w3.org/1999/xlink" x="0px" y="0px"
	 viewBox="0 0 71.4 30.3" style="enable-background:new 0 0 71.4 30.3;" xml:space="preserve">
<style type="text/css">
	.st0{fill:#1A2560;}
	.st1{fill:#CCBD81;}
</style>
<title>Asset 3</title>
<g>
	<g id="Layer_1-2">
		<path class="st0" d="M1.6,16.4c0.9-0.2,1.9-0.3,2.8-0.3c1.2-0.1,2.4,0.2,3.3,1c0.7,0.6,1.1,1.5,1,2.5c0,1.3-0.8,2.5-2,3l0,0
			c1.5,0.5,2.6,1.9,2.5,3.5c0,1-0.3,2-1,2.8C7.3,29.8,6,30.2,4,30.2c-0.8,0-1.6,0-2.4-0.2L1.6,16.4z M3.1,22.1h1.4
			c1.3,0.1,2.4-0.8,2.6-2c0-0.1,0-0.2,0-0.3c0-1.6-1.1-2.3-2.6-2.3c-0.5,0-0.9,0-1.4,0.1L3.1,22.1z M3.1,28.7
			c0.4,0.1,0.9,0.1,1.3,0.1c1.6,0,3.1-0.7,3.1-2.7s-1.4-2.7-3.1-2.7H3.1L3.1,28.7z"/>
		<path class="st0" d="M18.6,25c0,3.7-2.2,5.3-4.3,5.3c-2.3,0-4.1-2-4.1-5.1c0-3.3,1.9-5.3,4.3-5.3S18.6,22,18.6,25z M11.8,25.1
			c0,2.2,1.1,3.8,2.6,3.8s2.6-1.6,2.6-3.9c0-1.7-0.7-3.8-2.6-3.8S11.8,23.2,11.8,25.1L11.8,25.1z"/>
		<path class="st0" d="M28,25c0,3.7-2.2,5.3-4.3,5.3c-2.3,0-4.1-2-4.1-5.1c0-3.3,1.9-5.3,4.3-5.3S28,22,28,25z M21.1,25.1
			c0,2.2,1.1,3.8,2.6,3.8s2.6-1.6,2.6-3.9c0-1.7-0.7-3.8-2.6-3.8S21.1,23.2,21.1,25.1L21.1,25.1z"/>
		<path class="st0" d="M31.1,24.7L31.1,24.7c0.2-0.4,0.5-0.8,0.8-1.1l2.5-3.4h1.9L33,24.2l3.8,5.9h-1.9l-3-4.8l-0.8,1v3.8h-1.5V15.4
			h1.6V24.7z"/>
		<path class="st0" d="M37.2,28.2c0.6,0.5,1.3,0.7,2.1,0.8c0.8,0.1,1.6-0.4,1.7-1.2c0-0.1,0-0.2,0-0.3c0-0.9-0.5-1.3-1.6-1.8
			c-1.6-0.6-2.3-1.6-2.3-2.8c-0.1-1.6,1.2-2.9,2.7-2.9c0.1,0,0.2,0,0.3,0c0.8,0,1.5,0.2,2.1,0.6l-0.4,1.3c-0.5-0.4-1.2-0.6-1.8-0.6
			c-0.7-0.1-1.4,0.5-1.4,1.2c0,0,0,0.1,0,0.1c0,0.8,0.5,1.2,1.6,1.7c1.5,0.7,2.3,1.5,2.3,3c0.1,1.6-1.2,3-2.8,3c-0.2,0-0.3,0-0.5,0
			c-0.9,0-1.7-0.2-2.4-0.7L37.2,28.2z"/>
		<path class="st0" d="M46,17.2v2.9h2.2v1.4H46v5.4c0,1.2,0.3,1.9,1.2,1.9c0.3,0,0.6,0,0.9-0.1l0.1,1.4c-0.4,0.2-0.9,0.3-1.4,0.2
			c-0.7,0.1-1.3-0.2-1.8-0.8c-0.5-0.8-0.7-1.7-0.6-2.6v-5.4h-1.3v-1.4h1.3v-2.4L46,17.2z"/>
		<path class="st0" d="M57.2,25c0,3.7-2.2,5.3-4.3,5.3c-2.3,0-4.1-2-4.1-5.1c0-3.3,1.9-5.3,4.3-5.3S57.2,22,57.2,25z M50.4,25.1
			c0,2.2,1.1,3.9,2.6,3.9s2.6-1.6,2.6-3.9c0-1.7-0.7-3.8-2.6-3.8S50.4,23.2,50.4,25.1L50.4,25.1z"/>
		<path class="st0" d="M58.8,23.2c0-1.2,0-2.2-0.1-3.1h1.4v2h0.1c0.2-1.2,1.2-2.1,2.4-2.2c0.2,0,0.3,0,0.5,0.1v1.7
			c-0.2,0-0.4-0.1-0.5-0.1c-1.1,0-1.9,1-2.1,2.3c0,0.3-0.1,0.6-0.1,0.9v5.3h-1.5V23.2z"/>
		<path class="st0" d="M64.8,25.4c0,2.5,1.4,3.5,3,3.5c0.8,0,1.6-0.1,2.4-0.5l0.3,1.3c-0.9,0.4-1.9,0.6-2.9,0.6c-2.7,0-4.2-2-4.2-5
			s1.5-5.4,4.1-5.4c2.8,0,3.6,2.9,3.6,4.7c0,0.3,0,0.6,0,0.9L64.8,25.4z M69.4,24.1c0-1.2-0.4-3-2.2-3c-1.6,0-2.3,1.7-2.4,3H69.4z"
			/>
		<path class="st0" d="M8.7,6.8c0,2.1-0.3,3.7-3.5,3.7S1.5,9,1.5,6.8V1.7c0-1.2-0.5-1.3-1.3-1.3V0.2h4v0.3c-0.8,0-1.3,0.1-1.3,1.3
			v5.1c0,1.6,0.4,3.1,2.4,3.1c2.2,0,2.6-1.3,2.6-3.1V1.7c0-1.2-0.5-1.3-1.3-1.3V0.2H10v0.3c-0.8,0-1.3,0.1-1.3,1.3L8.7,6.8z"/>
		<path class="st0" d="M17.2,10.1c-0.9,0.3-1.8,0.4-2.8,0.4c-3.1,0-4.5-2.3-4.5-5.6c0-2.8,0.9-4.9,4.2-4.9c1,0,2,0.2,3,0.4l0.1,2.4
			h-0.4c-0.2-1.3-1.4-2.3-2.7-2.2c-2.5,0-2.7,2.6-2.7,4.2c0,2,0.4,5,3.8,5c0.7,0,1.4-0.1,2-0.4L17.2,10.1z"/>
		<path class="st0" d="M25.4,2.4c-0.2-1.2-1.3-1.9-2.4-1.8c-1-0.1-1.8,0.6-1.9,1.6c0,0,0,0,0,0c0,1.4,1.8,1.8,3.2,2.6s2,1.3,2,2.8
			c0,1.9-1.7,2.9-3.8,2.9c-0.9,0-1.8-0.1-2.6-0.3l-0.1-2.2h0.4c0.2,1.2,1.3,1.9,2.5,1.8c1.1,0.1,2.1-0.7,2.2-1.8c0-0.1,0-0.1,0-0.2
			c0-1.7-2.6-2.2-4-3.2c-0.7-0.5-1.1-1.2-1-2.1C19.9,0.8,21.4,0,23.3,0c0.8,0,1.6,0.1,2.4,0.3l0.1,2.1H25.4z"/>
		<path class="st0" d="M32.6,10.4c-0.3,0.1-0.7,0.1-1,0.1c-0.8,0-1-0.4-1-1l0,0c-0.4,0.7-1.2,1-1.9,1c-0.8,0.1-1.6-0.6-1.6-1.4
			c0,0,0-0.1,0-0.1c0-2,2.6-2,3.6-2.1V6.4c0-1,0-2-1.2-2c-0.8,0-1,0.4-1,0.8c0,0.4-0.2,0.7-0.6,0.7c0,0,0,0-0.1,0
			c-0.3,0-0.6-0.2-0.7-0.6c0,0,0,0,0,0c0-0.9,1.3-1.3,2.3-1.3c1.9,0,2.2,0.9,2.2,2.2v3.4c0,0.5,0.2,0.6,0.6,0.6c0.1,0,0.2,0,0.4-0.1
			L32.6,10.4z M30.6,7.3c-0.6,0-2.4,0.1-2.4,1.4c-0.1,0.6,0.3,1.1,0.9,1.2c0.9-0.1,1.6-0.9,1.5-1.8L30.6,7.3z"/>
		<path class="st0" d="M32.9,10.2c0.6,0,1-0.1,1-1V5.4c0-0.8-0.6-0.9-1-0.9V4.3L35,4v1.8l0,0c0.3-1,1.2-1.7,2.2-1.8
			c1.5,0,1.6,0.8,1.6,2.1v3.1c0,0.9,0.5,1,1,1v0.2h-3.1v-0.2c0.6,0,1-0.1,1-1V6.3c0-1.2,0-1.7-0.9-1.7S35,6.2,35,7.5v1.7
			c0,0.9,0.5,1,1,1v0.2h-3.1V10.2z"/>
		<path class="st0" d="M41.4,10.1c0.8,0,1.3-0.1,1.3-1.3V1.7c0-1.2-0.5-1.3-1.3-1.3V0.2H45c2.5,0,5.2,0.6,5.2,5.1s-2.8,5.1-5.2,5.1
			h-3.6L41.4,10.1z M44.1,8.5c0,1.1,0.1,1.3,0.9,1.3c2.6,0,3.7-1.4,3.7-4.5c0-2.8-0.8-4.5-3.7-4.5c-0.8,0-0.9,0.1-0.9,1.3V8.5z"/>
		<path class="st0" d="M50.8,10.2c0.6,0,1-0.1,1-1V5.4c0-0.8-0.6-0.9-1-0.9V4.3L52.9,4v5.1c0,0.9,0.5,1,1,1v0.2h-3.1V10.2z
			 M51.5,1.9c0-0.4,0.3-0.8,0.7-0.9s0.8,0.3,0.9,0.7c0,0.1,0,0.1,0,0.2c0,0.4-0.3,0.8-0.7,0.9s-0.8-0.3-0.9-0.7
			C51.5,2,51.5,2,51.5,1.9z"/>
		<path class="st0" d="M58.9,10.3c-0.5,0.2-1.1,0.3-1.6,0.2c-2.1,0-3.3-1.2-3.3-3.4c0-2,0.8-3.1,2.8-3.1c1.2-0.1,2.2,0.8,2.3,2
			c0,0.1,0,0.2,0,0.3v0.3h-4c0,1.2,0.6,3.5,2.8,3.5c0.3,0,0.7,0,1-0.2L58.9,10.3z M57.9,6.1c0-0.7-0.2-1.7-1.3-1.7s-1.5,1.2-1.5,1.7
			H57.9z"/>
		<path class="st0" d="M63.5,9.3c0.6,0,2.2,0,2.2,1.6s-1.5,2.4-3.3,2.4c-1.3,0-2.7-0.5-2.7-1.7c0-0.7,0.4-1.2,1.1-1.4
			c-0.4-0.2-0.6-0.6-0.6-1c0.1-0.5,0.3-0.9,0.6-1.2c-0.6-0.4-0.9-1.1-0.8-1.8c0-1.7,1.3-2.1,2.6-2.1c0.5,0,1,0.1,1.4,0.3
			c0.2-0.5,0.5-1.5,1.4-1.5c0.3,0,0.6,0.2,0.7,0.6c0,0,0,0.1,0,0.1c0,0.3-0.2,0.6-0.5,0.6c0,0-0.1,0-0.1,0c-0.4,0-0.4-0.2-0.6-0.2
			s-0.4,0.4-0.5,0.6c0.4,0.4,0.6,1,0.6,1.6c0,1.4-0.9,2.2-2.5,2.2c-0.4,0-0.8-0.1-1.2-0.2c-0.2,0.2-0.2,0.4-0.2,0.6
			c0,0.5,0.7,0.5,1.1,0.5H63.5z M61.1,10.3c-0.4,0.2-0.6,0.6-0.7,1.1c0,0.8,0.7,1.5,1.9,1.5s2.4-0.6,2.4-1.6c0-0.7-0.6-0.9-1.3-0.9
			H61.1z M62.3,7.9c1.2,0,1.3-0.9,1.3-1.6c0-1-0.4-1.8-1.3-1.8S61,5.2,61,6C61,7,61.3,7.9,62.3,7.9L62.3,7.9z"/>
		<path class="st0" d="M65.7,7.2c0-2,1.1-3.3,2.9-3.3s2.9,1.2,2.9,3.3s-1.1,3.3-2.9,3.3S65.7,9.3,65.7,7.2z M68.5,10.1
			c1.4,0,1.6-1.7,1.6-2.8s-0.3-2.8-1.6-2.8s-1.6,1.7-1.6,2.8S67.2,10.1,68.5,10.1z"/>
		<g id="line">
			<path class="st1" d="M59.2,12.8H0v0.4h59.5C59.4,13,59.3,12.9,59.2,12.8z"/>
			<path class="st1" d="M71.1,12.8h-5.8c-0.1,0.1-0.3,0.2-0.4,0.4h6.2V12.8z"/>
		</g>
	</g>
</g>
</svg>
