<?xml version="1.0" standalone="no"?>
<!DOCTYPE svg PUBLIC "-//W3C//DTD SVG 20010904//EN"
 "http://www.w3.org/TR/2001/REC-SVG-20010904/DTD/svg10.dtd">
<svg version="1.0" xmlns="http://www.w3.org/2000/svg"
 width="2084.000000pt" height="2084.000000pt" viewBox="0 0 2084.000000 2084.000000"
 preserveAspectRatio="xMidYMid meet">
<metadata>
Created by potrace 1.11, written by Peter Selinger 2001-2013
</metadata>
<g transform="translate(0.000000,2084.000000) scale(0.100000,-0.100000)"
fill="#000000" stroke="none">
<path d="M16540 17639 c-367 -209 -766 -382 -1550 -671 -492 -181 -738 -265
-1315 -451 -160 -52 -816 -249 -985 -296 -80 -23 -158 -45 -175 -50 -60 -19
-736 -207 -778 -216 -15 -3 -107 -28 -357 -96 -25 -7 -52 -14 -60 -16 -8 -1
-82 -21 -165 -43 -82 -23 -157 -43 -165 -44 -8 -2 -44 -12 -80 -21 -36 -9 -72
-19 -80 -20 -8 -2 -42 -11 -75 -20 -80 -21 -366 -96 -385 -101 -8 -2 -85 -22
-170 -44 -85 -23 -162 -43 -170 -45 -8 -1 -78 -19 -155 -40 -77 -20 -147 -38
-155 -40 -8 -1 -109 -28 -225 -59 -115 -30 -289 -76 -385 -101 -1041 -275
-1643 -464 -2116 -666 -165 -70 -507 -240 -535 -265 -8 -8 -19 -14 -24 -14
-20 0 -343 -204 -505 -318 -99 -70 -290 -217 -354 -272 -107 -91 -153 -134
-248 -231 -327 -332 -497 -655 -563 -1074 -11 -67 -13 -306 -4 -375 13 -98 19
-133 24 -150 2 -8 6 -26 9 -40 26 -156 155 -460 264 -624 15 -23 34 -54 42
-69 22 -44 171 -238 219 -285 96 -95 208 -180 299 -226 33 -17 52 -14 52 8 0
7 25 41 56 75 47 52 74 70 158 111 142 68 364 133 531 156 28 3 59 8 70 10 10
2 49 6 85 10 36 3 76 7 90 10 127 21 851 21 991 -1 13 -2 71 -6 129 -10 58 -3
121 -8 140 -10 19 -2 67 -6 105 -10 39 -3 84 -8 100 -10 17 -2 57 -7 90 -10
33 -3 71 -7 85 -10 14 -2 52 -7 85 -10 77 -8 198 -25 201 -28 2 -2 -56 -22
-129 -46 -205 -66 -448 -160 -657 -253 -62 -28 -247 -121 -292 -147 -21 -11
-53 -29 -70 -39 -251 -143 -474 -319 -665 -525 -29 -32 -57 -57 -63 -57 -6 0
-100 25 -211 56 -110 30 -208 57 -217 59 -9 2 -66 18 -127 35 -60 18 -117 33
-125 35 -19 4 -339 91 -405 110 -57 16 -352 95 -375 100 -28 6 -465 124 -495
134 -26 8 -129 36 -175 46 -8 2 -67 18 -130 35 -63 18 -122 33 -130 35 -8 2
-51 13 -95 25 -44 12 -87 23 -95 25 -28 7 -395 105 -445 120 -47 13 -270 72
-304 81 -9 2 -43 11 -76 20 -33 9 -67 17 -75 19 -8 2 -40 10 -71 19 -31 9 -65
19 -75 21 -11 2 -80 20 -154 41 -74 20 -142 38 -150 40 -8 2 -76 20 -150 40
-74 20 -142 38 -150 40 -27 7 -123 32 -235 62 -60 17 -153 41 -205 55 -52 14
-147 40 -210 57 -63 18 -123 33 -132 35 -20 4 -150 40 -223 61 -27 7 -282 77
-565 153 -283 77 -582 158 -664 181 -82 22 -150 39 -152 38 -2 -2 20 -29 49
-59 160 -171 299 -318 327 -349 18 -19 82 -88 144 -154 61 -65 122 -130 135
-145 31 -34 254 -272 351 -375 41 -43 91 -96 110 -116 19 -20 68 -73 109 -116
209 -222 472 -494 697 -724 138 -140 278 -284 310 -320 132 -147 220 -228 282
-259 35 -18 127 -54 205 -80 78 -27 291 -105 472 -174 182 -69 420 -160 530
-202 110 -41 207 -77 215 -80 40 -11 240 -91 240 -95 0 -5 -481 -113 -595
-134 -11 -2 -112 -23 -225 -46 -113 -23 -209 -43 -215 -44 -5 -1 -23 -5 -40
-9 -16 -4 -41 -9 -55 -11 -26 -4 -317 -62 -495 -98 -55 -11 -111 -22 -125 -24
-42 -8 -234 -45 -255 -50 -11 -2 -36 -7 -55 -10 -19 -3 -42 -7 -50 -9 -8 -3
-33 -7 -55 -10 -22 -4 -48 -8 -57 -11 -10 -3 -28 -7 -40 -9 -13 -3 -72 -14
-133 -25 -60 -12 -121 -23 -135 -26 -14 -2 -36 -7 -50 -9 -14 -3 -38 -8 -55
-11 -25 -4 -323 -62 -405 -78 -14 -2 -61 -12 -104 -20 -43 -9 -81 -17 -82 -19
-4 -3 72 -32 361 -139 44 -17 92 -34 106 -38 15 -4 42 -15 60 -23 19 -8 149
-56 289 -107 140 -50 264 -96 275 -101 11 -5 49 -18 84 -29 35 -11 71 -26 79
-33 8 -6 17 -10 19 -8 3 3 493 -169 538 -190 18 -8 457 -166 760 -274 223 -79
380 -136 400 -145 188 -79 315 -124 390 -137 97 -17 271 -5 484 32 13 2 45 7
70 11 25 4 54 8 65 10 42 8 128 16 190 18 70 3 78 -3 52 -39 -8 -11 -378 -385
-822 -831 -1425 -1430 -1451 -1455 -1413 -1449 18 3 35 8 39 10 3 2 17 6 31 9
22 4 183 45 639 162 96 25 182 47 190 49 8 2 62 15 120 30 58 14 116 29 130
32 51 10 55 12 55 13 0 1 7 3 15 5 8 1 80 19 160 40 80 20 154 38 165 41 11 2
209 51 440 109 384 97 439 110 485 120 8 2 15 4 15 5 0 1 7 3 15 5 8 1 71 17
140 35 69 17 133 34 142 36 35 8 55 13 198 47 80 20 206 50 280 67 74 18 140
35 145 39 6 5 21 11 35 14 52 13 194 117 320 237 53 49 182 160 265 227 146
116 277 222 318 257 l49 41 21 -30 c82 -112 430 -542 528 -650 15 -16 37 -41
49 -55 241 -279 764 -790 1125 -1099 201 -172 217 -186 298 -250 42 -33 112
-89 155 -123 91 -72 435 -329 507 -379 28 -19 52 -36 55 -39 3 -3 49 -36 103
-74 l99 -67 81 52 c45 29 91 61 103 71 11 10 23 18 27 18 5 0 93 58 237 158
36 25 120 86 188 136 68 50 133 98 146 106 28 19 163 125 326 255 123 98 439
366 497 422 17 15 79 73 139 128 191 176 490 482 670 684 21 24 52 58 68 74
53 56 286 340 408 497 66 85 123 156 127 158 8 3 197 -137 356 -262 118 -93
137 -110 215 -182 165 -155 254 -234 262 -234 4 0 13 -6 20 -13 37 -37 193
-103 288 -121 55 -11 169 -36 181 -41 8 -2 25 -6 39 -9 14 -2 53 -12 87 -21
35 -9 73 -18 84 -20 12 -3 36 -9 53 -14 17 -6 42 -12 56 -15 14 -3 153 -37
310 -76 157 -39 368 -91 470 -115 102 -25 201 -49 220 -55 38 -10 324 -80 353
-86 10 -2 27 -6 37 -9 10 -3 27 -7 37 -9 25 -6 654 -165 848 -216 88 -23 165
-43 170 -44 6 -2 30 -8 55 -15 25 -7 52 -15 60 -16 20 -5 170 -44 194 -51 28
-9 13 12 -109 142 -235 252 -322 341 -1010 1029 -390 391 -759 763 -820 826
-148 156 -289 309 -293 318 -6 16 196 0 364 -30 65 -11 139 -23 164 -26 25 -3
70 -8 100 -12 79 -10 220 -5 282 9 48 12 176 62 282 110 22 10 82 33 131 51
50 17 106 38 125 45 87 32 369 133 1005 358 259 92 499 178 535 191 123 45
825 297 835 299 6 2 21 8 35 13 14 6 70 27 125 46 213 76 263 96 239 98 -5 0
-16 2 -24 4 -34 7 -280 59 -340 71 -36 7 -76 16 -90 19 -217 44 -269 55 -290
59 -14 2 -83 16 -155 31 -71 15 -139 29 -150 30 -11 2 -67 13 -125 24 -58 12
-118 24 -135 27 -16 3 -49 9 -73 15 -23 5 -59 12 -80 15 -20 3 -39 7 -42 9 -3
2 -26 6 -50 10 -25 3 -74 12 -110 20 -141 29 -197 40 -280 55 -89 16 -103 19
-150 29 -25 6 -106 22 -180 36 -74 14 -146 28 -160 31 -33 7 -158 31 -190 37
-14 3 -128 26 -255 52 -126 26 -257 53 -290 59 l-60 11 70 29 c39 16 84 35
100 42 80 35 739 296 760 301 6 1 91 34 190 73 99 38 239 89 310 111 72 23
136 46 143 51 6 6 12 7 12 4 0 -4 35 11 78 34 81 42 180 131 336 300 61 67
313 333 421 445 44 46 326 341 419 438 51 54 308 322 490 511 52 54 309 322
456 476 30 31 125 130 210 220 85 89 170 178 189 196 18 19 29 34 25 34 -7 0
-388 -101 -779 -206 -115 -31 -121 -33 -142 -38 -10 -3 -61 -16 -113 -31 -52
-14 -138 -38 -190 -51 -52 -14 -203 -55 -335 -90 -255 -69 -265 -72 -292 -78
-10 -2 -58 -15 -108 -29 -91 -25 -218 -59 -790 -212 -176 -46 -336 -90 -355
-95 -31 -9 -137 -38 -675 -181 -138 -37 -295 -80 -420 -114 -27 -7 -102 -27
-165 -44 -125 -32 -367 -98 -805 -218 -154 -42 -302 -82 -330 -89 -143 -35
-774 -209 -865 -238 -240 -76 -270 -82 -317 -60 -18 9 -92 75 -165 147 -127
126 -273 244 -440 356 -42 28 -80 51 -84 51 -3 0 -18 8 -32 19 -81 56 -343
185 -518 255 -77 31 -146 56 -152 56 -7 0 -12 4 -12 10 0 5 6 8 13 5 6 -2 91
-6 187 -10 96 -3 211 -8 255 -10 44 -2 134 -7 200 -10 66 -3 167 -8 225 -11
58 -2 148 -7 200 -9 166 -8 690 -16 690 -10 0 10 -112 179 -168 255 -31 41
-124 161 -207 265 -242 305 -349 451 -340 465 3 4 31 10 62 14 32 4 69 8 83
11 14 2 43 6 65 10 22 3 65 10 95 15 30 5 75 12 100 15 25 3 56 8 70 10 14 2
45 7 70 10 25 3 72 10 105 15 33 5 83 12 110 15 79 10 82 12 103 73 51 146 84
240 97 272 8 19 48 132 91 250 42 118 91 257 110 308 19 50 50 136 70 190 19
53 41 113 49 132 8 19 42 109 76 200 74 201 205 540 229 595 9 22 21 50 24 63
7 20 5 22 -21 18 -15 -3 -46 -7 -68 -11 -23 -3 -50 -7 -60 -9 -11 -2 -49 -7
-85 -11 -36 -4 -73 -9 -82 -10 -9 -2 -45 -6 -80 -9 -35 -4 -72 -8 -83 -10 -11
-2 -54 -7 -96 -10 -42 -4 -87 -9 -100 -11 -13 -2 -60 -6 -104 -10 -44 -3 -100
-8 -125 -10 -54 -5 -182 -15 -265 -20 -76 -5 -227 -14 -325 -20 -192 -12 -511
-24 -1012 -40 -63 -2 -106 1 -102 6 3 5 10 9 16 9 19 0 905 380 1148 492 36
17 83 38 105 48 49 22 134 61 240 110 44 20 112 52 150 70 103 47 797 393 890
443 126 69 295 162 359 198 l58 34 80 220 c43 121 82 227 85 235 4 8 7 17 8
20 1 3 6 16 12 30 6 14 17 45 26 70 20 59 196 529 207 555 5 11 45 115 89 230
143 375 452 1161 468 1188 9 15 -15 4 -117 -54z m-5775 -7434 c181 -12 267
-20 335 -30 14 -2 48 -7 75 -10 42 -4 128 -16 145 -20 3 -1 30 -5 60 -9 43 -7
194 -38 340 -71 94 -21 243 -65 365 -107 116 -40 412 -166 465 -198 8 -5 58
-32 110 -61 334 -185 586 -420 718 -668 50 -96 97 -213 118 -296 16 -64 17
-71 34 -185 11 -76 15 -313 6 -392 -3 -24 -8 -69 -11 -102 -8 -66 -11 -90 -25
-161 -6 -27 -12 -60 -15 -73 -2 -13 -6 -31 -9 -40 -3 -9 -7 -28 -10 -42 -7
-40 -73 -260 -96 -320 -12 -30 -28 -75 -37 -100 -39 -113 -187 -430 -275 -589
-90 -162 -270 -445 -350 -551 -134 -178 -301 -388 -363 -456 -5 -6 -44 -49
-85 -95 -72 -81 -376 -387 -476 -479 -98 -91 -261 -234 -369 -325 -33 -27 -69
-58 -80 -67 -20 -17 -270 -214 -315 -249 -123 -95 -315 -236 -459 -339 -165
-117 -175 -122 -197 -109 -44 27 -440 319 -591 436 -130 102 -364 293 -443
363 -14 12 -74 65 -134 118 -139 123 -474 454 -597 592 -236 262 -488 589
-636 826 -140 223 -312 539 -378 694 -10 25 -36 85 -57 133 -47 110 -146 399
-164 482 -1 6 -6 28 -12 50 -19 71 -51 242 -58 307 -3 35 -9 90 -13 124 -12
106 -3 412 14 474 2 8 7 30 10 47 11 67 58 201 100 285 77 154 162 268 299
401 73 71 294 247 310 247 4 0 33 17 64 38 149 97 504 256 692 308 8 2 62 17
120 34 58 17 114 33 125 35 78 18 356 76 389 80 23 3 52 8 66 10 29 5 64 11
140 21 81 11 79 11 160 18 41 4 95 9 120 12 25 2 110 7 190 10 80 4 146 8 148
9 5 4 443 -3 537 -10z"/>
<path d="M10248 9185 c-2 -1 -50 -6 -108 -10 -142 -9 -238 -18 -299 -30 -9 -1
-36 -6 -61 -10 -25 -4 -54 -9 -65 -11 -11 -3 -36 -7 -55 -10 -19 -3 -53 -10
-75 -16 -22 -5 -47 -11 -55 -13 -131 -27 -338 -97 -490 -165 -82 -37 -286
-152 -300 -169 -3 -3 -22 -19 -43 -35 -171 -127 -317 -351 -353 -538 -21 -112
-26 -340 -10 -448 27 -184 73 -356 138 -520 37 -94 142 -304 197 -394 22 -37
41 -70 41 -71 0 -5 182 -268 189 -275 3 -3 31 -39 62 -81 31 -41 63 -82 70
-90 8 -8 36 -41 64 -74 175 -212 480 -515 695 -691 19 -16 37 -31 40 -34 14
-15 200 -158 310 -238 69 -51 130 -95 135 -100 6 -4 36 -24 67 -45 l57 -38 93
67 c710 512 1107 885 1469 1384 208 285 360 577 444 851 19 61 37 126 39 143
3 17 8 42 11 56 39 176 45 434 14 576 -10 49 -23 98 -28 109 -4 11 -19 45 -32
75 -75 179 -236 354 -444 484 -157 99 -285 155 -540 235 -55 18 -150 40 -250
60 -121 24 -219 38 -395 57 -52 5 -527 14 -532 9z m269 -957 c334 -238 544
-490 646 -774 34 -95 41 -133 41 -239 0 -115 -28 -181 -108 -259 -71 -68 -221
-147 -328 -172 -10 -2 -28 -6 -40 -9 -161 -38 -432 -47 -578 -20 -434 80 -614
302 -520 641 66 235 304 554 579 774 50 40 184 139 189 140 2 0 56 -37 119
-82z"/>
</g>
</svg>
