<svg xmlns="http://www.w3.org/2000/svg" viewBox="0 0 68.34 30.09"><defs><style>.cls-1{fill:#58595b;}</style></defs><title>Asset 1</title><g id="Layer_2" data-name="Layer 2"><g id="SKETCHES"><path class="cls-1" d="M5,30.09a4.31,4.31,0,0,1-2.34-2.23,3.46,3.46,0,0,1-.22-1.06c-.08-2.5,1.35-4.62,2.64-6.16a24,24,0,0,1,4.71-4.09,22,22,0,0,1,4.75,4.22c1.35,1.66,2.78,4,2.51,6.43a3.21,3.21,0,0,1-.58,1.4A4.55,4.55,0,0,1,14.64,30a7.65,7.65,0,0,0,4.05-2.46,4.26,4.26,0,0,0,.76-1.87c.37-3.28-1.54-6.34-3.34-8.55a28.65,28.65,0,0,0-6.32-5.63,32.49,32.49,0,0,0-6.27,5.45C1.8,19-.1,21.8,0,25.13a4.51,4.51,0,0,0,.3,1.4C1,28.28,2.76,29.44,5,30.09Z"/><path class="cls-1" d="M9.74,27.59a8.86,8.86,0,0,0,1.73-1.5,3.46,3.46,0,0,0,1-2.27,1.09,1.09,0,0,0-.08-.39c-.58-1.52-4.23-1.46-5.09-.28a1.19,1.19,0,0,0-.21.52A3.38,3.38,0,0,0,8,26,7.71,7.71,0,0,0,9.74,27.59Z"/><path class="cls-1" d="M28.61,27.7a3.43,3.43,0,0,1-3.8-3.25H21.59c.07,3.3,3,5.64,7,5.64s6.91-2.47,6.91-5.72a4.56,4.56,0,0,0-1.17-3.12c-1-1.18-2.05-1.63-4.87-2.28s-3.69-1.23-3.69-2.63a2.86,2.86,0,0,1,3-2.47,2.83,2.83,0,0,1,3,2.61h3.32c-.16-3-2.68-5-6.17-5-3.72,0-6.44,2.23-6.44,5.26A4.36,4.36,0,0,0,24,20.05c.84.75,1.07.88,3.69,1.55l.94.25.8.21c1.82.48,2.79,1.37,2.79,2.66C32.23,26.41,30.65,27.7,28.61,27.7Z"/><path class="cls-1" d="M46.52,30.09a9.22,9.22,0,0,0,8.13-4.75l.22-.39H51.2l-.08.09a5.87,5.87,0,0,1-4.58,2.2,6.4,6.4,0,0,1-6.13-6.49,6.32,6.32,0,0,1,6.19-6.42,5.92,5.92,0,0,1,4.7,2.36l.08.09H55l-.22-.39a9.28,9.28,0,1,0-8.26,13.7Z"/><polygon class="cls-1" points="57.11 30.09 68.34 30.09 68.34 27.2 60.48 27.2 60.48 22.15 68.34 22.15 68.34 19.26 60.48 19.26 60.48 14.4 68.34 14.4 68.34 11.48 57.11 11.48 57.11 30.09"/><path class="cls-1" d="M5.47,7.18V2.85l-2,1.85-2-1.85V7.18H0V.11H.49l3,2.68L6.39.11h.49V7.18Z"/><path class="cls-1" d="M15.53,4.57a2.74,2.74,0,0,1-5.47,0V.11h1.41V4.57a1.31,1.31,0,0,0,.39.93,1.32,1.32,0,0,0,1.87,0,1.33,1.33,0,0,0,.39-.92h0V.11h1.41V4.57Z"/><path class="cls-1" d="M22.61,1.82a2.22,2.22,0,0,0-3.44,1.84,2.19,2.19,0,0,0,3.52,1.77l.9,1a3.62,3.62,0,0,1-2.33.85A3.66,3.66,0,1,1,23.51.78Z"/><path class="cls-1" d="M30.94.12h1.41V7.18H30.94V4.23H28.33V7.18H26.92V.12h1.41v2.7h2.61Z"/><path class="cls-1" d="M57.66.12a2.07,2.07,0,0,1,2.07,2.07,2,2,0,0,1-.36,1.16,2.14,2.14,0,0,1-1.3,3.83H55.74V.12ZM57.6,2.91a.82.82,0,0,0,.82-.81.81.81,0,0,0-.82-.8H57V2.91ZM58.05,6a.85.85,0,0,0,.86-.85.87.87,0,0,0-.86-.86H57V6Z"/><path class="cls-1" d="M68.34.11,66,4.59V7.18H64.63V4.59L62.32.11h1.56l1.45,2.66L66.78.11Z"/><g id="zDv3ll"><path class="cls-1" d="M44.4,1.35a2.21,2.21,0,0,1,.81-1,2.06,2.06,0,0,1,3.17,1.48,3.76,3.76,0,0,1-.72,2.6A8.33,8.33,0,0,1,44.79,7,.84.84,0,0,1,44,7a7.31,7.31,0,0,1-2.14-1.64,5.09,5.09,0,0,1-1.29-2.22,3,3,0,0,1,0-1.79,2.05,2.05,0,0,1,3.79-.16Z"/></g></g></g></svg>