<svg xmlns="http://www.w3.org/2000/svg" viewBox="0 0 16.99 13.88"><defs><style>.cls-1{isolation:isolate;}.cls-2{mix-blend-mode:multiply;}.cls-3{fill:#58595b;}</style></defs><title>Asset 5</title><g class="cls-1"><g id="Layer_2" data-name="Layer 2"><g id="Layer_1-2" data-name="Layer 1"><g class="cls-2"><g id="_6SQ6Fn" data-name="6SQ6Fn"><path class="cls-3" d="M16.54.27a3.77,3.77,0,0,1-1.45,1.92l.46-.08.5-.12.46-.14A3,3,0,0,1,17,1.69c-.13.17-.25.35-.39.52a6.82,6.82,0,0,1-1.23,1.17.22.22,0,0,0-.1.2,10,10,0,0,1-1.11,4.91,9.8,9.8,0,0,1-2.83,3.43,9,9,0,0,1-3,1.52A10.37,10.37,0,0,1,4,13.8,10,10,0,0,1,.05,12.38l0-.05a7.13,7.13,0,0,0,5.1-1.46A3.59,3.59,0,0,1,1.83,8.42a3.56,3.56,0,0,0,1.56-.05A3.52,3.52,0,0,1,.63,4.9a3.52,3.52,0,0,0,1.53.4A3.54,3.54,0,0,1,.74,3.18,3.46,3.46,0,0,1,1.12.65,10,10,0,0,0,8.33,4.31q0-.33-.06-.63A3.38,3.38,0,0,1,8.7,1.81a3.35,3.35,0,0,1,2-1.62A3.38,3.38,0,0,1,13.9.74c.12.09.23.19.34.29a.18.18,0,0,0,.2.05,6.83,6.83,0,0,0,2-.74Z"/></g></g></g></g></g></svg>