<svg xmlns="http://www.w3.org/2000/svg" viewBox="0 0 956.77 552.45"><defs><style>.cls-1{isolation:isolate;}.cls-2{mix-blend-mode:lighten;}.cls-3{mix-blend-mode:multiply;}.cls-4{fill:#75c594;}.cls-5{fill:#ee60a3;}</style></defs><title>Asset 10</title><g class="cls-1"><g id="Layer_2" data-name="Layer 2"><g id="Layer_1-2" data-name="Layer 1"><g class="cls-3"><path class="cls-4" d="M324,8.76l-3.13,25.82c-7.67-6.41-16-9.54-25.51-9.54-19.25,0-32.86,12.67-32.86,30.36,0,16.74,11.89,28,29.26,28a47.72,47.72,0,0,0,24-6.57l-3.29,26.6c-11.42,4.07-16.59,5-24.57,5-30.83,0-52.42-21.44-52.42-51.8,0-31.77,25-56.65,57-56.65C303.68,0,312.91,2.5,324,8.76Z"/><path class="cls-4" d="M389,88.89l-8,17.53H351.56L403.36,2h29.73l25.2,104.39h-27.7L426.2,88.89Zm9.7-20.66H421.2l-4.38-19.87c-1.73-8-1.88-8.92-2.35-12a30.53,30.53,0,0,1-.63-3.76,111.5,111.5,0,0,1-4.69,12.36Z"/><path class="cls-4" d="M562,65.88l24.42,40.54H555.77L532,65l-5,41.47H500.53L513.36,2h34c14.24,0,23,2.82,29,9.08,5,5.32,8,13.93,8,23.32s-2.82,17.21-8.45,23.16C572.05,61.66,569.23,63.38,562,65.88ZM537.15,23l-3.28,26.76h4.69c12.68,0,18.47-4.69,18.47-14.55C557,26.13,553.27,23,542.16,23Z"/><path class="cls-4" d="M698.8,2,696,25H665.31l-2.19,17.37h29.74L690,65.26H660.31l-2.2,18.15H690l-2.82,23H628.85L641.68,2Z"/><path class="cls-4" d="M178.17,236.89l-8,17.53H140.77L192.57,150H222.3l25.2,104.39H219.8l-4.38-17.53Zm9.7-20.66h22.54L206,196.36c-1.72-8-1.88-8.92-2.35-12.05a30.53,30.53,0,0,1-.63-3.76,111.5,111.5,0,0,1-4.69,12.36Z"/><path class="cls-4" d="M302.58,150h33.33c13.46,0,19.72,1.41,24.73,5.33,5.32,4.06,8.29,11.11,8.29,18.93a29.71,29.71,0,0,1-4.69,16.28c-3.13,4.53-5.64,6.57-12.37,9.54,6.58,1.57,9.08,2.66,12.37,5.48,4.53,3.91,7,10,7,17.37a31,31,0,0,1-19.88,28.8c-5.16,2-10.33,2.66-20.19,2.66H289.74Zm18.78,61L318.7,233.6h7.19c13,0,18-3.75,18-12.67,0-7.67-3.13-9.86-14.55-9.86Zm5-40.22-2.5,20.65h3.76c11.58,0,16.27-3.44,16.27-11.58,0-7-2.82-9.07-12.68-9.07Z"/><path class="cls-4" d="M530.58,197v2c0,34.27-22.85,57.43-56.65,57.43-34,0-57-21.28-57-52.74C417,171,441.38,148,476,148,507.58,148,529.33,167.41,530.58,197Zm-27.23,3C502.41,183.52,491.3,173,474.87,173,457,173,444,185.56,444,202.77s11.74,28.64,29.27,28.64c17.84,0,30.2-12,30.2-29.58A7.4,7.4,0,0,0,503.35,200Z"/><path class="cls-4" d="M675.8,150l-7.35,60.41c-2.51,20-5.17,28-11.9,34.43-7.82,7.51-20.34,11.58-35.68,11.58-27.07,0-43.5-13.3-43.5-35.68a134.51,134.51,0,0,1,1.25-14.4L585.5,150h26.29l-6.88,56.34c-.31,3.13-.47,6.11-.47,8.77,0,11,5.63,16.27,17.21,16.27,6.58,0,11.74-1.72,14.87-5.16,3.29-3.76,4.38-7.36,5.63-16.75l7.2-59.47Z"/><path class="cls-4" d="M765,173l-10.17,81.38H728.53l10-81.38H716.32l2.82-23H790l-2.81,23Z"/><path class="cls-4" d="M261.66,356.72,256,402.42H229.58l5.79-46.48L208.76,298H238l7.2,16.75c4.22,10,4.53,10.64,5.63,14.08.31.79.63,2,1.1,3.45a81.11,81.11,0,0,1,5.16-8.3l18-26H307.2Z"/><path class="cls-4" d="M448,345v2c0,34.27-22.84,57.43-56.65,57.43s-57-21.28-57-52.74c0-32.71,24.41-55.71,59-55.71C425,296,446.78,315.41,448,345Zm-27.22,3c-.94-16.44-12.05-26.92-28.49-26.92-17.84,0-30.83,12.52-30.83,29.73s11.74,28.64,29.27,28.64c17.84,0,30.2-12.05,30.2-29.58A7.87,7.87,0,0,0,420.81,348Z"/><path class="cls-4" d="M593.25,298l-7.35,60.41c-2.51,20-5.17,28-11.89,34.43-7.83,7.51-20.35,11.58-35.69,11.58-27.07,0-43.5-13.3-43.5-35.68a137.22,137.22,0,0,1,1.25-14.4L503,298h26.29l-6.89,56.34c-.31,3.13-.47,6.11-.47,8.77,0,10.95,5.64,16.27,17.22,16.27,6.57,0,11.73-1.72,14.86-5.16,3.29-3.76,4.39-7.36,5.64-16.75l7.2-59.47Z"/><path class="cls-4" d="M695.12,361.88l24.42,40.54H688.86L665.08,361l-5,41.47H633.62L646.45,298h34c14.24,0,23,2.82,29,9.08,5,5.32,8,13.93,8,23.32s-2.82,17.21-8.45,23.16C705.14,357.66,702.32,359.38,695.12,361.88ZM670.24,319,667,345.76h4.7c12.68,0,18.47-4.69,18.47-14.55,0-9.08-3.76-12.21-14.87-12.21Z"/><path class="cls-4" d="M207.13,453.55l-11.58,20c-7.05-5.32-12.68-7.67-18.31-7.67-7.2,0-11.74,3.44-11.74,9.08,0,5,2.66,7.51,13.3,12.51C196,495.64,202,503,202,516.77c0,21-16.59,35.68-39.9,35.68-12.52,0-21.29-2.82-35.21-11.42l11.89-20c9.39,6.41,14.87,8.6,22.06,8.6,8.3,0,13.93-4.22,13.93-10.64,0-4.54-2.34-7-12.2-11.89-18.63-9.39-24.1-16.12-24.1-30.21,0-18.93,16.27-32.86,38.34-32.86C187.41,444,197,447,207.13,453.55Z"/><path class="cls-4" d="M273.47,532.89l-8,17.53H236.07L287.87,446h29.74L342.8,550.42H315.1l-4.38-17.53Zm9.71-20.66h22.53l-4.38-19.87c-1.72-8-1.88-8.92-2.35-12.05a31,31,0,0,1-.62-3.76,109.33,109.33,0,0,1-4.7,12.36Z"/><path class="cls-4" d="M457.35,446l-2.82,23h-33l-2.19,17.68h30.05l-2.82,22.85H416.5l-5,40.85H385.05L397.88,446Z"/><path class="cls-4" d="M560.47,446l-2.82,23H527l-2.19,17.37h29.73l-2.81,22.85H522l-2.19,18.15h31.93l-2.82,23H490.52L503.35,446Z"/><path class="cls-4" d="M650.13,469,640,550.42H613.67l10-81.38H601.46l2.82-23h70.89l-2.81,23Z"/><path class="cls-4" d="M763.9,504.72l-5.64,45.7H731.82l5.79-46.48L711,446h29.27l7.2,16.75c4.22,10,4.53,10.64,5.63,14.08.31.79.63,2,1.1,3.45a81.11,81.11,0,0,1,5.16-8.3l18-26h32.08Z"/></g><g class="cls-3"><path class="cls-5" d="M637.11,85.57,455.35,508H335l-28.5-168.46c-6.33-36.1-8.87-63.33-9.5-109.56-13.93,47.5-19,62.07-34.83,100.7L190,508H75.36L0,85.57H107.66l26.6,158.33c8.87,51.3,11.4,74.1,15.2,138.7,10.13-37.37,13.94-48.14,17.73-58.27l16.47-40.53,79.8-198.23H364.79l31,181.77c5.07,26,8.23,62.06,12,115.26,9.5-32.3,13.94-46.23,20.9-62.7l12.67-31.67L521.21,85.57Z"/><path class="cls-5" d="M956.77,85.57l-11.39,93.1H821.24L812.38,249H932.71l-11.4,92.46H801l-8.87,73.47h129.2L909.91,508H673.68L725.61,85.57Z"/></g></g></g></g></svg>