<svg xmlns="http://www.w3.org/2000/svg" viewBox="0 0 228.52 74.79"><defs><style>.cls-1{fill:#414042;}</style></defs><title>Asset 1</title><g id="Layer_2" data-name="Layer 2"><g id="Layer_1-2" data-name="Layer 1"><path class="cls-1" d="M5.16,2.69a8.44,8.44,0,0,0-3,6.62,8.5,8.5,0,0,0,2.92,6.62A21.37,21.37,0,0,0,10.44,19l2.86,1.39a6.79,6.79,0,0,1,1.31.86,4,4,0,0,1,1.44,3.15c0,2-.79,2.7-1.05,2.93a5.2,5.2,0,0,1-3.45,1c-2.65,0-4.07-1.06-4.75-3.55L6.16,22.4.05,24.49.7,26.61c1.58,5.23,5.33,8,10.85,8a13.48,13.48,0,0,0,4.54-.71c2.86-1.07,6.24-3.58,6.24-9.5a10.1,10.1,0,0,0-3.06-7.46,13.77,13.77,0,0,0-2.68-2A31.75,31.75,0,0,0,13,13.07a19.45,19.45,0,0,1-3.6-1.91,2.3,2.3,0,0,1-.94-1.85,2.4,2.4,0,0,1,.89-2,3.8,3.8,0,0,1,2.54-.82A4.7,4.7,0,0,1,14.42,7a3.41,3.41,0,0,1,1.22,1.25L16.69,10,22.45,7.5,21.22,5.29C20,3,17.3.24,11.91.24A9.94,9.94,0,0,0,5.16,2.69Z"/><path class="cls-1" d="M51.58.41V24.68a3,3,0,0,1-1.21,2.57,5.19,5.19,0,0,1-3.33,1,5.25,5.25,0,0,1-3.34-1,3,3,0,0,1-1.16-2.61V.41H36.29V24.68a9.22,9.22,0,0,0,3.33,7.42A11.42,11.42,0,0,0,47,34.56a11.26,11.26,0,0,0,7.42-2.42,9.37,9.37,0,0,0,3.4-7.46V.41Z"/><path class="cls-1" d="M126.26,4.94a16.84,16.84,0,0,0-4.9,12.4,17.69,17.69,0,0,0,30.21,12.15,16.39,16.39,0,0,0,4.52-11.66v-2.3H140v6.28h9a10.61,10.61,0,0,1-10.29,6.59,10.87,10.87,0,0,1-8-3.12,10.65,10.65,0,0,1-3.08-7.94,11.28,11.28,0,0,1,20.26-6.64l1.38,1.9,5.05-3.82L152.92,7a18.07,18.07,0,0,0-26.66-2Z"/><path class="cls-1" d="M165.63,4.89a16.94,16.94,0,0,0-4.86,12.45,17.37,17.37,0,1,0,34.73,0,17,17,0,0,0-4.9-12.49,18.44,18.44,0,0,0-25,0Zm4.48,20.41h0a10.69,10.69,0,0,1-3.05-8,11.08,11.08,0,1,1,22.15,0,10.74,10.74,0,0,1-3.05,8,10.9,10.9,0,0,1-8,3A10.77,10.77,0,0,1,170.11,25.3Z"/><path class="cls-1" d="M201,.41V34.27h12.05A14.2,14.2,0,0,0,224.49,29a17.87,17.87,0,0,0,4-11.72,17.62,17.62,0,0,0-4-11.65A14.17,14.17,0,0,0,213.09.41Zm12.05,6.24a8,8,0,0,1,6.62,3.09,11.4,11.4,0,0,1,2.48,7.56,10.83,10.83,0,0,1-2.9,8,8.38,8.38,0,0,1-6.2,2.68h-5.8V6.65Z"/><path class="cls-1" d="M100.23.41H94V21.87L75.65.41H72.1V34.27h6.25v-21l18.1,21h3.78Z"/><path class="cls-1" d="M7.09,61.77H2.16v3.58H6.92v2H2.16v6.49H0V59.73H7.09Z"/><path class="cls-1" d="M24.84,61.77H19.19v3.58h5.48v2H19.19v4.46h5.65v2H17V59.73h7.81Z"/><path class="cls-1" d="M41.74,62.87A2.28,2.28,0,0,0,41.1,62a2.24,2.24,0,0,0-1.52-.51,1.76,1.76,0,0,0-2,1.7c0,.42.15,1.16,1.53,1.72l1.42.57c2.61,1.06,3.33,2.55,3.33,4.16a4.36,4.36,0,0,1-4.56,4.54A4.16,4.16,0,0,1,36,72.74,4.66,4.66,0,0,1,34.78,70l2.14-.47a3,3,0,0,0,.6,1.8,2.23,2.23,0,0,0,1.84.85,2.27,2.27,0,0,0,2.34-2.37c0-1.45-1.1-2-2-2.42L38.3,66.8c-1.16-.49-2.88-1.47-2.88-3.59a3.82,3.82,0,0,1,4.14-3.73,4.2,4.2,0,0,1,2.84,1,5,5,0,0,1,1.08,1.42Z"/><path class="cls-1" d="M59.22,61.77V73.88H57.05V61.77H53.81v-2h8.65v2Z"/><path class="cls-1" d="M74.57,59.73V73.88H72.41V59.73Z"/><path class="cls-1" d="M86.85,59.73l4,9.87,3.94-9.87h2.33L90.8,74.79,84.52,59.73Z"/><path class="cls-1" d="M117,70.47h-6l-1.55,3.41H107l7-15,6.71,15h-2.34Zm-.87-2L114,63.64l-2.19,4.79Z"/><path class="cls-1" d="M132.87,59.73V71.85H137v2h-6.32V59.73Z"/><path class="cls-1" d="M170.28,73.88h-9.5l4.9-5.94c.49-.59,1.23-1.53,1.7-2.2a3.54,3.54,0,0,0,.74-2,2.21,2.21,0,0,0-2.36-2.29,2.5,2.5,0,0,0-2.5,2.56h-2.08a5.07,5.07,0,0,1,1.19-3.09,4.6,4.6,0,0,1,7.87,2.88,5.23,5.23,0,0,1-1,3,29.88,29.88,0,0,1-2,2.55L165,71.89h5.28Z"/><path class="cls-1" d="M183.31,72.59a8.63,8.63,0,0,1-1.8-5.77,8.68,8.68,0,0,1,1.8-5.79,4.12,4.12,0,0,1,6.41,0,8.68,8.68,0,0,1,1.8,5.79,8.63,8.63,0,0,1-1.8,5.77,4.14,4.14,0,0,1-6.41,0Zm1.3-10a8.17,8.17,0,0,0-1,4.23,8.2,8.2,0,0,0,1,4.24,2.14,2.14,0,0,0,3.81,0,8.2,8.2,0,0,0,1-4.24,8.17,8.17,0,0,0-1-4.23,2.14,2.14,0,0,0-3.81,0Z"/><path class="cls-1" d="M205.21,61.73h-2.46l1.18-2h3.44V73.88h-2.16Z"/><path class="cls-1" d="M220.63,73.2,224,68.94a3.39,3.39,0,0,1-.76.08,4.55,4.55,0,0,1-3.31-1.31,4.41,4.41,0,0,1-1.3-3.23A5.05,5.05,0,0,1,220,60.94a5.39,5.39,0,0,1,7.29,0,4.41,4.41,0,0,1,1.23,3.2,5.55,5.55,0,0,1-.68,2.7,14.61,14.61,0,0,1-1.71,2.52l-3.93,5.05Zm4.94-6.87a3.13,3.13,0,0,0,.83-2.1,2.83,2.83,0,0,0-.83-2,3,3,0,0,0-2-.8,3.08,3.08,0,0,0-2,.8,2.88,2.88,0,0,0,2,5A2.84,2.84,0,0,0,225.57,66.33Z"/></g></g></svg>