<?xml version="1.0" encoding="utf-8"?>
<!-- Generator: Adobe Illustrator 23.0.1, SVG Export Plug-In . SVG Version: 6.00 Build 0)  -->
<svg version="1.1" id="Layer_1" xmlns="http://www.w3.org/2000/svg" xmlns:xlink="http://www.w3.org/1999/xlink" x="0px" y="0px"
	 viewBox="0 0 42.6 78.9" style="enable-background:new 0 0 42.6 78.9;" xml:space="preserve">
<style type="text/css">
	.st0{fill:#EB3700;}
</style>
<title>camera-icons</title>
<g id="Layer_1-2">
	<g id="PLT82t">
		<path class="st0" d="M20.5,58.8v-7l4.3,3.2l10.5-10.5l2.1,2.1L8.8,75.2l-1.9-2.1l7.5-7.5c-2.4-0.9-4.7-1.8-7.1-2.6
			c-0.5-0.1-0.8-0.6-0.8-1.1l0,0v-9.2L20.5,58.8z"/>
		<path class="st0" d="M26.4,62.2l3.5-3.5l6,4.4l0.1,0.1c1.4,0.6,1.8,1.8,1.4,3.3L26.4,62.2z"/>
		<path class="st0" d="M23.6,65.2v3.6l-2.7-1L23.6,65.2z"/>
	</g>
	<polygon class="st0" points="24.9,31.6 24.9,26.8 16.3,27.5 	"/>
	<path class="st0" d="M13,38.3h19.9c3.5,0,6.3-2.8,6.3-6.3c0,0,0,0,0,0l0,0V12.1c0-3.5-2.8-6.3-6.3-6.3H13c-3.5,0-6.3,2.8-6.3,6.3
		l0,0l0,0V32C6.7,35.5,9.5,38.3,13,38.3C13,38.3,13,38.3,13,38.3z M14.5,8l1.9,0.4v7.5l4.9,1v-6.8l1.9,0.4v6.8l7.9,1.5V21l-16.6-3.2
		L14.5,8z M14.5,25.9L31,24v2.2l-4.3,0.4v5.8l4.3,2v2.4l-16.6-8.2L14.5,25.9z"/>
</g>
</svg>
